<?xml version="1.0" standalone="no"?>
<!DOCTYPE svg PUBLIC "-//W3C//DTD SVG 1.1//EN" "http://www.w3.org/Graphics/SVG/1.1/DTD/svg11.dtd" >
<svg xmlns="http://www.w3.org/2000/svg">
<metadata>
Created by FontPrep 20130207 at Fri Jul 15 15:09:43 2016
 By Nikita Drozd
HTF Gotham    2000 The Hoefler Type Foundry, Inc. Info: www.typography.com
</metadata>
<defs>
<font id="bdc473fae2f64b1c45b8886bcff81bae" horiz-adv-x='1024' >
  <font-face 
    font-family="Gotham-Medium"
    font-weight="400"
    font-stretch="normal"
    units-per-em="2048"
    panose-1="2 0 6 4 4 0 0 2 0 4"
    ascent="1638"
    descent="-410"
    x-height="1081"
    cap-height="1434"
    bbox="-143 -338.014 2417 1888"
    underline-thickness="40"
    underline-position="-231"
    unicode-range="U+0005-2122"
  />
<missing-glyph 
 />
    <glyph glyph-name=".notdef" 
 />
    <glyph glyph-name=".null" horiz-adv-x="0" 
 />
    <glyph glyph-name="nonmarkingreturn" horiz-adv-x="614" 
 />
    <glyph glyph-name="breve" 
d="M512 1389q141 0 180 129h170q-10 -145 -106.5 -224.5t-243.5 -79.5t-243.5 79t-106.5 225h170q39 -129 180 -129z" />
    <glyph glyph-name="dotaccent" 
d="M383 1462h258v-243h-258v243z" />
    <glyph glyph-name="ring" 
d="M512 1313q53 0 90 36.5t37 88.5v4q0 51 -37 88t-90 37t-90 -37t-37 -88v-4q0 -51 37 -88t90 -37zM348 1281q-69 67 -69 157v4q0 91 69.5 157t163.5 66t163.5 -66t69.5 -157v-4q0 -90 -69 -157t-164 -67t-164 67z" />
    <glyph glyph-name="hungarumlaut" unicode="&#xa;" 
d="M328 1554l217 -100l-246 -235h-184zM705 1554l217 -100l-250 -235h-185z" />
    <glyph glyph-name="ogonek" 
d="M360 -115q0 63 31 135h176q-12 -48 -12 -104t45 -93.5t150 -43.5v-115q-190 -12 -290 47.5t-100 173.5z" />
    <glyph glyph-name="caron" 
d="M160 1518h196l158 -136l158 136h192l-237 -299h-230z" />
    <glyph glyph-name="dotlessi" unicode="&#xd;" horiz-adv-x="585" 
d="M170 1081h248v-1081h-248v1081z" />
    <glyph glyph-name="fraction" horiz-adv-x="940" 
d="M813 1552h225l-956 -1753h-225z" />
    <glyph glyph-name="fi" horiz-adv-x="1355" 
d="M940 1081h248v-1081h-248v1081zM598 1296q-143 0 -143 -163v-60h286v-205h-282v-868h-248v868h-137v207h137v78q0 180 87 267t245 87q104 0 200 -28v-209q-80 26 -145 26zM930 1483h266v-236h-266v236z" />
    <glyph glyph-name="fl" horiz-adv-x="1355" 
d="M940 1495h248v-1495h-248v1495zM598 1296q-143 0 -143 -163v-60h286v-205h-282v-868h-248v868h-137v207h137v78q0 180 87 267t245 87q104 0 200 -28v-209q-80 26 -145 26z" />
    <glyph glyph-name="Lslash" horiz-adv-x="1329" 
d="M246 1434h250v-553l413 123v-234l-413 -125v-416h755v-229h-1005v569l-154 -45v234l154 47v629z" />
    <glyph glyph-name="lslash" horiz-adv-x="708" 
d="M231 1495h246v-580l156 48v-236l-156 -47v-680h-246v608l-155 -47v236l155 47v651z" />
    <glyph glyph-name="Zcaron" horiz-adv-x="1437" 
d="M375 1851h196l158 -135l158 135h192l-237 -299h-230zM160 1210v224h1147v-187l-846 -1024h846v-223h-1174v186l846 1024h-819z" />
    <glyph glyph-name="zcaron" horiz-adv-x="1146" 
d="M238 1518h196l158 -136l158 136h192l-237 -299h-230zM129 879v202h918v-170l-625 -708h625v-203h-941v170l625 709h-602z" />
    <glyph glyph-name="space" unicode=" " horiz-adv-x="614" 
 />
    <glyph glyph-name="space" unicode="&#xa0;" horiz-adv-x="614" 
 />
    <glyph glyph-name="exclam" unicode="!" horiz-adv-x="618" 
d="M174 281h272v-281h-272v281zM164 1434h291v-72l-76 -909h-137l-78 909v72z" />
    <glyph glyph-name="quotedbl" unicode="&#x22;" horiz-adv-x="997" 
d="M451 1434v-11l-199 -602h-129l47 613h281zM901 1434v-11l-201 -602h-129l50 613h280z" />
    <glyph glyph-name="numbersign" unicode="#" horiz-adv-x="1433" 
d="M854 543l61 356h-335l-62 -356h336zM80 330v213h221l59 356h-204v213h241l56 322h219l-56 -322h336l54 322h219l-56 -322h183v-213h-219l-60 -356h205v-213h-242l-57 -330h-219l57 330h-336l-55 -330h-219l57 330h-184z" />
    <glyph glyph-name="dollar" unicode="$" horiz-adv-x="1314" 
d="M956 383v4q0 72 -41.5 113.5t-160.5 79.5v-371q98 8 150 54t52 120zM395 1057v-4q0 -63 39 -107.5t158 -79.5v361q-98 -8 -147.5 -55.5t-49.5 -114.5zM154 1038v4q0 169 118 271.5t312 120.5v118h178v-122q207 -26 385 -156l-115 -193q-133 100 -278 131v-389
q233 -57 338.5 -157.5t105.5 -264.5v-4q0 -165 -120.5 -272t-315.5 -123v-203h-178v205q-270 32 -484 203l131 186q180 -147 361 -176v401q-229 59 -333.5 155.5t-104.5 264.5z" />
    <glyph glyph-name="percent" unicode="%" horiz-adv-x="1738" 
d="M1306 141q71 0 111.5 60.5t40.5 144.5v4q0 86 -44 147.5t-115 61.5t-111.5 -60.5t-40.5 -144.5v-4q0 -88 44 -148.5t115 -60.5zM439 874q71 0 112 60.5t41 144.5v4q0 86 -44 147.5t-115 61.5t-111.5 -60.5t-40.5 -144.5v-4q0 -88 43.5 -148.5t114.5 -60.5zM965 346v4
q0 153 96.5 260t243.5 107t241 -107t94 -256v-4q0 -153 -96 -259.5t-244 -106.5t-241.5 106.5t-93.5 255.5zM1292 1434h203l-1049 -1434h-202zM98 1079v4q0 153 96.5 260t244.5 107t241.5 -107t93.5 -256v-4q0 -151 -96 -258.5t-243.5 -107.5t-242 106t-94.5 256z" />
    <glyph glyph-name="ampersand" unicode="&#x26;" horiz-adv-x="1425" 
d="M334 401v-4q0 -92 67.5 -150.5t156.5 -58.5q155 0 286 125l-320 326q-190 -82 -190 -238zM836 1094v4q0 72 -47 117t-121 45t-120 -48.5t-46 -124.5v-4q0 -53 24.5 -100t83.5 -113q111 41 168.5 93.5t57.5 130.5zM80 389v4q0 269 305 402q-119 152 -119 299v4
q0 148 113.5 254t290.5 106q176 0 282.5 -99t106.5 -247v-4q0 -257 -316 -373l246 -250q84 125 154 277l190 -100q-97 -194 -194 -328l225 -230l-186 -133l-191 195q-199 -186 -440 -186q-206 0 -336.5 114t-130.5 295z" />
    <glyph glyph-name="quotesingle" unicode="'" horiz-adv-x="550" 
d="M455 1434v-11l-201 -602h-131l47 613h285z" />
    <glyph glyph-name="parenleft" unicode="(" horiz-adv-x="901" 
d="M129 588q0 293 143.5 508t423.5 368l109 -166q-330 -218 -379 -407t-49 -303q0 -229 105.5 -397t322.5 -314l-109 -166q-281 154 -424 369t-143 508z" />
    <glyph glyph-name="parenright" unicode=")" horiz-adv-x="901" 
d="M774 588q0 -563 -567 -877l-109 166q330 218 379 407t49 304q0 229 -104.5 398t-323.5 312l109 166q567 -313 567 -876z" />
    <glyph glyph-name="asterisk" unicode="*" horiz-adv-x="880" 
d="M397 1032l-204 -149l-74 125l233 102l-233 102l74 125l204 -149l-28 250h143l-29 -250l205 149l74 -125l-234 -102l234 -102l-74 -125l-205 149l29 -250h-143z" />
    <glyph glyph-name="plus" unicode="+" horiz-adv-x="1310" 
d="M539 608h-394v226h394v391h233v-391h393v-226h-393v-391h-233v391z" />
    <glyph glyph-name="comma" unicode="," horiz-adv-x="550" 
d="M139 0v281h273v-238q0 -172 -80 -250t-236 -90l-26 104q188 37 174 193h-105z" />
    <glyph glyph-name="hyphen" unicode="-" horiz-adv-x="835" 
d="M115 750h606v-244h-606v244z" />
    <glyph glyph-name="period" unicode="." horiz-adv-x="550" 
d="M139 281h273v-281h-273v281z" />
    <glyph glyph-name="slash" unicode="/" horiz-adv-x="1067" 
d="M874 1634h216l-926 -1896h-215z" />
    <glyph glyph-name="zero" unicode="0" horiz-adv-x="1482" 
d="M1106 713v4q0 215 -102 364.5t-265 149.5t-262.5 -145.5t-99.5 -364.5v-4q0 -219 102 -366.5t265 -147.5t262.5 147t99.5 363zM672 -25q-209 0 -382 212t-173 526v4q0 314 127 469t242.5 213.5t325 58.5t382 -213t172.5 -524v-4q0 -314 -127 -469.5t-242.5 -214
t-324.5 -58.5z" />
    <glyph glyph-name="one" unicode="1" horiz-adv-x="811" 
d="M614 1444v-1444h-249v1188l-259 -72l-53 205l385 123h176z" />
    <glyph glyph-name="two" unicode="2" horiz-adv-x="1255" 
d="M862 1006q0 106 -66.5 164.5t-165 58.5t-173 -53.5t-158.5 -161.5l-178 139q108 153 226 227t316 74t328.5 -118t130.5 -310v-4q0 -159 -82.5 -273t-289.5 -282l-295 -246h682v-221h-1037v199l494 419q216 178 242 258t26 130z" />
    <glyph glyph-name="three" unicode="3" horiz-adv-x="1265" 
d="M264 391q160 -188 370 -188q114 0 184.5 59.5t70.5 157.5v4q0 106 -89 163.5t-241 57.5h-117l-41 158l387 411h-620v220h948v-189l-399 -409q288 -35 355 -169.5t67 -234.5v-4q0 -199 -140 -326t-362 -127q-338 0 -549 252z" />
    <glyph glyph-name="four" unicode="4" horiz-adv-x="1394" 
d="M844 528v568l-471 -568h471zM844 322h-723l-47 180l796 942h215v-916h205v-206h-205v-322h-241v322z" />
    <glyph glyph-name="five" unicode="5" horiz-adv-x="1273" 
d="M652 915q225 0 363 -116.5t138 -333.5v-4q0 -220 -146 -353t-384 -133q-298 0 -527 220l156 182q185 -172 369 -172q129 0 206.5 67.5t77.5 180.5v4q0 111 -83 174t-214 63t-264 -63l-151 100l40 703h857v-224h-639l-23 -336q117 41 224 41z" />
    <glyph glyph-name="six" unicode="6" horiz-adv-x="1343" 
d="M971 453v4q0 109 -79 179.5t-211 70.5t-213 -73t-81 -179v-4q0 -110 80 -184t216 -74t212 74t76 186zM379 774q144 144 351 144t350 -122t143 -329v-4q0 -214 -153 -351t-380 -137q-318 0 -445.5 199.5t-127.5 499.5v4q0 340 159.5 560t454.5 220q139 0 241.5 -42
t196.5 -118l-135 -194q-76 59 -146.5 92t-157.5 33q-164 0 -253.5 -127.5t-97.5 -327.5z" />
    <glyph glyph-name="seven" unicode="7" horiz-adv-x="1247" 
d="M139 1212v222h1008v-191l-647 -1243h-283l643 1212h-721z" />
    <glyph glyph-name="eight" unicode="8" horiz-adv-x="1290" 
d="M645 190q141 0 221 62.5t80 153.5v4q0 96 -85.5 156.5t-215.5 60.5t-215.5 -60.5t-85.5 -156.5v-4q0 -88 80 -152t221 -64zM645.5 827q110.5 0 183 59.5t72.5 151.5v4q0 84 -69.5 142.5t-186.5 58.5t-186.5 -58.5t-69.5 -140.5v-4q0 -94 73 -153.5t183.5 -59.5zM147 1063
v4q0 162 140.5 274.5t356.5 112.5q217 0 358 -111t141 -276v-4q0 -121 -58.5 -196.5t-150.5 -123.5q117 -53 187.5 -134t70.5 -210v-4q0 -190 -153.5 -302.5t-391 -112.5t-393.5 112t-156 297v4q0 243 258 350q-209 107 -209 320z" />
    <glyph glyph-name="nine" unicode="9" horiz-adv-x="1343" 
d="M956 973v4q0 113 -80.5 188.5t-215.5 75.5t-211 -77.5t-76 -188.5v-4q0 -113 79 -184.5t213 -71.5t212.5 74t78.5 184zM291 340q158 -135 321 -135q164 0 256.5 127.5t96.5 322.5q-121 -151 -344 -151t-361.5 124t-138.5 330v5q0 212 150 353.5t384 141.5
q135 0 228.5 -38t169.5 -113q174 -166 174 -547v-4q0 -352 -165.5 -566.5t-449.5 -214.5q-150 0 -258 48.5t-200 123.5z" />
    <glyph glyph-name="colon" unicode=":" horiz-adv-x="571" 
d="M150 281h272v-281h-272v281zM150 1081h272v-280h-272v280z" />
    <glyph glyph-name="semicolon" unicode=";" horiz-adv-x="571" 
d="M150 0v281h272v-238q0 -172 -80 -250t-236 -90l-26 104q188 37 174 193h-104zM150 1081h272v-280h-272v280z" />
    <glyph glyph-name="less" unicode="&#x3c;" horiz-adv-x="1310" 
d="M143 610v221l977 453v-235l-731 -326l731 -328v-237z" />
    <glyph glyph-name="equal" unicode="=" horiz-adv-x="1310" 
d="M176 580h959v-230h-959v230zM176 1092h959v-230h-959v230z" />
    <glyph glyph-name="greater" unicode="&#x3e;" horiz-adv-x="1310" 
d="M190 393l732 326l-732 328v237l977 -453v-221l-977 -452v235z" />
    <glyph glyph-name="question" unicode="?" horiz-adv-x="1107" 
d="M365 281h274v-281h-274v281zM537 1223q-182 0 -334 -162l-154 164q90 102 208.5 164.5t256.5 62.5q247 0 377.5 -113.5t130.5 -302.5v-4q0 -180 -112 -280.5t-300 -133.5l-20 -165h-166l-41 331l10 11q379 15 379 229v4q0 86 -62.5 140.5t-172.5 54.5z" />
    <glyph glyph-name="at" unicode="@" horiz-adv-x="2007" 
d="M1219 623q0 114 -61.5 175.5t-165.5 61.5t-188.5 -93.5t-84.5 -214.5t60.5 -179t164.5 -58t189.5 97t85.5 211zM1022 -332q-197 0 -363.5 71t-289.5 192.5t-191.5 283.5t-68.5 346t69.5 347t190 285t284.5 193.5t352.5 71.5t351.5 -67.5t283.5 -179t189 -258.5t68.5 -291
q0 -262 -115 -393.5t-282 -131.5q-121 0 -194.5 43t-108.5 101q-139 -144 -305 -144t-274.5 105.5t-108.5 281.5q0 212 141.5 362t326.5 150t286 -151l24 123l199 -31l-90 -516q-4 -29 -7.5 -51.5t-3.5 -36.5q0 -66 42 -106t108 -40q126 0 203.5 109t77.5 311
q0 141 -61.5 273.5t-170 234.5t-257 163.5t-323 61.5t-324 -64.5t-259 -176t-171 -260t-61.5 -318.5t61.5 -318.5t172.5 -259t263.5 -174t319.5 -63.5t285.5 35t235.5 102l37 -61q-255 -154 -543 -154z" />
    <glyph glyph-name="A" unicode="A" horiz-adv-x="1617" 
d="M1053 569l-248 574l-246 -574h494zM692 1444h234l630 -1444h-266l-145 346h-678l-148 -346h-258z" />
    <glyph glyph-name="B" unicode="B" horiz-adv-x="1478" 
d="M1126 424q0 192 -295 192h-399v-393h418q129 0 202.5 49.5t73.5 147.5v4zM776 829q123 0 197 48.5t74 146.5v4q0 86 -64.5 134t-187.5 48h-363v-381h344zM1298 1065q0 -216 -204 -320q127 -43 205.5 -122.5t78.5 -225.5v-4q0 -190 -143.5 -291.5t-386.5 -101.5h-664v1434
h643q248 0 375 -127q96 -96 96 -238v-4z" />
    <glyph glyph-name="C" unicode="C" horiz-adv-x="1511" 
d="M1260 1049q-192 178 -392 178q-214 0 -348.5 -148t-134.5 -358v-4q0 -211 134.5 -360.5t324.5 -149.5t285.5 71.5t140.5 114.5l162 -164q-185 -191 -333.5 -222.5t-276.5 -31.5t-262 57.5t-231.5 157t-152.5 234.5t-55 289v4q0 311 152.5 467.5t288.5 215t266 58.5
q216 0 348.5 -58t244.5 -165z" />
    <glyph glyph-name="D" unicode="D" horiz-adv-x="1601" 
d="M719 229q225 0 361.5 136.5t136.5 347.5v4q0 212 -137.5 349.5t-360.5 137.5h-283v-975h283zM184 1434h535q333 0 547.5 -203t214.5 -510v-4q0 -309 -215.5 -513t-546.5 -204h-535v1434z" />
    <glyph glyph-name="E" unicode="E" horiz-adv-x="1372" 
d="M184 1434h1063v-226h-811v-372h719v-226h-719v-385h821v-225h-1073v1434z" />
    <glyph glyph-name="F" unicode="F" horiz-adv-x="1343" 
d="M184 1434h1067v-230h-815v-391h723v-229h-723v-584h-252v1434z" />
    <glyph glyph-name="G" unicode="G" horiz-adv-x="1605" 
d="M121 713v4q0 309 152.5 465.5t288.5 216t298 59.5q258 0 377 -73.5t174 -120.5l-160 -191q-137 117 -235 135.5t-181 18.5t-168 -40t-183.5 -149.5t-98.5 -316.5v-4q0 -226 137 -369t344 -143t353 108v269h-367v219h610v-602q-264 -224 -597 -224t-538.5 210t-205.5 528z
" />
    <glyph glyph-name="H" unicode="H" horiz-adv-x="1556" 
d="M184 1434h252v-596h684v596h252v-1434h-252v604h-684v-604h-252v1434z" />
    <glyph glyph-name="I" unicode="I" horiz-adv-x="649" 
d="M199 1434h252v-1434h-252v1434z" />
    <glyph glyph-name="J" unicode="J" horiz-adv-x="1144" 
d="M474 -20q-138 0 -248.5 66.5t-182.5 164.5l166 170q63 -80 130 -124t164 -44t159.5 68.5t62.5 212.5v940h258v-947q0 -247 -98.5 -345.5t-185.5 -130t-225 -31.5z" />
    <glyph glyph-name="K" unicode="K" horiz-adv-x="1484" 
d="M184 1434h252v-721l682 721h309l-596 -617l623 -817h-305l-490 645l-223 -229v-416h-252v1434z" />
    <glyph glyph-name="L" unicode="L" horiz-adv-x="1267" 
d="M184 1434h252v-1205h754v-229h-1006v1434z" />
    <glyph glyph-name="M" unicode="M" horiz-adv-x="1777" 
d="M184 1434h269l436 -678l436 678h268v-1434h-252v1028l-452 -676h-8l-449 672v-1024h-248v1434z" />
    <glyph glyph-name="N" unicode="N" horiz-adv-x="1617" 
d="M184 1434h234l768 -992v992h248v-1434h-211l-791 1020v-1020h-248v1434z" />
    <glyph glyph-name="O" unicode="O" horiz-adv-x="1740" 
d="M1356 713v4q0 215 -139 362.5t-349 147.5t-346.5 -147.5t-136.5 -358.5v-4q0 -215 139 -362.5t349 -147.5t346.5 147.5t136.5 358.5zM868 -25q-166 0 -303 58.5t-235.5 159t-153.5 234.5t-55 286v4q0 309 155.5 465.5t293 216t303 59.5t303 -58.5t235.5 -158.5
t153.5 -234.5t55.5 -285.5v-4q0 -307 -155.5 -465t-293 -217.5t-303.5 -59.5z" />
    <glyph glyph-name="P" unicode="P" horiz-adv-x="1368" 
d="M729 688q143 0 226 71.5t83 184.5v4q0 127 -84 191.5t-225 64.5h-293v-516h293zM184 1434h566q251 0 397.5 -131t146.5 -349v-4q0 -232 -162 -360.5t-411 -128.5h-285v-461h-252v1434z" />
    <glyph glyph-name="Q" unicode="Q" horiz-adv-x="1740" 
d="M855 207q153 0 263 69l-246 209l162 185l248 -226q74 115 74 269v4q0 215 -139 362.5t-349 147.5t-346.5 -147.5t-136.5 -358.5v-4q0 -215 100.5 -321.5t190.5 -147.5t179 -41zM121 713v4q0 309 155.5 465.5t293 216t303 59.5t303 -58.5t235.5 -158.5t153.5 -234.5
t55.5 -285.5v-4q0 -247 -145 -441l163 -139l-161 -180l-172 154q-190 -136 -437 -136q-166 0 -303 58.5t-235.5 159t-153.5 234.5t-55 286z" />
    <glyph glyph-name="R" unicode="R" horiz-adv-x="1480" 
d="M805 723q135 0 215 64.5t80 175.5v4q0 117 -78 177t-219 60h-367v-481h369zM184 1434h639q266 0 414 -144q119 -123 119 -309v-4q0 -176 -95.5 -283.5t-246.5 -150.5l387 -543h-297l-352 500h-316v-500h-252v1434z" />
    <glyph glyph-name="S" unicode="S" horiz-adv-x="1310" 
d="M240 389q215 -186 443 -186q126 0 194.5 49t68.5 131v4q0 78 -65.5 127.5t-257.5 91.5q-256 65 -367 153.5t-111 274.5v4q0 183 137.5 299.5t352.5 116.5q293 0 520 -180l-135 -191q-201 148 -389 148q-111 0 -172.5 -49t-61.5 -121v-4q0 -86 67 -131t228 -83
q160 -39 333 -110.5t173 -320.5v-4q0 -199 -140.5 -313.5t-371.5 -114.5q-346 0 -598 229z" />
    <glyph glyph-name="T" unicode="T" horiz-adv-x="1327" 
d="M537 1200h-455v234h1163v-234h-454v-1200h-254v1200z" />
    <glyph glyph-name="U" unicode="U" horiz-adv-x="1550" 
d="M162 608v826h252v-816q0 -201 96 -305t265 -104t265.5 100.5t96.5 298.5v826h252v-813q0 -311 -163.5 -477.5t-452.5 -166.5q-285 0 -448 163t-163 468z" />
    <glyph glyph-name="V" unicode="V" horiz-adv-x="1536" 
d="M61 1434h279l432 -1102l430 1102h273l-596 -1444h-222z" />
    <glyph glyph-name="W" unicode="W" horiz-adv-x="2285" 
d="M74 1434h272l342 -1063l352 1067h213l353 -1067l342 1063h264l-500 -1444h-217l-352 1030l-352 -1030h-218z" />
    <glyph glyph-name="X" unicode="X" horiz-adv-x="1492" 
d="M598 729l-502 705h297l357 -514l358 514h289l-500 -701l520 -733h-297l-377 543l-378 -543h-289z" />
    <glyph glyph-name="Y" unicode="Y" horiz-adv-x="1466" 
d="M860 0h-254v565l-569 869h297l401 -635l406 635h289l-570 -863v-571z" />
    <glyph glyph-name="Z" unicode="Z" horiz-adv-x="1437" 
d="M160 1210v224h1147v-187l-846 -1024h846v-223h-1174v186l846 1024h-819z" />
    <glyph glyph-name="bracketleft" unicode="[" horiz-adv-x="929" 
d="M180 1434h629v-195h-393v-1311h393v-194h-629v1700z" />
    <glyph glyph-name="backslash" unicode="\" horiz-adv-x="1067" 
d="M-23 1634h216l925 -1896h-215z" />
    <glyph glyph-name="bracketright" unicode="]" horiz-adv-x="929" 
d="M121 -72h393v1311h-393v195h631v-1700h-631v194z" />
    <glyph glyph-name="asciicircum" unicode="^" 
d="M424 1436h176l309 -426h-190l-209 270l-209 -270h-186z" />
    <glyph glyph-name="underscore" unicode="_" horiz-adv-x="1228" 
d="M-4 -135h1237v-193h-1237v193z" />
    <glyph glyph-name="grave" unicode="`" 
d="M254 1454l225 100l217 -335h-192z" />
    <glyph glyph-name="a" unicode="a" horiz-adv-x="1202" 
d="M584 496q-126 0 -191 -45t-65 -123v-4q0 -78 61 -119t135 -41q135 0 217 62.5t82 164.5v62q-113 43 -239 43zM819 645q0 232 -276 232q-139 0 -299 -68l-68 199q90 41 184.5 65.5t227.5 24.5q242 0 358.5 -120t116.5 -337v-641h-246v133q-130 -156 -350 -156
q-163 0 -274 88.5t-111 245.5v4q0 175 119.5 265t297.5 90t320 -45v20z" />
    <glyph glyph-name="b" unicode="b" horiz-adv-x="1372" 
d="M1022 539v4q0 154 -89.5 250t-220.5 96t-223 -98.5t-92 -247.5v-4q0 -153 92.5 -249.5t222.5 -96.5t220 94t90 252zM403 901q139 203 355 203t366 -152t150 -409v-4q0 -258 -148.5 -410t-355.5 -152q-133 0 -221 57.5t-146 133.5v-168h-247v1495h247v-594z" />
    <glyph glyph-name="c" unicode="c" horiz-adv-x="1169" 
d="M936 752q-130 135 -268 135q-146 0 -235 -100.5t-89 -243.5v-4q0 -148 92 -248.5t232 -100.5q88 0 154.5 38t125.5 98l150 -148q-176 -203 -429 -203t-413 162.5t-160 397.5v4q0 235 161 400t400 165q154 0 255.5 -51.5t177.5 -134.5z" />
    <glyph glyph-name="d" unicode="d" horiz-adv-x="1372" 
d="M975 539v4q0 154 -92 250t-222 96q-131 0 -221 -94t-90 -252v-4q0 -156 91 -251t220 -95q131 0 222.5 98t91.5 248zM100 539v4q0 258 148 409.5t363 151.5q214 0 360 -191v582h248v-1495h-248v180q-143 -203 -358 -203t-364 153t-149 409z" />
    <glyph glyph-name="e" unicode="e" horiz-adv-x="1236" 
d="M433 822q-75 -79 -91 -206h555q-13 126 -84.5 205.5t-187.5 79.5q-117 0 -192 -79zM96 537v4q0 236 150 399.5t388 163.5t373.5 -168t135.5 -414q0 -33 -4 -69h-795q20 -133 105.5 -204t191.5 -71t174 33t133 96l146 -129q-172 -203 -443 -203q-236 0 -395.5 157.5
t-159.5 404.5z" />
    <glyph glyph-name="f" unicode="f" horiz-adv-x="770" 
d="M598 1296q-143 0 -143 -163v-60h286v-205h-282v-868h-248v868h-137v207h137v78q0 180 87 267t245 87q104 0 200 -28v-209q-80 26 -145 26z" />
    <glyph glyph-name="g" unicode="g" horiz-adv-x="1372" 
d="M975 592v4q0 129 -91.5 214t-223.5 85t-221 -82.5t-89 -214.5v-4q0 -128 87 -213.5t221 -85.5q133 0 225 85t92 212zM973 285q-153 -199 -361 -199q-218 0 -365 138t-147 368v4q0 232 146.5 370t345.5 138q137 0 226 -54.5t153 -129.5v161h248v-860q0 -553 -582 -553
q-270 0 -483 129l92 187q187 -115 369 -115q358 0 358 332v84z" />
    <glyph glyph-name="h" unicode="h" horiz-adv-x="1269" 
d="M156 1495h247v-582q53 78 133 134.5t205 56.5q184 0 284.5 -112.5t100.5 -303.5v-688h-247v614q0 127 -60.5 196t-170.5 69t-177.5 -71t-67.5 -198v-610h-247v1495z" />
    <glyph glyph-name="i" unicode="i" horiz-adv-x="585" 
d="M170 1081h248v-1081h-248v1081zM160 1483h266v-236h-266v236z" />
    <glyph glyph-name="j" unicode="j" horiz-adv-x="585" 
d="M418 -14q0 -320 -316 -320q-48 0 -118 10v199q37 -6 69 -6q117 0 117 131v1081h248v-1095zM160 1483h266v-236h-266v236z" />
    <glyph glyph-name="k" unicode="k" horiz-adv-x="1191" 
d="M156 1495h247v-893l449 479h301l-430 -440l444 -641h-286l-326 467l-152 -158v-309h-247v1495z" />
    <glyph glyph-name="l" unicode="l" horiz-adv-x="585" 
d="M170 1495h248v-1495h-248v1495z" />
    <glyph glyph-name="m" unicode="m" horiz-adv-x="1945" 
d="M1421 1104q178 0 278.5 -107.5t100.5 -306.5v-690h-248v614q0 129 -57 197t-161 68t-168 -69t-64 -200v-610h-248v616q0 127 -57.5 195t-162 68t-168 -72t-63.5 -199v-608h-247v1081h247v-163q60 83 137 134.5t194 51.5q116 0 197 -52.5t124 -138.5q147 191 366 191z" />
    <glyph glyph-name="n" unicode="n" horiz-adv-x="1269" 
d="M156 1081h247v-168q53 78 133 134.5t205 56.5q184 0 284.5 -112.5t100.5 -303.5v-688h-247v614q0 127 -60.5 196t-170.5 69t-177.5 -71t-67.5 -198v-610h-247v1081z" />
    <glyph glyph-name="o" unicode="o" horiz-adv-x="1345" 
d="M1001 535v4q0 146 -94.5 247t-237 101t-234 -98t-91.5 -246v-4q0 -144 94 -246.5t238 -102.5q143 0 234 99.5t91 245.5zM671 -25q-246 0 -410.5 162.5t-164.5 397.5v4q0 233 166 399t413.5 166t410.5 -164.5t163 -396.5v-4q0 -232 -120.5 -352.5t-227 -166t-230.5 -45.5z
" />
    <glyph glyph-name="p" unicode="p" horiz-adv-x="1372" 
d="M1022 539v4q0 154 -89.5 250t-220.5 96t-223 -98.5t-92 -247.5v-4q0 -153 92.5 -249.5t222.5 -96.5t220 94t90 252zM403 901q139 203 355 203t366 -152t150 -409v-4q0 -258 -148.5 -410t-355.5 -152q-133 0 -221 57.5t-146 133.5v-496h-247v1409h247v-180z" />
    <glyph glyph-name="q" unicode="q" horiz-adv-x="1372" 
d="M975 539v4q0 154 -92 250t-222 96q-131 0 -221 -94t-90 -252v-4q0 -156 91 -251t220 -95q131 0 222.5 98t91.5 248zM100 539v4q0 258 148 409.5t363 151.5q214 0 360 -191v168h248v-1409h-248v508q-143 -203 -358 -203t-364 153t-149 409z" />
    <glyph glyph-name="r" unicode="r" horiz-adv-x="845" 
d="M156 1081h247v-243q51 123 145.5 196.5t237.5 67.5v-262h-14q-167 0 -268 -109t-101 -319v-412h-247v1081z" />
    <glyph glyph-name="s" unicode="s" 
d="M500 903q-72 0 -112 -30.5t-40 -77.5v-4q0 -71 98.5 -103.5t151.5 -49.5q144 -46 237 -115t93 -199v-5q0 -165 -113 -252t-289 -87q-253 0 -458 161l110 168q177 -133 354 -133q80 0 124 32t44 85v4q0 80 -97 108.5t-150 44.5q-153 45 -242.5 111t-89.5 205v4
q0 151 109.5 240.5t275.5 89.5q211 0 397 -123l-98 -176q-169 102 -305 102z" />
    <glyph glyph-name="t" unicode="t" horiz-adv-x="839" 
d="M207 299v569h-137v213h137v297h248v-297h290v-213h-290v-530q0 -135 133 -135q80 0 153 37v-203q-96 -55 -223 -55q-311 0 -311 317z" />
    <glyph glyph-name="u" unicode="u" horiz-adv-x="1269" 
d="M143 393v688h248v-614q0 -127 60.5 -195.5t170.5 -68.5t177 70.5t67 197.5v610h248v-1081h-248v168q-62 -89 -142.5 -140t-195.5 -51q-184 0 -284.5 113t-100.5 303z" />
    <glyph glyph-name="v" unicode="v" horiz-adv-x="1218" 
d="M53 1081h266l291 -794l293 794h260l-442 -1089h-223z" />
    <glyph glyph-name="w" unicode="w" horiz-adv-x="1763" 
d="M66 1081h253l218 -741l239 745h211l242 -745l221 741h248l-355 -1089h-221l-241 739l-244 -739h-221z" />
    <glyph glyph-name="x" unicode="x" horiz-adv-x="1187" 
d="M459 549l-383 532h270l250 -356l250 356h264l-383 -526l399 -555h-270l-266 379l-264 -379h-265z" />
    <glyph glyph-name="y" unicode="y" horiz-adv-x="1220" 
d="M344 -125q59 0 94 26.5t66 98.5l-451 1081h264l308 -802l280 802h258l-430 -1112q-66 -168 -146.5 -235.5t-212.5 -67.5t-253 66l84 184q80 -41 139 -41z" />
    <glyph glyph-name="z" unicode="z" horiz-adv-x="1146" 
d="M129 879v202h918v-170l-625 -708h625v-203h-941v170l625 709h-602z" />
    <glyph glyph-name="braceleft" unicode="{" horiz-adv-x="997" 
d="M160 494h-54v188h54q129 0 180 52t51 173l-4 148q0 170 101 267t364 142l43 -164q-177 -48 -228 -105t-51 -175l5 -152q0 -121 -55.5 -184t-157.5 -96q104 -35 158.5 -97.5t54.5 -183.5l-5 -151q0 -119 51.5 -176t227.5 -105l-43 -164q-382 69 -423.5 199.5t-41.5 210.5
l4 147q0 121 -51 173.5t-180 52.5z" />
    <glyph glyph-name="bar" unicode="|" horiz-adv-x="677" 
d="M240 1634h198v-1896h-198v1896z" />
    <glyph glyph-name="braceright" unicode="}" horiz-adv-x="997" 
d="M838 682h53v-188h-53q-129 0 -180.5 -52.5t-51.5 -173.5l4 -147q0 -170 -100.5 -266.5t-364.5 -143.5l-43 164q176 48 227.5 105t51.5 176l-4 151q0 121 55 184.5t158 96.5q-104 35 -158.5 97.5t-54.5 182.5l4 152q0 118 -52 176.5t-227 103.5l43 164
q266 -48 365.5 -143.5t99.5 -265.5l-4 -148q0 -121 51.5 -173t180.5 -52z" />
    <glyph glyph-name="asciitilde" unicode="~" horiz-adv-x="1013" 
d="M652 684q36 0 58.5 24.5t45.5 77.5l137 -41q-35 -125 -85 -190.5t-144 -65.5q-61 0 -158.5 41t-138.5 41t-63.5 -24.5t-45.5 -77.5l-137 43q35 123 85 188.5t129 65.5t146.5 -27.5t101 -41t69.5 -13.5z" />
    <glyph glyph-name="exclamdown" unicode="&#xa1;" horiz-adv-x="618" 
d="M455 0h-291v72l78 909h137l76 -909v-72zM174 1434h272v-281h-272v281z" />
    <glyph glyph-name="cent" unicode="&#xa2;" horiz-adv-x="1189" 
d="M348 731v-4q0 -104 46 -187t128 -126l129 661q-129 -4 -216 -101.5t-87 -242.5zM657 164h-12l-35 -176h-180l41 209q-253 92 -309 264t-56 262v4q0 236 160 399.5t400 163.5h18l31 156h180l-37 -182q131 -40 242 -160l-150 -160q-74 74 -141 103l-133 -668q148 3 282 133
l144 -141q-80 -90 -186.5 -148.5t-258.5 -58.5z" />
    <glyph glyph-name="sterling" unicode="&#xa3;" horiz-adv-x="1318" 
d="M1022 1071q-115 150 -232 150q-118 0 -176 -58q-69 -73 -69 -198v-183h510v-213h-510v-350h665v-219h-1081v160l162 49v360h-162v213h162v189q0 231 127 356q123 127 349 127t318.5 -90t128.5 -139z" />
    <glyph glyph-name="currency" unicode="&#xa4;" horiz-adv-x="1474" 
d="M516 717q0 -42 4 -82h479v-174h-442q41 -121 127 -190.5t198 -69.5t182.5 51t139.5 143l180 -131q-197 -289 -495 -289q-225 0 -381 132.5t-215 353.5h-187v174h158q-2 20 -2 25v102q0 25 4 47h-160v174h193q98 330 285.5 402.5t289.5 72.5q182 0 298.5 -70t207.5 -200
l-190 -141q-66 90 -136.5 138t-180.5 48t-190.5 -66.5t-123.5 -183.5h440v-174h-479q-4 -40 -4 -88v-4z" />
    <glyph glyph-name="yen" unicode="&#xa5;" horiz-adv-x="1404" 
d="M582 209h-396v182h396v150h-396v182h326l-473 711h293l375 -600l374 600h285l-475 -711h328v-182h-396v-150h396v-182h-396v-209h-241v209z" />
    <glyph glyph-name="section" unicode="&#xa7;" horiz-adv-x="1294" 
d="M952 680v4q0 84 -212 137q-173 43 -242 43q-68 0 -112 -31.5t-44 -78.5v-4q0 -45 54.5 -78t192.5 -68t207 -35t112.5 32t43.5 79zM1069 283v-4q0 -135 -105.5 -217t-276.5 -82q-311 0 -492 194l141 139q158 -145 330 -145q86 0 125.5 28.5t39.5 71.5v4q0 70 -94.5 97.5
t-194.5 50.5q-219 51 -321 117t-102 178v4q0 100 62.5 156.5t156.5 80.5q-113 72 -113 195v4q0 137 106.5 218t276.5 81q310 0 492 -194l-142 -140q-159 146 -329 146q-82 0 -124 -28t-42 -73v-4q0 -63 94.5 -94t194.5 -53q226 -51 325 -118.5t99 -176.5v-4
q0 -98 -62.5 -155.5t-157.5 -82.5q113 -70 113 -194z" />
    <glyph glyph-name="dieresis" unicode="&#xa8;" 
d="M182 1460h252v-241h-252v241zM590 1460h252v-241h-252v241z" />
    <glyph glyph-name="copyright" unicode="&#xa9;" horiz-adv-x="1699" 
d="M1174 465q-128 -139 -302 -139q-184 0 -295.5 115.5t-111.5 281.5v4q0 165 112 283t285 118q111 0 180.5 -33.5t124.5 -86.5l-96 -111q-101 92 -206 92t-174.5 -74.5t-69.5 -185.5v-4q0 -106 68 -183t173 -77q70 0 118 25.5t95 70.5zM848 49q141 0 263 53.5t211 143.5
t140 212t51 259v4q0 137 -50 258t-139 211t-210 142t-262 52t-263 -53t-211 -143t-140.5 -212t-51.5 -259v-4q0 -137 50.5 -258t139.5 -211t210 -142.5t262 -52.5zM848 -25q-156 0 -291 58.5t-234.5 159t-156.5 234.5t-57 286v4q0 152 57 286t157.5 235t236.5 160.5
t292 59.5t291 -58.5t234.5 -158.5t156.5 -234.5t57 -285.5v-4q0 -152 -57 -286t-157.5 -235.5t-236.5 -161t-292 -59.5z" />
    <glyph glyph-name="ordfeminine" unicode="&#xaa;" horiz-adv-x="798" 
d="M256 1016q0 -86 116 -86q56 0 100 34.5t44 88.5v37q-59 22 -125 22q-65 0 -100 -24.5t-35 -67.5v-4zM109 696h553v-118h-553v118zM514 907q-73 -82 -174 -82t-163 49t-62 136v4q0 96 68.5 143t161.5 47t171 -22v10q0 125 -143 125q-65 0 -170 -39l-39 111q108 51 235 51
t191 -68q63 -59 63 -182v-352h-139v69z" />
    <glyph glyph-name="guillemotleft" unicode="&#xab;" horiz-adv-x="1241" 
d="M90 532v17l340 450l188 -96l-270 -360l270 -363l-188 -96zM606 532v17l338 450l189 -96l-271 -360l271 -363l-189 -96z" />
    <glyph glyph-name="registered" unicode="&#xae;" horiz-adv-x="1699" 
d="M891 748q72 0 112.5 32.5t40.5 87.5v4q0 59 -40.5 90t-112.5 31h-193v-245h193zM551 1126h346q152 0 236 -84q63 -59 63 -161v-4q0 -94 -50 -152.5t-130 -81.5l209 -293h-176l-189 268h-162v-268h-147v776zM848 49q141 0 263 53.5t211 143.5t140 212t51 259v4
q0 137 -50 258t-139 211t-210 142t-262 52t-263 -53t-211 -143t-140.5 -212t-51.5 -259v-4q0 -137 50.5 -258t139.5 -211t210 -142.5t262 -52.5zM848 -25q-156 0 -291 58.5t-234.5 159t-156.5 234.5t-57 286v4q0 152 57 286t157.5 235t236.5 160.5t292 59.5t291 -58.5
t234.5 -158.5t156.5 -234.5t57 -285.5v-4q0 -152 -57 -286t-157.5 -235.5t-236.5 -161t-292 -59.5z" />
    <glyph glyph-name="macron" unicode="&#xaf;" 
d="M162 1411h700v-182h-700v182z" />
    <glyph glyph-name="degree" unicode="&#xb0;" horiz-adv-x="964" 
d="M482 915q79 0 136.5 57.5t57.5 139.5v4q0 82 -56.5 138.5t-138.5 56.5t-137 -56.5t-55 -138.5v-4q0 -127 75.5 -162t117.5 -35zM243.5 880.5q-102.5 100.5 -102.5 231.5v4q0 133 102.5 231.5t237 98.5t238.5 -97.5t104 -232.5v-4q0 -133 -103.5 -232.5t-238.5 -99.5
t-237.5 100.5z" />
    <glyph glyph-name="plusminus" unicode="&#xb1;" horiz-adv-x="1249" 
d="M1147 412v-4q0 -187 -137.5 -310t-372.5 -123q-176 0 -317.5 69t-239.5 181l174 162q163 -184 387 -184q119 0 187.5 56t68.5 151v4q0 98 -83 150t-232 52h-154v213h160q125 0 197.5 56.5t72.5 148.5v4q0 86 -66 139.5t-176 53.5t-185 -48t-146 -132l-176 143
q92 121 209.5 192.5t317.5 71.5t336 -108.5t136 -274.5v-4q0 -232 -213 -336q252 -95 252 -323z" />
    <glyph glyph-name="acute" unicode="&#xb4;" 
d="M545 1554l225 -100l-250 -235h-192z" />
    <glyph glyph-name="mu" unicode="&#xb5;" horiz-adv-x="1740" 
d="M1356 713v4q0 215 -139 362.5t-349 147.5t-346.5 -147.5t-136.5 -358.5v-4q0 -215 139 -362.5t349 -147.5t346.5 147.5t136.5 358.5zM121 713v4q0 309 155.5 465.5t293 216t303 59.5t303 -58.5t235.5 -158.5t153.5 -234.5t55.5 -285.5v-4q0 -164 -64.5 -307.5
t-181.5 -247.5l359 -352v-17h-369l-240 227q-115 -45 -269 -45q-153 0 -290 58.5t-235.5 159t-153.5 234.5t-55 286z" />
    <glyph glyph-name="paragraph" unicode="&#xb6;" horiz-adv-x="1140" 
d="M709 500h-37q-262 0 -426 121.5t-164 343.5v4q0 215 152.5 340t402.5 125h326v-1434h-254v500z" />
    <glyph glyph-name="periodcentered" unicode="&#xb7;" horiz-adv-x="550" 
d="M139 768h273v-281h-273v281z" />
    <glyph glyph-name="periodcentered" unicode="&#x2219;" horiz-adv-x="550" 
d="M139 768h273v-281h-273v281z" />
    <glyph glyph-name="cedilla" unicode="&#xb8;" 
d="M268 -248l185 268h186l-154 -358z" />
    <glyph glyph-name="ordmasculine" unicode="&#xba;" horiz-adv-x="798" 
d="M402 950q75 0 119 53.5t44 126.5v5q0 74 -47 128t-122 54t-119 -53.5t-44 -126.5v-4q0 -74 47 -128.5t122 -54.5zM104 696h590v-118h-590v118zM179 912q-89 89 -89 218v5q0 129 90 219t220 90t219.5 -89t89.5 -218v-4q0 -130 -90.5 -220t-220.5 -90t-219 89z" />
    <glyph glyph-name="guillemotright" unicode="&#xbb;" horiz-adv-x="1241" 
d="M109 178l270 361l-270 362l188 98l338 -450v-17l-338 -448zM623 178l270 361l-270 362l188 98l340 -450v-17l-340 -448z" />
    <glyph glyph-name="questiondown" unicode="&#xbf;" horiz-adv-x="1107" 
d="M571 211q180 0 334 162l154 -164q-90 -102 -209 -164.5t-255 -62.5q-248 0 -378.5 112.5t-130.5 302.5v4q0 265 163 332.5t249 81.5l20 166h166l41 -332l-10 -10q-379 -15 -379 -229v-4q0 -86 62.5 -140.5t172.5 -54.5zM469 1434h274v-281h-274v281z" />
    <glyph glyph-name="Agrave" unicode="&#xc0;" horiz-adv-x="1617" 
d="M469 1788l225 100l217 -336h-192zM1053 569l-248 574l-246 -574h494zM692 1444h234l630 -1444h-266l-145 346h-678l-148 -346h-258z" />
    <glyph glyph-name="Aacute" unicode="&#xc1;" horiz-adv-x="1617" 
d="M924 1888l225 -100l-250 -236h-192zM1053 569l-248 574l-246 -574h494zM692 1444h234l630 -1444h-266l-145 346h-678l-148 -346h-258z" />
    <glyph glyph-name="Acircumflex" unicode="&#xc2;" horiz-adv-x="1617" 
d="M694 1849h230l237 -299h-196l-158 138l-158 -138h-192zM1053 569l-248 574l-246 -574h494zM692 1444h234l630 -1444h-266l-145 346h-678l-148 -346h-258z" />
    <glyph glyph-name="Atilde" unicode="&#xc3;" horiz-adv-x="1617" 
d="M651 1829q62 0 131.5 -27.5t103.5 -41t70 -13.5t58 24.5t45 77.5l137 -43q-35 -123 -85 -188.5t-144 -65.5q-59 0 -130 29t-104 41t-69 12t-59 -24.5t-46 -77.5l-137 41q35 125 85 190.5t144 65.5zM1053 569l-248 574l-246 -574h494zM692 1444h234l630 -1444h-266
l-145 346h-678l-148 -346h-258z" />
    <glyph glyph-name="Adieresis" unicode="&#xc4;" horiz-adv-x="1617" 
d="M479 1794h252v-242h-252v242zM887 1794h252v-242h-252v242zM1053 569l-248 574l-246 -574h494zM692 1444h234l630 -1444h-266l-145 346h-678l-148 -346h-258z" />
    <glyph glyph-name="Aring" unicode="&#xc5;" horiz-adv-x="1617" 
d="M1053 569l-248 574l-246 -574h494zM809 1454q53 0 90 37t37 88v4q0 51 -37 88t-90 37t-90 -37t-37 -88v-4q0 -51 37 -88t90 -37zM575 1579v4q0 89 69 156t165 67t164.5 -66.5t68.5 -156.5v-4q0 -105 -96 -178l610 -1401h-266l-145 346h-678l-148 -346h-258l611 1401
q-97 73 -97 178z" />
    <glyph glyph-name="AE" unicode="&#xc6;" horiz-adv-x="2140" 
d="M997 569v645h-41l-360 -645h401zM2015 1434v-226h-766v-372h674v-226h-674v-385h776v-225h-1028v346h-522l-190 -346h-260l800 1434h1190z" />
    <glyph glyph-name="Ccedilla" unicode="&#xc7;" horiz-adv-x="1511" 
d="M1260 1049q-192 178 -392 178q-214 0 -348.5 -148t-134.5 -358v-4q0 -211 134.5 -360.5t324.5 -149.5t285.5 71.5t140.5 114.5l162 -164q-164 -177 -304.5 -212t-232.5 -40l-135 -315l-215 90l162 238q-262 51 -424 250.5t-162 472.5v4q0 311 152.5 467.5t288.5 215
t266 58.5q216 0 348.5 -58t244.5 -165z" />
    <glyph glyph-name="Egrave" unicode="&#xc8;" horiz-adv-x="1372" 
d="M420 1788l225 100l217 -336h-192zM184 1434h1063v-226h-811v-372h719v-226h-719v-385h821v-225h-1073v1434z" />
    <glyph glyph-name="Eacute" unicode="&#xc9;" horiz-adv-x="1372" 
d="M784 1888l226 -100l-250 -236h-193zM184 1434h1063v-226h-811v-372h719v-226h-719v-385h821v-225h-1073v1434z" />
    <glyph glyph-name="Ecircumflex" unicode="&#xca;" horiz-adv-x="1372" 
d="M596 1851h229l238 -299h-197l-157 138l-158 -138h-193zM184 1434h1063v-226h-811v-372h719v-226h-719v-385h821v-225h-1073v1434z" />
    <glyph glyph-name="Edieresis" unicode="&#xcb;" horiz-adv-x="1372" 
d="M381 1794h252v-242h-252v242zM788 1794h252v-242h-252v242zM184 1434h1063v-226h-811v-372h719v-226h-719v-385h821v-225h-1073v1434z" />
    <glyph glyph-name="Igrave" unicode="&#xcc;" horiz-adv-x="649" 
d="M-12 1788l225 100l217 -336h-192zM199 1434h252v-1434h-252v1434z" />
    <glyph glyph-name="Iacute" unicode="&#xcd;" horiz-adv-x="649" 
d="M438 1888l226 -100l-250 -236h-193zM199 1434h252v-1434h-252v1434z" />
    <glyph glyph-name="Icircumflex" unicode="&#xce;" horiz-adv-x="649" 
d="M211 1851h229l238 -299h-197l-157 138l-158 -138h-193zM199 1434h252v-1434h-252v1434z" />
    <glyph glyph-name="Idieresis" unicode="&#xcf;" horiz-adv-x="649" 
d="M-4 1794h252v-242h-252v242zM403 1794h252v-242h-252v242zM199 1434h252v-1434h-252v1434z" />
    <glyph glyph-name="Eth" unicode="&#xd0;" horiz-adv-x="1662" 
d="M780 229q225 0 361.5 136.5t136.5 347.5v4q0 212 -137.5 349.5t-360.5 137.5h-284v-370h360v-226h-360v-379h284zM246 608h-154v226h154v600h534q334 0 548 -202.5t214 -510.5v-4q0 -310 -215 -513.5t-547 -203.5h-534v608z" />
    <glyph glyph-name="Ntilde" unicode="&#xd1;" horiz-adv-x="1617" 
d="M651 1829q62 0 131.5 -27.5t103.5 -41t70 -13.5t58 24.5t45 77.5l137 -43q-35 -123 -85 -188.5t-144 -65.5q-59 0 -130 29t-104 41t-69 12t-59 -24.5t-46 -77.5l-137 41q35 125 85 190.5t144 65.5zM184 1434h234l768 -992v992h248v-1434h-211l-791 1020v-1020h-248v1434z
" />
    <glyph glyph-name="Ograve" unicode="&#xd2;" horiz-adv-x="1740" 
d="M516 1788l225 100l217 -336h-192zM1356 713v4q0 215 -139 362.5t-349 147.5t-346.5 -147.5t-136.5 -358.5v-4q0 -215 139 -362.5t349 -147.5t346.5 147.5t136.5 358.5zM868 -25q-166 0 -303 58.5t-235.5 159t-153.5 234.5t-55 286v4q0 309 155.5 465.5t293 216t303 59.5
t303 -58.5t235.5 -158.5t153.5 -234.5t55.5 -285.5v-4q0 -307 -155.5 -465t-293 -217.5t-303.5 -59.5z" />
    <glyph glyph-name="Oacute" unicode="&#xd3;" horiz-adv-x="1740" 
d="M999 1888l226 -100l-250 -236h-193zM1356 713v4q0 215 -139 362.5t-349 147.5t-346.5 -147.5t-136.5 -358.5v-4q0 -215 139 -362.5t349 -147.5t346.5 147.5t136.5 358.5zM868 -25q-166 0 -303 58.5t-235.5 159t-153.5 234.5t-55 286v4q0 309 155.5 465.5t293 216
t303 59.5t303 -58.5t235.5 -158.5t153.5 -234.5t55.5 -285.5v-4q0 -307 -155.5 -465t-293 -217.5t-303.5 -59.5z" />
    <glyph glyph-name="Ocircumflex" unicode="&#xd4;" horiz-adv-x="1740" 
d="M756 1851h229l238 -299h-197l-158 138l-157 -138h-193zM1356 713v4q0 215 -139 362.5t-349 147.5t-346.5 -147.5t-136.5 -358.5v-4q0 -215 139 -362.5t349 -147.5t346.5 147.5t136.5 358.5zM868 -25q-166 0 -303 58.5t-235.5 159t-153.5 234.5t-55 286v4
q0 309 155.5 465.5t293 216t303 59.5t303 -58.5t235.5 -158.5t153.5 -234.5t55.5 -285.5v-4q0 -307 -155.5 -465t-293 -217.5t-303.5 -59.5z" />
    <glyph glyph-name="Otilde" unicode="&#xd5;" horiz-adv-x="1740" 
d="M713 1829q63 0 131.5 -27.5t102.5 -41t70 -13.5t58.5 24.5t44.5 77.5l137 -43q-35 -123 -85 -188.5t-144 -65.5q-59 0 -130 29t-103.5 41t-69.5 12t-59.5 -24.5t-44.5 -77.5l-138 41q35 125 85 190.5t145 65.5zM1356 713v4q0 215 -139 362.5t-349 147.5t-346.5 -147.5
t-136.5 -358.5v-4q0 -215 139 -362.5t349 -147.5t346.5 147.5t136.5 358.5zM868 -25q-166 0 -303 58.5t-235.5 159t-153.5 234.5t-55 286v4q0 309 155.5 465.5t293 216t303 59.5t303 -58.5t235.5 -158.5t153.5 -234.5t55.5 -285.5v-4q0 -307 -155.5 -465t-293 -217.5
t-303.5 -59.5z" />
    <glyph glyph-name="Odieresis" unicode="&#xd6;" horiz-adv-x="1740" 
d="M541 1794h252v-242h-252v242zM948 1794h252v-242h-252v242zM1356 713v4q0 215 -139 362.5t-349 147.5t-346.5 -147.5t-136.5 -358.5v-4q0 -215 139 -362.5t349 -147.5t346.5 147.5t136.5 358.5zM868 -25q-166 0 -303 58.5t-235.5 159t-153.5 234.5t-55 286v4
q0 309 155.5 465.5t293 216t303 59.5t303 -58.5t235.5 -158.5t153.5 -234.5t55.5 -285.5v-4q0 -307 -155.5 -465t-293 -217.5t-303.5 -59.5z" />
    <glyph glyph-name="Oslash" unicode="&#xd8;" horiz-adv-x="1740" 
d="M872 203q213 0 350.5 148.5t137.5 361.5v4q0 174 -94 305l-656 -737q111 -82 262 -82zM381 721v-4q0 -174 94 -305l655 737q-111 82 -262 82q-212 0 -349.5 -148.5t-137.5 -361.5zM1620 721v-4q0 -307 -155.5 -465t-293 -217.5t-303.5 -59.5q-234 0 -417 123l-99 -108
h-248l203 227q-186 203 -186 496v4q0 309 155.5 465.5t293 216t302.5 59.5q238 0 418 -123l99 109h247l-202 -230q186 -203 186 -493z" />
    <glyph glyph-name="Ugrave" unicode="&#xd9;" horiz-adv-x="1550" 
d="M449 1778l225 100l217 -336h-193zM162 608v826h252v-816q0 -201 96 -305t265 -104t265.5 100.5t96.5 298.5v826h252v-813q0 -311 -163.5 -477.5t-452.5 -166.5q-285 0 -448 163t-163 468z" />
    <glyph glyph-name="Uacute" unicode="&#xda;" horiz-adv-x="1550" 
d="M877 1878l225 -100l-250 -236h-193zM162 608v826h252v-816q0 -201 96 -305t265 -104t265.5 100.5t96.5 298.5v826h252v-813q0 -311 -163.5 -477.5t-452.5 -166.5q-285 0 -448 163t-163 468z" />
    <glyph glyph-name="Ucircumflex" unicode="&#xdb;" horiz-adv-x="1550" 
d="M662 1849h229l237 -299h-196l-158 138l-158 -138h-192zM162 608v826h252v-816q0 -201 96 -305t265 -104t265.5 100.5t96.5 298.5v826h252v-813q0 -311 -163.5 -477.5t-452.5 -166.5q-285 0 -448 163t-163 468z" />
    <glyph glyph-name="Udieresis" unicode="&#xdc;" horiz-adv-x="1550" 
d="M446 1792h252v-242h-252v242zM854 1792h252v-242h-252v242zM162 608v826h252v-816q0 -201 96 -305t265 -104t265.5 100.5t96.5 298.5v826h252v-813q0 -311 -163.5 -477.5t-452.5 -166.5q-285 0 -448 163t-163 468z" />
    <glyph glyph-name="Yacute" unicode="&#xdd;" horiz-adv-x="1466" 
d="M854 1878l225 -100l-250 -236h-192zM860 0h-254v565l-569 869h297l401 -635l406 635h289l-570 -863v-571z" />
    <glyph glyph-name="Thorn" unicode="&#xde;" horiz-adv-x="1378" 
d="M729 463q143 0 226 72.5t83 185.5v4q0 127 -84 191.5t-225 64.5h-293v-518h293zM184 1434h252v-226h314q252 0 398 -130.5t146 -346.5v-4q0 -234 -161 -361.5t-412 -127.5h-285v-238h-252v1434z" />
    <glyph glyph-name="germandbls" unicode="&#xdf;" horiz-adv-x="1269" 
d="M922 408v4q0 100 -87 158.5t-229 74.5v168q98 47 165 114.5t67 170.5v4q0 90 -56.5 143t-154.5 53t-162 -70.5t-64 -191.5v-1036h-245v1028q0 223 131 352t345 129t332.5 -108.5t118.5 -276.5v-4q0 -187 -90 -256t-135 -94q214 -72 262.5 -179.5t48.5 -184.5v-5
q0 -198 -151 -305.5t-412 -99.5v190q150 4 233 60.5t83 161.5z" />
    <glyph glyph-name="agrave" unicode="&#xe0;" horiz-adv-x="1202" 
d="M276 1454l226 100l217 -335h-193zM584 496q-126 0 -191 -45t-65 -123v-4q0 -78 61 -119t135 -41q135 0 217 62.5t82 164.5v62q-113 43 -239 43zM819 645q0 232 -276 232q-139 0 -299 -68l-68 199q90 41 184.5 65.5t227.5 24.5q242 0 358.5 -120t116.5 -337v-641h-246v133
q-130 -156 -350 -156q-163 0 -274 88.5t-111 245.5v4q0 175 119.5 265t297.5 90t320 -45v20z" />
    <glyph glyph-name="aacute" unicode="&#xe1;" horiz-adv-x="1202" 
d="M698 1554l226 -100l-250 -235h-193zM584 496q-126 0 -191 -45t-65 -123v-4q0 -78 61 -119t135 -41q135 0 217 62.5t82 164.5v62q-113 43 -239 43zM819 645q0 232 -276 232q-139 0 -299 -68l-68 199q90 41 184.5 65.5t227.5 24.5q242 0 358.5 -120t116.5 -337v-641h-246
v133q-130 -156 -350 -156q-163 0 -274 88.5t-111 245.5v4q0 175 119.5 265t297.5 90t320 -45v20z" />
    <glyph glyph-name="acircumflex" unicode="&#xe2;" horiz-adv-x="1202" 
d="M485 1518h230l237 -299h-196l-158 137l-158 -137h-192zM584 496q-126 0 -191 -45t-65 -123v-4q0 -78 61 -119t135 -41q135 0 217 62.5t82 164.5v62q-113 43 -239 43zM819 645q0 232 -276 232q-139 0 -299 -68l-68 199q90 41 184.5 65.5t227.5 24.5q242 0 358.5 -120
t116.5 -337v-641h-246v133q-130 -156 -350 -156q-163 0 -274 88.5t-111 245.5v4q0 175 119.5 265t297.5 90t320 -45v20z" />
    <glyph glyph-name="atilde" unicode="&#xe3;" horiz-adv-x="1202" 
d="M444 1495q62 0 131.5 -27.5t103 -41t69.5 -13.5t58.5 24.5t45.5 78.5l137 -43q-35 -123 -85 -188.5t-144 -65.5q-61 0 -131 28.5t-102.5 40.5t-69.5 12t-59.5 -24.5t-45.5 -77.5l-137 41q35 125 85 190.5t144 65.5zM584 496q-126 0 -191 -45t-65 -123v-4q0 -78 61 -119
t135 -41q135 0 217 62.5t82 164.5v62q-113 43 -239 43zM819 645q0 232 -276 232q-139 0 -299 -68l-68 199q90 41 184.5 65.5t227.5 24.5q242 0 358.5 -120t116.5 -337v-641h-246v133q-130 -156 -350 -156q-163 0 -274 88.5t-111 245.5v4q0 175 119.5 265t297.5 90t320 -45
v20z" />
    <glyph glyph-name="adieresis" unicode="&#xe4;" horiz-adv-x="1202" 
d="M270 1460h252v-241h-252v241zM678 1460h252v-241h-252v241zM584 496q-126 0 -191 -45t-65 -123v-4q0 -78 61 -119t135 -41q135 0 217 62.5t82 164.5v62q-113 43 -239 43zM819 645q0 232 -276 232q-139 0 -299 -68l-68 199q90 41 184.5 65.5t227.5 24.5q242 0 358.5 -120
t116.5 -337v-641h-246v133q-130 -156 -350 -156q-163 0 -274 88.5t-111 245.5v4q0 175 119.5 265t297.5 90t320 -45v20z" />
    <glyph glyph-name="aring" unicode="&#xe5;" horiz-adv-x="1202" 
d="M600 1313q53 0 90 36.5t37 88.5v4q0 51 -37 88t-90 37t-90 -37t-37 -88v-4q0 -51 37 -88t90 -37zM436 1281.5q-69 67.5 -69 156.5v4q0 89 69 156t164 67t164.5 -66.5t69.5 -156.5v-4q0 -89 -69.5 -156.5t-164.5 -67.5t-164 67.5zM584 496q-126 0 -191 -45t-65 -123v-4
q0 -78 61 -119t135 -41q135 0 217 62.5t82 164.5v62q-113 43 -239 43zM819 645q0 232 -276 232q-139 0 -299 -68l-68 199q90 41 184.5 65.5t227.5 24.5q242 0 358.5 -120t116.5 -337v-641h-246v133q-130 -156 -350 -156q-163 0 -274 88.5t-111 245.5v4q0 175 119.5 265
t297.5 90t320 -45v20z" />
    <glyph glyph-name="ae" unicode="&#xe6;" horiz-adv-x="1949" 
d="M534 164q164 0 318 139q-32 80 -39 156q-109 37 -233 37t-188 -45t-64 -123v-4q0 -78 59 -119t147 -41zM1143.5 822q-74.5 -79 -90.5 -206h557q-13 126 -84.5 205.5t-189.5 79.5t-192.5 -79zM82 311v4q0 175 119.5 265t294.5 90t317 -45v20q0 231 -264 232
q-145 0 -305 -68l-68 199q90 41 184.5 65.5t225.5 24.5t229 -46t148 -132q141 184 381 184t374.5 -167.5t134.5 -414.5v-35q0 -16 -2 -34h-794q23 -133 106 -204t189 -71t174.5 33t134.5 96l145 -129q-172 -203 -444 -203q-127 0 -235.5 49.5t-182.5 135.5
q-222 -183 -452 -183q-177 0 -293.5 88t-116.5 246z" />
    <glyph glyph-name="ccedilla" unicode="&#xe7;" horiz-adv-x="1169" 
d="M936 752q-130 135 -268 135q-146 0 -235 -100.5t-89 -243.5v-4q0 -148 92 -248.5t232 -100.5q88 0 154.5 38t125.5 98l150 -148q-76 -82 -168 -137t-232 -64l-133 -315l-217 90l164 242q-186 46 -301 196.5t-115 344.5v4q0 235 161 400t400 165q154 0 255.5 -51.5
t177.5 -134.5z" />
    <glyph glyph-name="egrave" unicode="&#xe8;" horiz-adv-x="1236" 
d="M285 1454l225 100l217 -335h-192zM433 822q-75 -79 -91 -206h555q-13 126 -84.5 205.5t-187.5 79.5q-117 0 -192 -79zM96 537v4q0 236 150 399.5t388 163.5t373.5 -168t135.5 -414q0 -33 -4 -69h-795q20 -133 105.5 -204t191.5 -71t174 33t133 96l146 -129
q-172 -203 -443 -203q-236 0 -395.5 157.5t-159.5 404.5z" />
    <glyph glyph-name="eacute" unicode="&#xe9;" horiz-adv-x="1236" 
d="M727 1554l225 -100l-250 -235h-192zM433 822q-75 -79 -91 -206h555q-13 126 -84.5 205.5t-187.5 79.5q-117 0 -192 -79zM96 537v4q0 236 150 399.5t388 163.5t373.5 -168t135.5 -414q0 -33 -4 -69h-795q20 -133 105.5 -204t191.5 -71t174 33t133 96l146 -129
q-172 -203 -443 -203q-236 0 -395.5 157.5t-159.5 404.5z" />
    <glyph glyph-name="ecircumflex" unicode="&#xea;" horiz-adv-x="1236" 
d="M506 1518h229l238 -299h-197l-158 137l-157 -137h-193zM433 822q-75 -79 -91 -206h555q-13 126 -84.5 205.5t-187.5 79.5q-117 0 -192 -79zM96 537v4q0 236 150 399.5t388 163.5t373.5 -168t135.5 -414q0 -33 -4 -69h-795q20 -133 105.5 -204t191.5 -71t174 33t133 96
l146 -129q-172 -203 -443 -203q-236 0 -395.5 157.5t-159.5 404.5z" />
    <glyph glyph-name="edieresis" unicode="&#xeb;" horiz-adv-x="1236" 
d="M291 1460h252v-241h-252v241zM698 1460h252v-241h-252v241zM433 822q-75 -79 -91 -206h555q-13 126 -84.5 205.5t-187.5 79.5q-117 0 -192 -79zM96 537v4q0 236 150 399.5t388 163.5t373.5 -168t135.5 -414q0 -33 -4 -69h-795q20 -133 105.5 -204t191.5 -71t174 33
t133 96l146 -129q-172 -203 -443 -203q-236 0 -395.5 157.5t-159.5 404.5z" />
    <glyph glyph-name="igrave" unicode="&#xec;" horiz-adv-x="585" 
d="M-43 1454l225 100l217 -335h-192zM170 1081h248v-1081h-248v1081z" />
    <glyph glyph-name="iacute" unicode="&#xed;" horiz-adv-x="585" 
d="M403 1554l226 -100l-250 -235h-193zM170 1081h248v-1081h-248v1081z" />
    <glyph glyph-name="icircumflex" unicode="&#xee;" horiz-adv-x="585" 
d="M178 1518h230l237 -299h-196l-158 137l-158 -137h-192zM170 1081h248v-1081h-248v1081z" />
    <glyph glyph-name="idieresis" unicode="&#xef;" horiz-adv-x="585" 
d="M-37 1460h252v-241h-252v241zM371 1460h252v-241h-252v241zM170 1081h248v-1081h-248v1081z" />
    <glyph glyph-name="eth" unicode="&#xf0;" horiz-adv-x="1314" 
d="M971 502v4q0 130 -90.5 218.5t-229.5 88.5t-225 -86t-86 -221v-4q0 -130 91 -223t227 -93t224.5 92.5t88.5 223.5zM654 -25q-242 0 -400 154t-158 379v4q0 210 134.5 346.5t340.5 136.5q152 0 285 -84l-215 293l-244 -108l-98 129l248 108l-119 162h285l49 -72l203 88
l96 -129l-209 -90l182 -264q92 -129 136 -244.5t44 -253.5v-4q0 -232 -111.5 -346t-217 -159.5t-231.5 -45.5z" />
    <glyph glyph-name="ntilde" unicode="&#xf1;" horiz-adv-x="1269" 
d="M485 1495q60 0 131.5 -27.5t105.5 -41t70 -13.5t58 24.5t45 78.5l137 -43q-35 -123 -85 -188.5t-144 -65.5q-61 0 -131 28.5t-103.5 40.5t-70.5 12t-59.5 -24.5t-45.5 -77.5l-137 41q35 125 85 190.5t144 65.5zM156 1081h247v-168q53 78 133 134.5t205 56.5
q184 0 284.5 -112.5t100.5 -303.5v-688h-247v614q0 127 -60.5 196t-170.5 69t-177.5 -71t-67.5 -198v-610h-247v1081z" />
    <glyph glyph-name="ograve" unicode="&#xf2;" horiz-adv-x="1345" 
d="M326 1454l225 100l217 -335h-193zM1001 535v4q0 146 -94.5 247t-237 101t-234 -98t-91.5 -246v-4q0 -144 94 -246.5t238 -102.5q143 0 234 99.5t91 245.5zM671 -25q-246 0 -410.5 162.5t-164.5 397.5v4q0 233 166 399t413.5 166t410.5 -164.5t163 -396.5v-4
q0 -232 -120.5 -352.5t-227 -166t-230.5 -45.5z" />
    <glyph glyph-name="oacute" unicode="&#xf3;" horiz-adv-x="1345" 
d="M793 1554l225 -100l-250 -235h-193zM1001 535v4q0 146 -94.5 247t-237 101t-234 -98t-91.5 -246v-4q0 -144 94 -246.5t238 -102.5q143 0 234 99.5t91 245.5zM671 -25q-246 0 -410.5 162.5t-164.5 397.5v4q0 233 166 399t413.5 166t410.5 -164.5t163 -396.5v-4
q0 -232 -120.5 -352.5t-227 -166t-230.5 -45.5z" />
    <glyph glyph-name="ocircumflex" unicode="&#xf4;" horiz-adv-x="1345" 
d="M557 1518h229l238 -299h-197l-157 137l-158 -137h-193zM1001 535v4q0 146 -94.5 247t-237 101t-234 -98t-91.5 -246v-4q0 -144 94 -246.5t238 -102.5q143 0 234 99.5t91 245.5zM671 -25q-246 0 -410.5 162.5t-164.5 397.5v4q0 233 166 399t413.5 166t410.5 -164.5
t163 -396.5v-4q0 -232 -120.5 -352.5t-227 -166t-230.5 -45.5z" />
    <glyph glyph-name="otilde" unicode="&#xf5;" horiz-adv-x="1345" 
d="M514 1495q62 0 131.5 -27.5t103 -41t69.5 -13.5t58.5 24.5t45.5 78.5l137 -43q-35 -123 -85 -188.5t-145 -65.5q-60 0 -130 28.5t-103.5 40.5t-69.5 12t-59 -24.5t-45 -77.5l-137 41q35 125 85 190.5t144 65.5zM1001 535v4q0 146 -94.5 247t-237 101t-234 -98t-91.5 -246
v-4q0 -144 94 -246.5t238 -102.5q143 0 234 99.5t91 245.5zM671 -25q-246 0 -410.5 162.5t-164.5 397.5v4q0 233 166 399t413.5 166t410.5 -164.5t163 -396.5v-4q0 -232 -120.5 -352.5t-227 -166t-230.5 -45.5z" />
    <glyph glyph-name="odieresis" unicode="&#xf6;" horiz-adv-x="1345" 
d="M342 1460h252v-241h-252v241zM750 1460h251v-241h-251v241zM1001 535v4q0 146 -94.5 247t-237 101t-234 -98t-91.5 -246v-4q0 -144 94 -246.5t238 -102.5q143 0 234 99.5t91 245.5zM671 -25q-246 0 -410.5 162.5t-164.5 397.5v4q0 233 166 399t413.5 166t410.5 -164.5
t163 -396.5v-4q0 -232 -120.5 -352.5t-227 -166t-230.5 -45.5z" />
    <glyph glyph-name="oslash" unicode="&#xf8;" horiz-adv-x="1345" 
d="M666 186q157 0 249.5 102t92.5 247v4q0 95 -52 188l-448 -494q72 -47 158 -47zM678 893q-158 0 -249 -102.5t-91 -247.5v-4q0 -102 51 -187l447 492q-74 49 -158 49zM1249 543v-4q0 -232 -166 -398t-413 -166q-165 0 -310 88l-69 -73h-225l163 182q-133 156 -133 363v4
q0 233 166 399t412 166q169 0 309 -88l72 78h225l-166 -187q135 -147 135 -364z" />
    <glyph glyph-name="ugrave" unicode="&#xf9;" horiz-adv-x="1269" 
d="M313 1452l226 100l217 -335h-193zM143 393v688h248v-614q0 -127 60.5 -195.5t170.5 -68.5t177 70.5t67 197.5v610h248v-1081h-248v168q-62 -89 -142.5 -140t-195.5 -51q-184 0 -284.5 113t-100.5 303z" />
    <glyph glyph-name="uacute" unicode="&#xfa;" horiz-adv-x="1269" 
d="M727 1552l225 -100l-250 -235h-192zM143 393v688h248v-614q0 -127 60.5 -195.5t170.5 -68.5t177 70.5t67 197.5v610h248v-1081h-248v168q-62 -89 -142.5 -140t-195.5 -51q-184 0 -284.5 113t-100.5 303z" />
    <glyph glyph-name="ucircumflex" unicode="&#xfb;" horiz-adv-x="1269" 
d="M520 1518h230l237 -299h-196l-158 137l-158 -137h-192zM143 393v688h248v-614q0 -127 60.5 -195.5t170.5 -68.5t177 70.5t67 197.5v610h248v-1081h-248v168q-62 -89 -142.5 -140t-195.5 -51q-184 0 -284.5 113t-100.5 303z" />
    <glyph glyph-name="udieresis" unicode="&#xfc;" horiz-adv-x="1269" 
d="M305 1460h252v-241h-252v241zM713 1460h252v-241h-252v241zM143 393v688h248v-614q0 -127 60.5 -195.5t170.5 -68.5t177 70.5t67 197.5v610h248v-1081h-248v168q-62 -89 -142.5 -140t-195.5 -51q-184 0 -284.5 113t-100.5 303z" />
    <glyph glyph-name="yacute" unicode="&#xfd;" horiz-adv-x="1220" 
d="M717 1552l225 -100l-250 -235h-192zM344 -125q59 0 94 26.5t66 98.5l-451 1081h264l308 -802l280 802h258l-430 -1112q-66 -168 -146.5 -235.5t-212.5 -67.5t-253 66l84 184q80 -41 139 -41z" />
    <glyph glyph-name="thorn" unicode="&#xfe;" horiz-adv-x="1372" 
d="M1022 539v4q0 154 -89.5 250t-220.5 96t-223 -98.5t-92 -247.5v-4q0 -153 92.5 -249.5t222.5 -96.5t220 94t90 252zM403 901q139 203 355 203t366 -152t150 -409v-4q0 -258 -148.5 -410t-355.5 -152q-133 0 -221 57.5t-146 133.5v-496h-247v1823h247v-594z" />
    <glyph glyph-name="ydieresis" unicode="&#xff;" horiz-adv-x="1220" 
d="M281 1460h251v-241h-251v241zM688 1460h252v-241h-252v241zM344 -125q59 0 94 26.5t66 98.5l-451 1081h264l308 -802l280 802h258l-430 -1112q-66 -168 -146.5 -235.5t-212.5 -67.5t-253 66l84 184q80 -41 139 -41z" />
    <glyph glyph-name="OE" unicode="&#x152;" horiz-adv-x="2248" 
d="M1106 229v975h-223q-226 0 -362 -136t-136 -347v-4q0 -213 137.5 -350.5t360.5 -137.5h223zM883 0q-334 0 -548 202.5t-214 510.5v4q0 308 215 512.5t547 204.5h1241v-226h-766v-372h674v-226h-674v-385h776v-225h-1251z" />
    <glyph glyph-name="oe" unicode="&#x153;" horiz-adv-x="2129" 
d="M987 535v4q0 147 -92 247.5t-232 100.5t-229.5 -100t-89.5 -244v-4q0 -142 92.5 -245.5t233.5 -103.5q138 0 227.5 100t89.5 245zM1517 901q-118 0 -193 -79t-91 -206h557q-12 122 -83.5 203.5t-189.5 81.5zM669 -25q-129 0 -231 44t-178 120t-120 178.5t-44 217.5v4
q0 233 166 399t406 166q139 0 250.5 -61.5t181.5 -161.5q68 102 175 162.5t239 60.5q249 0 384.5 -168t135.5 -414q0 -33 -4 -69h-795q23 -133 107 -204t190 -71t175 33t134 96l146 -129q-172 -203 -443 -203q-141 0 -258 60.5t-188 167.5q-72 -104 -186 -166t-243 -62z" />
    <glyph glyph-name="Scaron" unicode="&#x160;" horiz-adv-x="1310" 
d="M303 1851h197l157 -135l158 135h193l-238 -299h-229zM240 389q215 -186 443 -186q126 0 194.5 49t68.5 131v4q0 78 -65.5 127.5t-257.5 91.5q-256 65 -367 153.5t-111 274.5v4q0 183 137.5 299.5t352.5 116.5q293 0 520 -180l-135 -191q-201 148 -389 148
q-111 0 -172.5 -49t-61.5 -121v-4q0 -86 67 -131t228 -83q160 -39 333 -110.5t173 -320.5v-4q0 -199 -140.5 -313.5t-371.5 -114.5q-346 0 -598 229z" />
    <glyph glyph-name="scaron" unicode="&#x161;" 
d="M168 1518h197l157 -136l158 136h192l-237 -299h-229zM500 903q-72 0 -112 -30.5t-40 -77.5v-4q0 -71 98.5 -103.5t151.5 -49.5q144 -46 237 -115t93 -199v-5q0 -165 -113 -252t-289 -87q-253 0 -458 161l110 168q177 -133 354 -133q80 0 124 32t44 85v4q0 80 -97 108.5
t-150 44.5q-153 45 -242.5 111t-89.5 205v4q0 151 109.5 240.5t275.5 89.5q211 0 397 -123l-98 -176q-169 102 -305 102z" />
    <glyph glyph-name="Ydieresis" unicode="&#x178;" horiz-adv-x="1466" 
d="M403 1792h252v-242h-252v242zM811 1792h252v-242h-252v242zM860 0h-254v565l-569 869h297l401 -635l406 635h289l-570 -863v-571z" />
    <glyph glyph-name="florin" unicode="&#x192;" horiz-adv-x="1079" 
d="M860 1233q-68 0 -106.5 -37t-55.5 -121l-24 -139h260v-207h-297l-78 -432q-29 -166 -114.5 -236.5t-245.5 -70.5q-73 0 -115 10v203q44 -6 96 -6q113 0 135 137l72 395h-164v207h199l37 190q29 156 110.5 237t247.5 81q107 0 189 -23v-209q-78 21 -146 21z" />
    <glyph glyph-name="circumflex" unicode="&#x2c6;" 
d="M397 1518h230l237 -299h-196l-158 137l-158 -137h-192z" />
    <glyph glyph-name="tilde" unicode="&#x2dc;" 
d="M354 1495q62 0 131.5 -27.5t103 -41t69.5 -13.5t58.5 24.5t45.5 78.5l137 -43q-35 -123 -85 -188.5t-144 -65.5q-61 0 -131 28.5t-103.5 40.5t-69.5 12t-58.5 -24.5t-45.5 -77.5l-137 41q35 125 85 190.5t144 65.5z" />
    <glyph glyph-name="endash" unicode="&#x2013;" horiz-adv-x="1081" 
d="M115 745h852v-235h-852v235z" />
    <glyph glyph-name="emdash" unicode="&#x2014;" horiz-adv-x="1839" 
d="M115 745h1609v-235h-1609v235z" />
    <glyph glyph-name="quoteleft" unicode="&#x2018;" horiz-adv-x="550" 
d="M129 1104q0 172 80 250t235 90l27 -107q-188 -35 -174 -190h104v-283h-272v240z" />
    <glyph glyph-name="quoteright" unicode="&#x2019;" horiz-adv-x="550" 
d="M150 1153v281h272v-240q0 -172 -80 -250t-236 -90l-26 107q188 35 174 192h-104z" />
    <glyph glyph-name="quotesinglbase" unicode="&#x201a;" horiz-adv-x="550" 
d="M139 0v281h273v-238q0 -172 -80 -250t-236 -90l-26 104q188 37 174 193h-105z" />
    <glyph glyph-name="quotedblleft" unicode="&#x201c;" horiz-adv-x="1026" 
d="M129 1104q0 172 80 250t235 90l27 -107q-188 -35 -174 -190h104v-283h-272v240zM604 1104q0 172 80 250t236 90l26 -107q-188 -35 -176 -190h107v-283h-273v240z" />
    <glyph glyph-name="quotedblright" unicode="&#x201d;" horiz-adv-x="1026" 
d="M150 1153v281h272v-240q0 -172 -80 -250t-236 -90l-26 107q188 35 174 192h-104zM625 1153v281h272v-240q0 -172 -80 -250t-235 -90l-27 107q188 35 174 192h-104z" />
    <glyph glyph-name="quotedblbase" unicode="&#x201e;" horiz-adv-x="1026" 
d="M139 0v281h273v-238q0 -172 -80 -250t-236 -90l-26 104q188 37 174 193h-105zM614 0v281h273v-238q0 -172 -80 -250t-236 -90l-26 104q188 37 174 193h-105z" />
    <glyph glyph-name="dagger" unicode="&#x2020;" horiz-adv-x="839" 
d="M365 1051l-250 -19v146l247 -19l-24 275h164l-25 -275l248 19v-146l-250 19l19 -564h-148z" />
    <glyph glyph-name="daggerdbl" unicode="&#x2021;" horiz-adv-x="880" 
d="M383 274l-248 -18v145l248 -18l-16 334l16 334l-248 -19v146l248 -19l-25 275h164l-24 -275l247 19v-146l-247 19l16 -334l-16 -334l247 18v-145l-247 18l24 -274h-164z" />
    <glyph glyph-name="bullet" unicode="&#x2022;" horiz-adv-x="1005" 
d="M213 719v4q0 117 85 202t204 85t205 -85t86 -202v-4q0 -120 -85.5 -203.5t-204.5 -83.5t-204.5 83.5t-85.5 203.5z" />
    <glyph glyph-name="ellipsis" unicode="&#x2026;" horiz-adv-x="1622" 
d="M139 274h267v-274h-267v274zM678 274h266v-274h-266v274zM1217 274h266v-274h-266v274z" />
    <glyph glyph-name="perthousand" unicode="&#x2030;" horiz-adv-x="2514" 
d="M1306 141q71 0 111.5 60.5t40.5 144.5v4q0 86 -44 147.5t-115 61.5t-111.5 -60.5t-40.5 -144.5v-4q0 -88 44 -148.5t115 -60.5zM2082 141q71 0 111.5 60.5t40.5 144.5v4q0 86 -44 147.5t-114 61.5t-111.5 -60.5t-41.5 -144.5v-4q0 -88 44 -148.5t115 -60.5zM439 874
q71 0 112 60.5t41 144.5v4q0 86 -44 147.5t-115 61.5t-111.5 -60.5t-40.5 -144.5v-4q0 -88 43.5 -148.5t114.5 -60.5zM965 346v4q0 153 96.5 260t243.5 107t241 -107t94 -256v-4q0 -153 -96 -259.5t-244 -106.5t-241.5 106.5t-93.5 255.5zM1741 346v4q0 151 95 259
t243.5 108t243 -107.5t94.5 -255.5v-4q0 -151 -96.5 -258.5t-245.5 -107.5t-241.5 105t-92.5 257zM1292 1434h203l-1049 -1434h-202zM98 1079v4q0 153 96.5 260t244.5 107t241.5 -107t93.5 -256v-4q0 -151 -96 -258.5t-243.5 -107.5t-242 106t-94.5 256z" />
    <glyph glyph-name="guilsinglleft" unicode="&#x2039;" horiz-adv-x="724" 
d="M90 532v17l340 450l188 -96l-270 -360l270 -363l-188 -96z" />
    <glyph glyph-name="guilsinglright" unicode="&#x203a;" horiz-adv-x="724" 
d="M109 178l270 361l-270 362l188 98l338 -450v-17l-338 -448z" />
    <glyph glyph-name="trademark" unicode="&#x2122;" horiz-adv-x="1413" 
d="M248 1323h-195v111h510v-111h-194v-520h-121v520zM698 1434h129l191 -299l190 299h125v-631h-116v448l-195 -303h-12l-195 303v-448h-117v631z" />
    <glyph glyph-name="NUL" horiz-adv-x="0" 
 />
    <glyph glyph-name="pi" horiz-adv-x="1699" 
d="M887 721q74 0 117 36t43 95v4q0 63 -43 96t-117 33h-150v-264h150zM586 1120h313q139 0 220 -70.5t81 -191.5v-4q0 -126 -89.5 -196t-227.5 -70h-146v-246h-151v778zM848 49q141 0 263 53.5t211 143.5t140 212t51 259v4q0 137 -50 258t-139 211t-210 142t-262 52
t-263 -53t-211 -143t-140.5 -212t-51.5 -259v-4q0 -137 50.5 -258t139.5 -211t210 -142.5t262 -52.5zM848 -25q-156 0 -291 58.5t-234.5 159t-156.5 234.5t-57 286v4q0 152 57 286t157.5 235t236.5 160.5t292 59.5t291 -58.5t234.5 -158.5t156.5 -234.5t57 -285.5v-4
q0 -152 -57 -286t-157.5 -235.5t-236.5 -161t-292 -59.5z" />
    <glyph glyph-name="Omega" horiz-adv-x="1540" 
d="M598 1296q-143 0 -143 -163v-60h286v-205h-282v-868h-248v868h-137v207h137v78q0 180 87 267t245 87q104 0 200 -28v-209q-80 26 -145 26zM1368 1296q-143 0 -143 -163v-60h286v-205h-282v-868h-248v868h-137v207h137v78q0 180 87 267t243 87q109 0 202 -28v-209
q-80 26 -145 26z" />
    <glyph glyph-name="radical" horiz-adv-x="2125" 
d="M1708 1495h250v-1495h-250v1495zM598 1296q-143 0 -143 -163v-60h286v-205h-282v-868h-248v868h-137v207h137v78q0 180 87 267t245 87q104 0 200 -28v-209q-80 26 -145 26zM1368 1296q-143 0 -143 -163v-60h286v-205h-282v-868h-248v868h-137v207h137v78q0 180 87 267
t243 87q109 0 202 -28v-209q-80 26 -145 26z" />
    <glyph glyph-name="approxequal" horiz-adv-x="2125" 
d="M1708 1081h250v-1081h-250v1081zM598 1296q-143 0 -143 -163v-60h286v-205h-282v-868h-248v868h-137v207h137v78q0 180 87 267t245 87q104 0 200 -28v-209q-80 26 -145 26zM1368 1296q-143 0 -143 -163v-60h286v-205h-282v-868h-248v868h-137v207h137v78q0 180 87 267
t243 87q109 0 202 -28v-209q-80 26 -145 26zM1700 1483h266v-236h-266v236z" />
    <glyph glyph-name="nonbreakingspace" horiz-adv-x="614" 
 />
    <glyph glyph-name="apple" horiz-adv-x="1980" 
d="M830 96q-24 0 -25 34q1 34 25 34t24 -34t-24 -34zM715 131q-16 0 -17 16q0 13 12 13t11 -8v-21h-6zM1133 162q10 0 0 -19q-10 19 0 19zM786 358q-24 0 -38 20t-14 51q0 30 28 30h12q6 -2 7 -3t5 -12l19 -71q0 -14 -8 -15h-11zM1393 434q0 30 20 29q21 1 37 -23t16 -54
t-20 -30t-37 24q-16 24 -16 54zM563 410q-28 0 -31 30q0 18 17 19q16 0 18 -10l6 -39h-10zM780 786q-27 0 -26 23q0 23 26 22h23v-45h-23zM1327 1146q1 30 21 30t36 -24t17 -53q-1 -30 -21 -30t-37 24q-16 23 -16 53zM535 1129q0 5 9 5t13 -1q-6 -9 -14 -9t-8 5zM1137 1129
q0 5 9 5t13 -1q-6 -9 -14 -9t-8 5zM350 1122q-28 0 -31 31q1 18 17 18t18 -10l6 -39h-10zM858 -180q0 -26 22 -25q22 0 23 26q0 26 -22 25q-23 0 -23 -26zM1593 -180q1 -26 23 -25q22 0 22 26t-22 25q-23 0 -23 -26zM1145 -164l-10 -24h20zM784 -182q23 0 23 14t-23 12v-26z
M1075 -167q0 15 -22 11v-24q22 -2 22 13zM1219 -182q22 0 22 14t-22 12v-26zM608 111q0 -13 -12 -13v-4h37v4q-12 0 -12 13v41q0 10 12 10v4h-37v-4q12 0 12 -10v-19q-4 0 -8 4l-16 17l-2 6q2 2 4 2v4h-29v-4q2 0 9 -3t7 -5l21 -19l-27 -26q-4 -5 -8 -7t-6 -4v-4h35v4
q-2 0 -5 3t1 8l16 16q4 4 8 4v-18zM721 109q0 -11 -10 -11v-4h34v4q-2 0 -6 4t-4 7v41q0 4 4 8t6 4v4h-36q-27 0 -27 -19q0 -10 18 -18l-14 -20q-11 -11 -16 -11v-4h22l15 25q6 8 14 8v-18zM829 92q41 0 41 38t-40 38t-42 -37q0 -15 10 -27t31 -12zM938 111q0 -13 -10 -13
v-4h35v4q-2 0 -5 2q-6 6 -6 11v16l17 25q4 4 6 5t4 3t4 2v4h-31v-4q9 0 2 -10l-12 -19l-12 19q-3 10 6 10v4h-31v-4q10 0 17 -10l16 -25v-16zM1194 162v4h-31v-4q7 0 4 -10l-18 -39l-10 20q14 29 20 29v4h-53l2 -4q2 0 14 -12l6 -11l-14 -26l-16 37q-3 12 4 12v4h-27v-4
q6 0 12 -12l27 -56h4l17 33l18 -33h2l25 56q12 12 14 12zM1251 117q0 12 13 12h8v-23q0 -6 -8 -6h-9q-6 0 -13 8t-7 11l-4 -2l4 -23h61v4q-2 -2 -6 2t-4 9v43q0 4 4 8t6 2v4h-59l-4 -21l4 -2q0 5 6 11t12 6h9q8 0 8 -6v-21h-8q-4 0 -8 4t-5 6h-4v-26h4zM1403 109
q0 -11 -10 -11v-4h28v4q-12 0 -12 11v41q0 6 5 8t7 4v4h-20l-49 -53v37q0 12 12 12v4h-31v-4q12 0 13 -12v-58h6l51 58v-41zM1694 272h-1403v-12h1403v12zM508 436q0 -25 39 -30l-19 -33q-7 -17 -28 -17l2 -6h39l24 47q4 6 10 6l7 -30q2 -9 -4 -13t-11 -4l2 -6h60l-2 6
q-18 0 -21 17l-14 71q-2 10 4 14t10 3l-2 6h-55q-41 0 -41 -31zM762 467q-51 0 -51 -50q1 -28 23 -47t48 -20h66l-2 8q-10 -5 -21 19l-16 63q-6 18 16 21l-2 6h-61zM1069 356q-10 0 -18 21l-15 65q-3 19 17 19l-2 6h-29l-59 -86l-11 61q-3 19 15 19l-2 6h-43l2 -6
q15 0 18 -19l16 -92l7 -2l61 90l12 -61q3 -21 -12 -21l2 -6h43zM1186 467h-49l2 -6q19 0 22 -19l8 -39q13 -53 58 -55q35 0 39 16t0 33l-11 45q-1 14 5 18t12 1l-2 6h-60l2 -6q18 0 21 -19l10 -43q4 -20 2 -30q-2 -11 -21 -11q-34 -1 -44 45l-9 39q-1 14 5 18t10 1v6z
M1569 467v-35h8q-2 8 4 17t23 10h8q10 0 12 -13l6 -32h-8q-12 0 -25 18h-6l11 -47h6q0 21 16 23h8l6 -35q2 -9 -4 -13t-10 -4l2 -6h60l-3 6q-17 0 -20 17l-14 71q-2 10 4 14t10 3l-2 6h-92zM369 434q0 22 18 21q10 0 25 -15l4 4q-16 27 -37 27q-31 0 -29 -47q-14 47 -43 47
q-24 0 -24 -25l6 -2q0 12 18 12q30 1 47 -67q6 -21 0 -27t-12 -4l2 -8h57l-2 8q-10 -5 -20 19q-10 35 -10 57zM1491 396q0 28 -24 52t-45 23q-54 0 -54 -45q0 -34 24 -56t45 -22q54 0 54 48zM1694 567h-1403v-12h1403v12zM580 698h-29v133h29v70h-289v-127h84v57h67v-40h-49
v-50h49v-43h-67v58h-84v-125h289v67zM938 698h-29v133h29v70h-197q-45 1 -71 -23t-25 -59q0 -35 26 -59t70 -23h62v-39h-31v-67h166v67zM1327 901h-166v-70h23l-31 -47l-31 47h21v70h-127v-70h24l76 -94v-39h-29v-67h166v67h-30v41l75 92h29v70zM1694 901h-301v-127h73v57
h23v-133h-29v-67h166v67h-29v133h23v-57h74v127zM1694 985h-1403v-12h1403v12zM715 1087q-10 0 -10 -12t10 -19t22 -7q19 0 29 13t20 13q8 -14 20 -14t13 5q0 15 -26 19q-7 5 -9 21t-5 34q-7 43 -46 44q-10 0 -18 -7t-8 -15t9 -9q9 0 9 12t10 13q14 0 19 -36t24 -57
q-24 0 -30 -13t-16 -13t-11 8l4 10q0 10 -10 10zM295 1149q0 -26 39 -31l-19 -33q-6 -16 -28 -16l2 -6h39l24 47q4 6 10 6l7 -31q1 -10 -5 -13t-10 -3l2 -6h60l-2 6q-16 0 -21 16l-14 72q-3 13 14 17l-2 6h-55q-41 0 -41 -31zM903 1180v-35h8q-2 8 4 17t23 9h8q10 0 12 -12
l7 -33h-9q-14 0 -24 19h-6l10 -47h6q0 22 16 22h9l6 -35q3 -16 -15 -16l3 -6h59l-2 6q-16 0 -21 16l-14 72q-3 13 14 17l-2 6h-92zM1679 1069q-17 0 -20 16l-14 72q-3 13 14 17l-2 6h-58l3 -6q15 0 18 -17l6 -31h-49l-6 31q-3 13 14 17l-2 6h-59l2 -6q16 0 20 -17l15 -72
q1 -10 -5 -13t-10 -3l2 -6h60l-2 6q-18 0 -21 16l-6 33h49l6 -33q3 -16 -14 -16l2 -6h59zM604 1100q0 25 -29 35q24 15 0 39q-11 10 -35 10t-24 -23q0 -12 9 -12t10 6l-7 12q0 10 15 11q20 0 20 -25q0 -8 -4 -12q-33 3 -33 -11t14 -14t25 10q13 -8 13 -34t-25 -25
q-25 0 -25 18q0 6 7 7l10 -5q8 1 8 11t-16 10t-17 -21q0 -27 42 -27t42 40zM1206 1100q0 25 -28 35q10 6 10 17q0 12 -10 22t-35 10t-25 -23q0 -12 9 -12t10 6q0 6 -3 7q-4 1 -4 8t15 8q20 0 20 -25q0 -8 -4 -12q-33 3 -33 -11t14 -14t25 10q13 -8 13 -34t-25 -25
q-25 0 -25 18q0 6 7 7l10 -5q8 1 8 11t-16 10t-17 -21q0 -27 42 -27t42 40zM1425 1109q1 27 -23 51t-45 24q-54 0 -54 -45q0 -33 31 -63t75 -5q16 10 16 38zM1694 1278h-1403v-12h1403v12zM854 1378q0 11 12 13h8v-23q0 -6 -8 -6h-8q-6 0 -13 7t-7 11l-4 -2l4 -22h61v4
q-2 -2 -6 2t-4 8v43q0 4 4 8t6 2v4h-59l-4 -20l4 -2q0 4 6 10t12 6h8q8 0 8 -6v-20h-8q-4 0 -8 4t-4 6h-4v-27h4zM956 1370q0 -10 -10 -10v-4h35v4q-2 0 -6 4t-4 6v21h35v-21q0 -16 -11 -10v-4h37v4q-2 -2 -7 1t-5 9v43q0 8 5 10t7 0v4h-37v-4q9 4 11 -10v-18h-35v18
q0 4 4 8t6 2v4h-35v-4q4 2 7 -1t3 -9v-43zM1100 1370q0 -15 -10 -10v-4h34v4q-2 -2 -6 2t-4 8v47q0 6 7 6t13 -6t7 -12h4v10q0 10 -2 15q-4 -2 -35 -2t-37 2v-15q0 -6 -2 -10h4q6 18 21 18q6 0 6 -6v-47zM582 -207q0 -8 -8 -8t-9 8q1 8 9 8t8 -8zM1466 -207q0 -8 -8 -8t-8 8
t8 8t8 -8zM293 -215h-2l-23 47l-20 -47h-2l-25 70l12 2l15 -47l20 47h2l21 -47l14 45h12zM408 -215h-2l-23 47l-21 -47h-2l-24 70l12 2l14 -47l21 47h2l21 -47l14 45h12zM522 -215h-2l-22 47l-21 -47h-2l-24 70l12 2l14 -47l21 47h2l20 -47l15 45h12zM662 -156h-25v-57h-12
v57h-25v11h62v-11zM719 -213h-12v29l-29 39l12 2l23 -31l18 29h14l-26 -39v-29zM819 -168q0 -25 -35 -25v-20h-12v68q47 6 47 -23zM846 -180q0 35 37 37q14 -1 23 -11t9 -24q-1 -37 -35 -37t-34 35zM979 -215q-37 0 -37 35t39 37q12 0 25 -9l-5 -10q-8 8 -22 8
q-25 0 -25 -26t27 -25q4 0 12 4v15h-18v10h31v-31q-12 -8 -27 -8zM1053 -190v-23h-13v68q47 6 47 -21q0 -14 -14 -20l21 -27h-15l-16 23h-10zM1167 -213l-8 16h-29l-6 -16h-12l31 70h4l33 -70h-13zM1253 -168q0 -25 -34 -25v-20h-13v68q47 6 47 -23zM1331 -213v31h-33v-31
h-12v68h12v-27h33v27h12v-68h-12zM1411 -213h-12v29l-29 39l12 2l23 -31l18 29h15l-27 -39v-29zM1530 -154q-25 0 -25 -26t27 -25q8 0 20 8l-2 -12q-6 -6 -20 -6q-37 0 -37 35t37 37q14 0 22 -7l-4 -10q-6 6 -18 6zM1581 -180q0 35 37 37q14 -1 24 -11t9 -24q0 -37 -35 -37
t-35 35zM1747 -213l-6 41l-21 -43h-4l-20 43l-6 -41h-13l13 70h2l26 -54l27 54h2l12 -70h-12zM207 0v1536h1571v-1536h-1571z" />
    </font>
</defs>
</svg>
