<?xml version="1.0" standalone="no"?>
<!DOCTYPE svg PUBLIC "-//W3C//DTD SVG 1.1//EN" "http://www.w3.org/Graphics/SVG/1.1/DTD/svg11.dtd" >
<svg xmlns="http://www.w3.org/2000/svg">
<metadata>
Created by FontPrep 20130207 at Fri Jul 15 15:09:50 2016
 By Nikita Drozd
Copyright (c) 2012 by Just Another Foundry. All rights reserved.
</metadata>
<defs>
<font id="7c6a4d651e4b68c92f859711c2c0db90" horiz-adv-x='1024' >
  <font-face 
    font-family="BerninaSans-Semibold"
    font-weight="600"
    font-stretch="normal"
    units-per-em="2048"
    panose-1="0 0 0 0 0 0 0 0 0 0"
    ascent="1651"
    descent="-397"
    x-height="1110"
    cap-height="1540"
    bbox="-608 -672 2744 2068"
    underline-thickness="163"
    underline-position="-41"
    unicode-range="U+0020-2265"
  />
<missing-glyph horiz-adv-x="565" 
 />
    <glyph glyph-name=".notdef" horiz-adv-x="565" 
 />
    <glyph glyph-name=".null" horiz-adv-x="0" 
 />
    <glyph glyph-name="nonmarkingreturn" horiz-adv-x="681" 
 />
    <glyph glyph-name="space" unicode=" " horiz-adv-x="565" 
 />
    <glyph glyph-name="exclam.round" unicode="!" horiz-adv-x="700" 
d="M362 291q74 0 116 -42t42 -110q0 -67 -42 -109t-116 -42t-116 42t-41 110q-1 68 41 109q42 42 116 42zM217 1540h291l-31 -1104h-229z" />
    <glyph glyph-name="quotedbl" unicode="&#x22;" horiz-adv-x="923" 
d="M524 1047v550h234l-78 -550h-156zM184 1047v550h234l-78 -550h-156z" />
    <glyph glyph-name="numbersign" unicode="#" horiz-adv-x="1609" 
d="M668 924l-43 -439h317l43 439h-317zM1458 1114l-18 -190h-232l-43 -439h232l-19 -190h-233l-29 -295h-223l29 295h-318l-29 -295h-223l29 295h-229l18 190h231l43 439h-231l18 190h232l31 295h223l-31 -295h318l30 295h223l-30 -295h231z" />
    <glyph glyph-name="dollar" unicode="$" horiz-adv-x="1257" 
d="M362 1030q0 -68 52 -108t151 -70l31 322q-234 -13 -234 -144zM907 377q0 67 -51 111t-147 81l-33 -336q231 15 231 144zM154 307h16q141 -51 328 -69l41 387q-95 31 -155 57q-175 74 -229 179q-34 65 -34 151q0 166 129 257t362 101l13 170h196l-22 -174q175 -14 254 -39
l34 -8v-205h-16q-125 41 -295 55l-41 -366q172 -50 280 -123q134 -90 134 -272q0 -348 -487 -369l-13 -170h-196l20 172q-173 12 -280 45l-39 12v209z" />
    <glyph glyph-name="percent" unicode="%" horiz-adv-x="1822" 
d="M1343 526q-75 0 -121 -53t-46 -140t47 -140t121 -53t120 52q47 54 47 141t-47 140t-121 53zM981 333q0 161 102 260t260 99q157 0 261 -99t104 -259t-103 -260t-261 -100t-261 98q-102 100 -102 261zM649 1077q0 87 -47 141t-122 54t-122 -52t-47 -142q0 -89 48 -142
t122 -53t121 53t47 141zM115 1078q0 159 104 258q104 100 261 100t261 -100q105 -100 105 -258q0 -159 -104 -258t-262 -99q-157 0 -261 99t-104 258zM209 0v14l639 742l516 653h252v-12l-641 -744l-516 -653h-250z" />
    <glyph glyph-name="ampersand" unicode="&#x26;" horiz-adv-x="1607" 
d="M469 1200q0 -131 164 -295q104 76 163 145q58 68 58 152t-54 133t-138 49t-138 -50t-55 -134zM649 168q170 0 299 135l-389 361q-184 -135 -184 -273q1 -99 77 -161t197 -62zM1591 0h-323l-181 172q-178 -197 -485 -197q-236 0 -373 108t-137 290q0 141 83 239t241 183
q-109 109 -159 199t-50 194q0 170 121 275q122 105 326 105t319 -96q115 -98 115 -239t-87 -239q-86 -98 -249 -203l340 -320q70 150 94 360h246q-31 -291 -177 -495l336 -320v-16z" />
    <glyph glyph-name="quotesingle" unicode="'" horiz-adv-x="604" 
d="M184 1047v550h254l-73 -550h-181z" />
    <glyph glyph-name="parenleft" unicode="(" horiz-adv-x="739" 
d="M377 641q-1 -170 27 -332t87 -327t123 -258l29 -39h-197q-35 35 -102 149q-67 113 -111 216q-43 103 -78 264q-36 161 -36 327q0 417 212 789q48 86 83 126l32 41h197q-172 -241 -237 -622q-29 -164 -29 -334z" />
    <glyph glyph-name="parenright" unicode=")" horiz-adv-x="739" 
d="M621 641q0 -413 -212 -788q-48 -86 -81 -127l-35 -41h-197q170 238 238 622q29 164 28 334q0 425 -172 795q-39 84 -67 123l-27 38h197q37 -37 104 -149q66 -112 109 -216t79 -264q36 -161 36 -327z" />
    <glyph glyph-name="asterisk" unicode="*" horiz-adv-x="1155" 
d="M909 942l-153 -113l-178 254l-179 -254l-153 113l186 248l-297 90l60 182l292 -100l-6 309h193l-6 -309l293 100l59 -182l-297 -90z" />
    <glyph glyph-name="plus" unicode="+" horiz-adv-x="1392" 
d="M813 29h-233v448h-424v201h424v448h233v-448h424v-201h-424v-448z" />
    <glyph glyph-name="comma" unicode="," horiz-adv-x="569" 
d="M172 270h270l-159 -573h-201z" />
    <glyph glyph-name="hyphen" unicode="-" horiz-adv-x="905" 
d="M782 537h-659v208h659v-208z" />
    <glyph glyph-name="period.round" unicode="." horiz-adv-x="573" 
d="M291 315q74 0 119 -46q45 -45 45 -117t-45 -118t-119 -46t-119 46t-45 118t45 118t119 45z" />
    <glyph glyph-name="slash" unicode="/" horiz-adv-x="929" 
d="M893 1597l-631 -1654h-225l631 1654h225z" />
    <glyph glyph-name="zero" unicode="0" horiz-adv-x="1361" 
d="M934 705q0 285 -60 409t-193 123q-133 0 -193 -124q-60 -125 -60 -409t59 -408t193 -124t194 124t60 409zM1217 692q0 -288 -104 -489q-56 -109 -167 -168t-253 -59q-262 -1 -383 138t-151 365t0 450q47 356 301 464q96 41 224 41q127 0 223 -41t154 -108
q113 -131 143 -358q14 -99 13 -235z" />
    <glyph glyph-name="one" unicode="1" horiz-adv-x="837" 
d="M649 0h-266v1176l-297 -101h-14v205l397 129h180v-1409z" />
    <glyph glyph-name="two" unicode="2" horiz-adv-x="1136" 
d="M1016 211v-211h-901v182q47 49 200 204q293 297 345 413q53 116 55 200q0 223 -262 224q-120 0 -256 -39l-45 -15h-15v207q162 47 352 47q254 0 382 -105t128 -299q0 -240 -302 -536q-50 -49 -138 -135t-139 -137h596z" />
    <glyph glyph-name="three" unicode="3" horiz-adv-x="1126" 
d="M385 831q305 0 305 207q0 184 -248 185q-121 0 -254 -37l-41 -12h-16v204q152 45 366 45t343 -94t129 -258q0 -127 -75 -212t-204 -114q137 -20 223 -111t86 -237q-1 -188 -151 -300t-414 -111q-176 0 -278 34l-39 11v202h14q150 -47 292 -47t219 58t77 171
q0 214 -336 214h-141v202h143z" />
    <glyph glyph-name="four" unicode="4" horiz-adv-x="1267" 
d="M715 496v641l-396 -641h396zM1171 291h-210v-291h-246v291h-631v188l571 930h306v-913h210v-205z" />
    <glyph glyph-name="five" unicode="5" horiz-adv-x="1144" 
d="M956 1200h-536l-21 -342q68 8 138 8q239 0 367 -118t128 -321q0 -204 -150 -323t-409 -118q-176 0 -293 37l-41 12v207h15q166 -56 312 -56t219 65t73 175q0 242 -332 242q-109 0 -205 -13l-39 -6h-14l39 760h749v-209z" />
    <glyph glyph-name="six" unicode="6" horiz-adv-x="1286" 
d="M901 436q0 122 -60 194t-174 72t-179 -70q-64 -70 -64 -191t60 -197t176 -76t178 73q63 73 63 195zM743 893q197 1 314 -119t117 -327t-136 -339t-400 -132q-262 0 -388 178q-104 145 -105 469q0 422 159 611t489 189q147 0 249 -24l35 -8v-209h-14q-131 41 -270 41
q-205 0 -291 -125t-86 -398q72 193 327 193z" />
    <glyph glyph-name="seven" unicode="7" horiz-adv-x="1071" 
d="M61 1200v209h926v-152l-469 -1257h-291l478 1200h-644z" />
    <glyph glyph-name="eight" unicode="8" horiz-adv-x="1269" 
d="M391 379q0 -103 65 -159q64 -56 178 -56t180 56t65 152q0 96 -76 158q-76 63 -221 113q-191 -88 -191 -264zM842 1056q0 86 -54 138q-54 51 -152 51q-96 0 -152 -51t-56 -136q0 -86 67 -144t189 -103q68 35 113 97t45 148zM158 1067q0 170 129 267q129 98 349 98t348 -94
t128 -259q0 -119 -70 -203t-190 -131q139 -49 220 -144t81 -230q0 -181 -141 -287t-382 -106t-377 100q-136 102 -136 276q0 250 297 361q-119 47 -188 137q-68 90 -68 215z" />
    <glyph glyph-name="nine" unicode="9" horiz-adv-x="1286" 
d="M621 707q113 -1 177 69t64 192t-60 198t-175 75q-115 0 -177 -73q-62 -74 -62 -196t59 -194q61 -71 174 -71zM543 516q-199 0 -315 120t-115 326q0 208 136 340t380 132q281 0 407 -179q104 -145 105 -469q0 -422 -159 -611t-488 -189q-148 0 -250 24l-35 8v209h14
q133 -41 271 -41q204 0 290 125t86 398q-68 -193 -327 -193z" />
    <glyph glyph-name="colon.round" unicode=":" horiz-adv-x="622" 
d="M309 1126q74 0 117 -44t43 -116t-43 -115q-43 -44 -117 -44q-75 0 -117 44t-42 116q0 71 42 115t117 44zM309 307q74 0 117 -44t43 -116q0 -71 -43 -115t-117 -44q-75 0 -117 44t-42 116t42 115q42 44 117 44z" />
    <glyph glyph-name="semicolon.round" unicode=";" horiz-adv-x="618" 
d="M180 270h271l-160 -573h-201zM309 1126q74 0 117 -44t43 -116t-43 -115q-43 -44 -117 -44q-75 0 -117 44t-42 116q0 71 42 115t117 44z" />
    <glyph glyph-name="less" unicode="&#x3c;" horiz-adv-x="1392" 
d="M1114 1069v-213l-700 -274l700 -283v-213l-913 381v221z" />
    <glyph glyph-name="equal" unicode="=" horiz-adv-x="1392" 
d="M1184 692h-975v189h975v-189zM1184 274h-975v189h975v-189z" />
    <glyph glyph-name="greater" unicode="&#x3e;" horiz-adv-x="1392" 
d="M279 86v213l700 274l-700 283v213l913 -381v-221z" />
    <glyph glyph-name="question.round" unicode="?" horiz-adv-x="1122" 
d="M123 1288v211q155 57 397 57t377 -102t135 -285q0 -140 -69 -225t-137 -136q-68 -52 -87 -71q-74 -68 -91 -128t-17 -173h-244q0 98 5 148t39 122q34 71 104 134q12 12 67 58t80 72t50 76q26 50 26 103q0 96 -74 149q-74 54 -215 54t-285 -49l-45 -15h-16zM510 291
q74 0 116 -42t42 -110q0 -67 -42 -109t-116 -42t-116 42t-42 110t42 109q42 42 116 42z" />
    <glyph glyph-name="at" unicode="@" horiz-adv-x="2084" 
d="M1032 868q-180 0 -180 -258t180 -258t180 258t-180 258zM1245 352q-55 -165 -256 -168q-156 0 -251 113t-95 311t98 313t263 115t229 -143l49 123h123v-504q0 -61 3 -89q4 -27 24 -53t63 -26q86 0 137 82t51 236q0 270 -161 437q-162 167 -457 167t-479 -180t-184 -475
q0 -296 195 -472q196 -176 550 -176q137 0 278 27t213 53l74 27h17v-185q-287 -90 -592 -90q-432 0 -682 223t-250 586t246 596q246 234 614 234q367 0 591 -214t224 -534q0 -225 -112 -363t-291 -139q-100 0 -160 45q-59 45 -72 123z" />
    <glyph glyph-name="A" unicode="A" horiz-adv-x="1433" 
d="M700 1253l-227 -663h449zM1413 0h-295l-129 385h-588l-131 -385h-250l558 1540h286z" />
    <glyph glyph-name="B" unicode="B" horiz-adv-x="1392" 
d="M459 1343v-438h188q125 0 184 33q99 55 99 186t-99 187q-59 33 -184 32h-188zM680 197q340 -1 340 249t-340 250h-221v-499h221zM188 1540h496q80 0 126 -2q142 -6 234 -63q168 -98 168 -314q0 -87 -28 -153t-67 -100q-72 -61 -146 -81l-29 -4q41 -1 115 -27
q73 -26 121 -62t86 -112q39 -76 39 -180q0 -236 -193 -356q-63 -39 -145 -59q-81 -19 -133 -23t-140 -4h-504v1540z" />
    <glyph glyph-name="C" unicode="C" horiz-adv-x="1302" 
d="M1192 246v-213q-139 -49 -332 -49q-373 0 -561 220t-188 566t188 566t561 220q174 0 291 -36l41 -13v-213h-16q-133 57 -293 58q-242 0 -362 -160t-120 -416t122 -422t364 -166q132 0 252 43l37 15h16z" />
    <glyph glyph-name="D" unicode="D" horiz-adv-x="1581" 
d="M463 1335v-1130h172q217 0 328 61q217 123 217 504t-222 504q-111 61 -323 61h-172zM188 1540h430q106 0 172 -3t172 -28q108 -25 189 -71q319 -184 319 -668t-327 -670q-84 -46 -192 -70t-171 -27t-162 -3h-430v1540z" />
    <glyph glyph-name="E" unicode="E" horiz-adv-x="1249" 
d="M188 1540h922v-209h-651v-426h553v-209h-553v-487h684v-209h-955v1540z" />
    <glyph glyph-name="F" unicode="F" horiz-adv-x="1163" 
d="M188 1540h902v-213h-627v-504h557v-213h-557v-610h-275v1540z" />
    <glyph glyph-name="G" unicode="G" horiz-adv-x="1527" 
d="M836 815h544v-754q-201 -82 -473 -81q-369 0 -583 196t-213 586q0 391 224 593t607 201q100 0 198 -13t144 -27l47 -13v-217h-16q-160 66 -365 66q-262 0 -405 -144t-143 -433q0 -291 138 -441t369 -150q104 0 176 21l25 8v397h-274v205z" />
    <glyph glyph-name="H" unicode="H" horiz-adv-x="1605" 
d="M188 1540h275v-635h680v635h274v-1540h-274v696h-680v-696h-275v1540z" />
    <glyph glyph-name="I" unicode="I" horiz-adv-x="651" 
d="M188 1540h275v-1540h-275v1540z" />
    <glyph glyph-name="J" unicode="J" horiz-adv-x="917" 
d="M33 221h16q90 -29 172 -28q133 0 193 86q41 61 41 221v1040h274v-1020q0 -78 -3 -124t-21 -116t-58 -124q-121 -168 -405 -168q-110 0 -185 18l-24 6v209z" />
    <glyph glyph-name="K.alt" unicode="K" horiz-adv-x="1476" 
d="M188 1540h275v-700l647 700h295l-655 -688l700 -852h-340l-647 803v-803h-275v1540z" />
    <glyph glyph-name="L" unicode="L" horiz-adv-x="1101" 
d="M188 1540h275v-1327h610v-213h-885v1540z" />
    <glyph glyph-name="M" unicode="M" horiz-adv-x="2039" 
d="M188 1540h349l491 -1175l479 1175h344v-1540h-270v1204l-455 -1126h-241l-455 1126v-1204h-242v1540z" />
    <glyph glyph-name="N" unicode="N" horiz-adv-x="1622" 
d="M188 1540h267l737 -1094v1094h242v-1540h-242l-762 1114v-1114h-242v1540z" />
    <glyph glyph-name="O" unicode="O" horiz-adv-x="1654" 
d="M827 176q207 0 317 150t110 444t-110 444t-317 150t-317 -150t-109 -444q-1 -294 109 -444t317 -150zM830 1569q342 0 528 -212t186 -586t-188 -587t-532 -213t-528 212q-185 212 -185 586t188 587t531 213z" />
    <glyph glyph-name="P" unicode="P" horiz-adv-x="1347" 
d="M463 1335v-606h160q172 0 245 53q106 78 106 251t-106 249q-74 53 -245 53h-160zM188 1540h418q303 0 447 -86q209 -127 209 -412q0 -150 -62 -262t-168 -174q-141 -82 -430 -82h-139v-524h-275v1540z" />
    <glyph glyph-name="Q" unicode="Q" horiz-adv-x="1654" 
d="M827 176q207 0 317 150t110 444t-110 444t-317 150t-317 -150t-109 -444q-1 -294 109 -444t317 -150zM1544 772q0 -510 -332 -706l226 -308h-312l-151 226q-74 -12 -152 -13q-342 0 -527 212t-185 586t188 587t531 213q342 0 528 -212t186 -585z" />
    <glyph glyph-name="R" unicode="R" horiz-adv-x="1413" 
d="M459 1335v-520h237q143 0 209 45q94 62 94 212t-94 216q-70 47 -209 47h-237zM459 610v-610h-271v1540h512q82 0 132 -3t134 -25q316 -84 316 -424q0 -341 -301 -439l379 -649h-307l-336 610h-258z" />
    <glyph glyph-name="S" unicode="S" horiz-adv-x="1216" 
d="M1034 1290h-16q-182 70 -328 70t-212 -49t-66 -128t51 -135t129 -90q197 -85 336 -175q78 -50 129 -140t51 -211q0 -221 -159 -335t-423 -113q-104 0 -203 17t-147 36l-47 16v217h16q207 -90 366 -90t235 60t75 153q0 94 -71 160q-72 66 -174 112t-205 98
q-102 52 -174 146t-72 230q0 197 142 307t395 110q185 0 325 -43l47 -14v-209z" />
    <glyph glyph-name="T" unicode="T" horiz-adv-x="1224" 
d="M45 1540h1135v-213h-430v-1327h-275v1327h-430v213z" />
    <glyph glyph-name="U" unicode="U" horiz-adv-x="1572" 
d="M188 1540h275v-975q0 -189 74 -289q75 -100 267 -100t266 100t73 289v975h241v-930q0 -92 -4 -149t-32 -149t-86 -160q-154 -180 -476 -180t-475 180q-57 68 -86 160t-33 148q-4 58 -4 150v930z" />
    <glyph glyph-name="V" unicode="V" horiz-adv-x="1445" 
d="M37 1540h299l405 -1237l422 1237h246l-557 -1540h-270z" />
    <glyph glyph-name="W" unicode="W" horiz-adv-x="2138" 
d="M53 1540h291l303 -1196l311 1159h275l311 -1159l303 1196h238l-422 -1540h-279l-315 1171l-315 -1171h-279z" />
    <glyph glyph-name="X" unicode="X" horiz-adv-x="1470" 
d="M74 1540h327l361 -577l360 577h271l-488 -741l520 -799h-331l-385 623l-394 -623h-266l512 791z" />
    <glyph glyph-name="Y" unicode="Y" horiz-adv-x="1355" 
d="M815 0h-274v602l-521 938h320l369 -692l368 692h258l-520 -934v-606z" />
    <glyph glyph-name="Z" unicode="Z" horiz-adv-x="1323" 
d="M1196 1540v-188l-770 -1143h786v-209h-1106v197l766 1134h-741v209h1065z" />
    <glyph glyph-name="bracketleft" unicode="[" horiz-adv-x="839" 
d="M188 1597h541v-196h-299v-1520h299v-196h-541v1912z" />
    <glyph glyph-name="backslash" unicode="\" horiz-adv-x="929" 
d="M668 -57l-631 1654h225l631 -1654h-225z" />
    <glyph glyph-name="bracketright" unicode="]" horiz-adv-x="843" 
d="M655 -315h-540v196h299v1520h-299v196h540v-1912z" />
    <glyph glyph-name="asciicircum" unicode="^" horiz-adv-x="1075" 
d="M983 819h-252l-201 496l-204 -496h-236l316 721h264z" />
    <glyph glyph-name="underscore" unicode="_" horiz-adv-x="778" 
d="M786 -246h-794v185h794v-185z" />
    <glyph glyph-name="grave" unicode="`" 
d="M717 1290h-209l-262 307h295z" />
    <glyph glyph-name="a.alt" unicode="a" horiz-adv-x="1220" 
d="M518 184q229 0 227 303v25h-61q-181 0 -246 -38q-78 -44 -78 -148q0 -60 41 -101t117 -41zM193 885v209q139 49 360 49q299 0 397 -139q61 -86 62 -304v-385q0 -35 3 -57t25 -48t68 -26l59 9v-189q-61 -16 -159 -16q-210 0 -234 200q-31 -96 -119 -150t-213 -54
q-166 0 -263 92t-97 259t143 258t414 91l106 -4q0 82 -5 118t-27 70q-51 74 -199 74q-72 0 -148 -14t-116 -29l-41 -14h-16z" />
    <glyph glyph-name="b" unicode="b" horiz-adv-x="1347" 
d="M694 946q-264 0 -264 -387t264 -387t264 387t-264 387zM168 1597h266v-659q61 213 332 213q223 0 351 -154q128 -153 128 -431t-134 -434t-384 -157q-250 0 -321 193l-70 -168h-168v1597z" />
    <glyph glyph-name="c" unicode="c" horiz-adv-x="1013" 
d="M913 233v-217q-98 -33 -243 -32q-276 0 -422 151q-145 152 -146 426q0 274 144 428t422 154q131 0 217 -25l28 -8v-217h-16q-98 45 -211 45q-147 0 -222 -97t-75 -275t75 -278q75 -99 220 -100q88 0 184 33l29 12h16z" />
    <glyph glyph-name="d" unicode="d" horiz-adv-x="1347" 
d="M653 946q-264 0 -264 -383t264 -383q137 0 201 104t64 281q-1 381 -265 381zM913 1597h267v-1597h-209l-53 188q-27 -98 -114 -155t-224 -58q-229 0 -354 159q-124 159 -124 426t128 429t373 162t310 -193v639z" />
    <glyph glyph-name="e" unicode="e" horiz-adv-x="1216" 
d="M831 672q0 147 -50 221t-163 74t-169 -76t-68 -219h450zM1040 242v-209q-154 -49 -356 -49q-286 0 -434 142t-148 425t138 443t387 161q281 0 401 -197q62 -99 75 -292q3 -61 3 -179h-725q0 -145 83 -226t227 -81t288 45l45 17h16z" />
    <glyph glyph-name="f" unicode="f" horiz-adv-x="917" 
d="M852 913h-320v-913h-266v913h-217v197h217v70q0 180 49 266q92 156 359 156q85 0 157 -13l21 -4v-209h-16q-74 25 -146 25q-102 0 -137 -70q-20 -43 -21 -155v-66h320v-197z" />
    <glyph glyph-name="g.alt" unicode="g" horiz-adv-x="1263" 
d="M608 614q90 0 140 45q49 45 49 131t-49 132q-50 45 -140 45t-139 -45t-49 -131q0 -85 49 -131t139 -46zM711 41h-332q-7 -4 -21 -13t-36 -45t-21 -77q0 -74 68 -109t215 -35q332 0 331 160q1 119 -204 119zM1071 791q0 -165 -126 -265t-337 -100q-88 0 -153 14
q-59 -33 -59 -92t48 -73q50 -13 103 -13h192q198 0 276 -38q113 -54 145 -138q22 -55 22 -127q0 -377 -609 -377q-518 0 -518 273q0 184 219 227q-15 4 -47 23q-98 61 -98 168q0 106 71 150q71 45 140 58q-195 96 -195 310q0 166 126 265t337 99t334 -98q23 67 72 101t83 38
t85 4h24v-221q-41 8 -93 8t-91 -16q49 -82 49 -180z" />
    <glyph glyph-name="h" unicode="h" horiz-adv-x="1302" 
d="M168 1597h266v-647q61 201 320 201q227 0 327 -147q55 -80 64 -208q2 -44 2 -132v-664h-270v668q0 131 -37 184q-57 82 -178 82q-227 0 -228 -246v-688h-266v1597z" />
    <glyph glyph-name="i.round" unicode="i" horiz-adv-x="606" 
d="M170 1126h266v-1126h-266v1126zM303 1606q72 0 117 -46t45 -114t-45 -114t-117 -46t-117 46t-45 114t45 114t117 46z" />
    <glyph glyph-name="j.round" unicode="j" horiz-adv-x="616" 
d="M313 1606q72 0 117 -46t45 -114t-45 -114t-117 -46q-73 0 -117 46t-44 114t44 114t117 46zM-86 -197h16q43 -8 88 -8q100 0 138 66q25 45 24 151v1114h266v-1101q0 -180 -49 -267q-94 -160 -364 -159l-119 8v196z" />
    <glyph glyph-name="k.alt" unicode="k" horiz-adv-x="1247" 
d="M168 1597h266v-983l455 512h295l-475 -508l491 -618h-328l-438 573v-573h-266v1597z" />
    <glyph glyph-name="l" unicode="l" horiz-adv-x="602" 
d="M168 1597h266v-1597h-266v1597z" />
    <glyph glyph-name="m" unicode="m" horiz-adv-x="1953" 
d="M168 1126h209l49 -192q56 217 322 217t346 -225q80 225 327 225q219 0 316 -147q53 -83 59 -208q2 -44 2 -132v-664h-270v668q0 131 -33 184q-51 82 -168 82q-209 0 -209 -246v-688h-270v668q0 131 -33 184q-51 82 -168 82q-209 0 -209 -246v-688h-270v1126z" />
    <glyph glyph-name="n" unicode="n" horiz-adv-x="1306" 
d="M168 1126h209l49 -192q61 217 334 217q225 0 325 -147q58 -85 64 -208q2 -44 2 -132v-664h-270v668q0 131 -37 184q-57 82 -178 82q-227 0 -228 -246v-688h-270v1126z" />
    <glyph glyph-name="o" unicode="o" horiz-adv-x="1306" 
d="M653 164q264 0 265 399q0 399 -265 400q-264 1 -264 -399t264 -400zM1204 565q0 -289 -143 -441t-407 -153q-264 0 -408 151q-144 152 -144 440t144 440t407 153q264 0 408 -150q143 -151 143 -440z" />
    <glyph glyph-name="p" unicode="p" horiz-adv-x="1347" 
d="M958 563q0 383 -263 383t-264 -383t263 -383t264 383zM434 -401h-266v1527h209l53 -188q27 98 114 156t224 57q229 0 353 -159t124 -426t-128 -429q-129 -162 -373 -162t-310 193v-569z" />
    <glyph glyph-name="q" unicode="q" horiz-adv-x="1347" 
d="M653 180q264 0 265 387q0 387 -264 387t-265 -387q0 -387 264 -387zM1180 -401h-267v589q-61 -213 -331 -213q-223 0 -352 154q-128 153 -128 431t134 434t384 157q250 0 322 -193l70 168h168v-1527z" />
    <glyph glyph-name="r" unicode="r" horiz-adv-x="841" 
d="M799 1139v-254q-55 12 -129 12t-128 -27q-104 -52 -104 -239v-631h-270v1126h205l53 -221q29 131 118 182t226 52h29z" />
    <glyph glyph-name="s" unicode="s" horiz-adv-x="1003" 
d="M582 942q-190 0 -191 -104q0 -46 52 -80q52 -35 127 -64q75 -30 150 -68t127 -114t52 -184q0 -172 -124 -258t-337 -86q-86 0 -166 13t-116 28l-35 12v217h16q172 -70 288 -70q204 0 204 115q0 55 -52 94t-127 69t-150 66t-127 108q-52 71 -52 173q0 156 117 245t327 89
q150 0 246 -31l35 -10v-217h-17q-143 57 -247 57z" />
    <glyph glyph-name="t" unicode="t" horiz-adv-x="935" 
d="M831 213v-205q-86 -25 -204 -24q-312 0 -358 213q-15 70 -15 204v512h-205v197h205v291l266 78v-369h311v-197h-311v-507q0 -127 29 -174q29 -48 109 -48t137 21l20 8h16z" />
    <glyph glyph-name="u" unicode="u" horiz-adv-x="1302" 
d="M1135 0h-209l-49 193q-27 -101 -110 -159t-222 -59q-215 0 -312 140q-57 83 -63 214q-2 46 -2 134v663h270v-667q0 -131 37 -185q57 -82 184 -81q205 0 205 245v688h271v-1126z" />
    <glyph glyph-name="v" unicode="v" horiz-adv-x="1253" 
d="M70 1126h303l278 -823l287 823h246l-426 -1126h-266z" />
    <glyph glyph-name="w" unicode="w" horiz-adv-x="1849" 
d="M88 1126h283l213 -823l229 799h266l230 -799l213 823h237l-323 -1126h-279l-233 811l-234 -811h-278z" />
    <glyph glyph-name="x" unicode="x" horiz-adv-x="1239" 
d="M84 1126h332l229 -381l234 381h270l-361 -544l386 -582h-332l-250 406l-250 -406h-270l377 569z" />
    <glyph glyph-name="y.alt" unicode="y" horiz-adv-x="1249" 
d="M293 -410q-79 0 -160 17v213h17q78 -29 148 -29q70 1 121 61q50 60 99 185l-450 1089h303l286 -778l279 778h246l-418 -1101q-32 -85 -54 -135t-63 -116t-86 -99t-117 -59t-151 -26z" />
    <glyph glyph-name="z" unicode="z" horiz-adv-x="1085" 
d="M963 1110v-197l-537 -716h545v-197h-852v213l524 700h-516v197h836z" />
    <glyph glyph-name="braceleft" unicode="{" horiz-adv-x="837" 
d="M727 1597v-196q-121 0 -174 -29t-53 -129v-360q0 -153 -72 -202q-37 -26 -96 -40q119 -28 147 -105q21 -60 21 -137v-360q0 -100 53 -129t174 -29v-196q-98 0 -149 3t-119 22q-68 20 -111 58t-63 92t-24 89q-3 35 -3 96v369q0 82 -42 106t-138 23v196q96 0 138 24t42 105
v369q0 61 3 96t24 89q41 111 174 150q68 19 119 22t149 3z" />
    <glyph glyph-name="bar" unicode="|" horiz-adv-x="630" 
d="M188 1597h254v-1998h-254v1998z" />
    <glyph glyph-name="braceright" unicode="}" horiz-adv-x="837" 
d="M111 1401v196q98 0 149 -3t119 -22q68 -20 111 -58t63 -92q19 -54 23 -89t4 -96v-369q0 -82 42 -106t138 -23v-196q-96 0 -138 -24t-42 -105v-369q0 -61 -3 -96t-23 -89q-42 -111 -175 -150q-68 -19 -119 -22t-149 -3v196q121 0 174 29t53 129v360q0 155 72 202
q37 26 96 40q-118 28 -148 105q-20 57 -20 137v360q0 100 -53 129t-174 29z" />
    <glyph glyph-name="asciitilde" unicode="~" horiz-adv-x="1392" 
d="M1237 760v-221q-10 -15 -47 -46q-117 -98 -257 -99q-101 -1 -183 39t-154 80t-140 40t-138 -40q-71 -40 -105 -79l-37 -41h-20v221q10 15 47 46q117 98 257 99q101 1 183 -39t154 -80q71 -40 139 -40t138 40t106 81l37 39h20z" />
    <glyph glyph-name="nbspace" unicode="&#xa0;" horiz-adv-x="565" 
 />
    <glyph glyph-name="exclamdown.round" unicode="&#xa1;" horiz-adv-x="653" 
d="M307 1139q74 0 116 -42t42 -110q0 -67 -42 -109t-116 -42t-116 42q-41 42 -41 110t41 109q42 42 116 42zM453 -401h-291l31 1091h229z" />
    <glyph glyph-name="cent" unicode="&#xa2;" horiz-adv-x="1101" 
d="M336 645q0 -274 213 -352l59 706q-132 -23 -202 -115t-70 -239zM102 652q0 234 140 375q140 142 381 161l16 221h188l-24 -223q109 -9 174 -27l24 -6v-190h-16q-96 27 -201 38l-61 -731q112 4 223 35l39 10h16v-190q-135 -37 -292 -39l-15 -217h-188l24 231
q-204 42 -316 180t-112 372z" />
    <glyph glyph-name="sterling" unicode="&#xa3;" horiz-adv-x="1142" 
d="M115 627v200h149q-59 123 -59 224q0 172 136 272t361 100q132 0 228 -24l33 -8v-209h-15q-123 41 -246 41q-229 0 -229 -170q0 -59 21 -101t65 -125h365v-200h-297q4 -45 4 -68q0 -244 -193 -354h596v-205h-919v164q250 127 250 358q0 47 -15 105h-235z" />
    <glyph glyph-name="currency" unicode="&#xa4;" horiz-adv-x="1163" 
d="M383 700q0 -100 53 -159q54 -59 146 -59t145 58q53 60 53 160t-53 160t-145 60t-146 -60t-53 -160zM190 699q0 114 50 200l-138 135l150 146l131 -140q88 47 198 47t197 -47l133 140l150 -146l-137 -135q49 -92 49 -200t-49 -199l137 -133l-150 -146l-133 139
q-88 -47 -198 -47t-197 47l-131 -139l-150 146l138 133q-50 85 -50 199z" />
    <glyph glyph-name="yen" unicode="&#xa5;" horiz-adv-x="1380" 
d="M1149 276h-330v-276h-258v276h-330v166h330v140h-330v166h283l-440 661h299l340 -543l342 543h252l-443 -661h285v-166h-330v-140h330v-166z" />
    <glyph glyph-name="brokenbar" unicode="&#xa6;" horiz-adv-x="630" 
d="M188 369h254v-770h-254v770zM188 1597h254v-770h-254v770z" />
    <glyph glyph-name="section" unicode="&#xa7;" horiz-adv-x="1048" 
d="M319 664q0 -54 41 -100t87 -70t101 -50q55 -24 66 -30q111 61 111 153t-91 149t-206 99q-109 -51 -109 -151zM147 33h17q156 -57 276 -57t169 28q50 29 50 82t-57 95t-139 76t-164 75q-82 42 -139 114q-58 72 -58 152q-1 214 211 270q-182 102 -182 258q0 135 116 217
t322 82q141 0 279 -32l41 -13v-192h-17q-158 57 -274 57q-214 0 -213 -104q0 -88 198 -166q83 -33 166 -74t140 -113t57 -167q0 -197 -219 -263q186 -102 186 -264q-1 -137 -117 -218t-304 -81t-306 33l-39 12v193z" />
    <glyph glyph-name="dieresis" unicode="&#xa8;" 
d="M707 1540h239v-233h-239v233zM283 1540h239v-233h-239v233z" />
    <glyph glyph-name="copyright" unicode="&#xa9;" horiz-adv-x="1828" 
d="M295 705q0 -250 157 -412q156 -162 416 -162t416 162t156 412q0 251 -156 413t-416 162t-416 -162t-157 -413zM111 705q0 327 210 529q209 202 547 202t547 -203t209 -529t-210 -528q-210 -203 -548 -203t-547 203q-208 203 -208 529zM1126 506v-178q-94 -37 -215 -37
q-186 0 -309 106q-123 107 -123 309t123 308t309 106q101 0 189 -26l26 -11v-180h-16q-78 35 -172 35q-225 0 -225 -233t225 -234q88 0 149 25l23 10h16z" />
    <glyph glyph-name="ordfeminine" unicode="&#xaa;" horiz-adv-x="888" 
d="M289 1028q0 -92 119 -92q63 0 100 29t46 59t9 61v52q-158 -1 -184 -11t-49 -21q-41 -20 -41 -77zM143 1368v158q119 33 283 33q231 0 307 -105q47 -68 47 -225v-438h-168l-37 122q-45 -139 -235 -139q-123 0 -198 62q-74 62 -74 180q0 119 108 180q85 49 240 55
q51 2 147 2q0 80 -20 107q-37 47 -153 47t-200 -29l-30 -10h-17z" />
    <glyph glyph-name="guillemotleft" unicode="&#xab;" 
d="M602 641l262 440h250l-278 -436l278 -444h-250zM115 641l262 440h250l-279 -436l279 -444h-250z" />
    <glyph glyph-name="logicalnot" unicode="&#xac;" horiz-adv-x="1392" 
d="M1106 283h-234v389h-716v200h950v-589z" />
    <glyph glyph-name="softhyphen" unicode="&#xad;" horiz-adv-x="905" 
d="M782 537h-659v208h659v-208z" />
    <glyph glyph-name="registered" unicode="&#xae;" horiz-adv-x="1171" 
d="M520 1438v-135h66q78 0 78 65q0 70 -78 70h-66zM520 1200v-156h-139v496h180q127 0 184 -40t57 -136t-89 -139l106 -181h-155l-78 156h-66zM225 1286q-1 -156 97 -254t263 -98t263 98t98 254t-98 254t-263 98t-263 -98t-97 -254zM86 1284q0 215 139 346t361 131t360 -131
q139 -131 139 -346t-139 -344t-360 -129t-361 129q-139 129 -139 344z" />
    <glyph glyph-name="macron" unicode="&#xaf;" 
d="M295 1475h639v-164h-639v164z" />
    <glyph glyph-name="degree" unicode="&#xb0;" horiz-adv-x="1028" 
d="M332 1260q0 -82 50 -136t132 -53q82 0 132 53q50 54 50 136t-50 135t-132 53t-132 -53t-50 -135zM143 1260q1 154 105 250t266 96t266 -96t104 -250t-104 -250t-266 -96t-266 96t-105 250z" />
    <glyph glyph-name="plusminus" unicode="&#xb1;" horiz-adv-x="1392" 
d="M1184 0h-975v180h975v-180zM803 303h-213v322h-381v180h381v321h213v-321h381v-180h-381v-322z" />
    <glyph glyph-name="two.superior" unicode="&#xb2;" horiz-adv-x="804" 
d="M711 881v-172h-619v149q20 20 102 95t134 128q53 53 97 121t44 123q0 119 -156 119q-84 0 -170 -25l-28 -8h-11v166q108 31 264 31t245 -69t89 -192t-119 -248q-65 -68 -144 -134q-78 -66 -99 -84h371z" />
    <glyph glyph-name="three.superior" unicode="&#xb3;" horiz-adv-x="806" 
d="M285 1249q178 0 178 101q0 94 -144 94q-90 0 -176 -25l-28 -8h-11v166q104 31 256 31t243 -60t91 -170q0 -162 -184 -202q92 -14 148 -70t57 -143q-1 -123 -107 -194t-291 -71q-120 0 -198 23l-25 8v166h10q106 -33 207 -33q172 0 172 109q0 59 -48 86t-150 26h-105v166
h105z" />
    <glyph glyph-name="acute" unicode="&#xb4;" 
d="M721 1290h-209l176 307h295z" />
    <glyph glyph-name="mu" unicode="&#xb5;" horiz-adv-x="1304" 
d="M168 -401v1527h270v-675q0 -137 37 -191q55 -80 178 -80q213 0 213 248v698h271v-1126h-199l-35 141q-19 -71 -81 -115t-158 -44q-160 0 -236 124l6 -507h-266z" />
    <glyph glyph-name="mu" unicode="&#x3bc;" horiz-adv-x="1304" 
d="M168 -401v1527h270v-675q0 -137 37 -191q55 -80 178 -80q213 0 213 248v698h271v-1126h-199l-35 141q-19 -71 -81 -115t-158 -44q-160 0 -236 124l6 -507h-266z" />
    <glyph glyph-name="paragraph" unicode="&#xb6;" horiz-adv-x="1712" 
d="M786 635v573h-139q-152 0 -213 -45q-98 -71 -98 -241t98 -242q61 -45 213 -45h139zM1020 -188h-234v622h-114q-274 0 -402 82q-184 121 -184 393q0 145 55 255q112 224 397 243q46 2 126 2h827v-1597h-234v1396h-237v-1396z" />
    <glyph glyph-name="periodcentered.round" unicode="&#xb7;" horiz-adv-x="356" 
d="M178 733q74 0 117 -44t43 -116q0 -71 -43 -115t-117 -44t-117 44t-43 116t43 115q43 44 117 44z" />
    <glyph glyph-name="cedilla" unicode="&#xb8;" horiz-adv-x="1239" 
d="M799 -190q0 -94 -79 -154t-224 -62l-111 9v151h16q49 -12 95 -12q119 0 118 96q0 62 -82 162h132q135 -68 135 -190z" />
    <glyph glyph-name="one.superior" unicode="&#xb9;" horiz-adv-x="618" 
d="M483 709h-219v698l-190 -59h-11v165l275 84h145v-888z" />
    <glyph glyph-name="ordmasculine" unicode="&#xba;" horiz-adv-x="954" 
d="M478 926q177 0 177 244t-177 243q-177 1 -177 -243t177 -244zM885 1171q0 -195 -108 -298q-109 -103 -303 -103t-299 101t-105 296t106 298t301 103t301 -100q106 -102 107 -297z" />
    <glyph glyph-name="guillemotright" unicode="&#xbb;" 
d="M627 641l-262 -440h-250l278 436l-278 444h250zM1114 641l-262 -440h-250l279 436l-279 444h250z" />
    <glyph glyph-name="onequarter" unicode="&#xbc;" horiz-adv-x="1974" 
d="M1548 166v375l-274 -375h274zM1886 0h-145v-188h-193v188h-446v176l403 569h236v-579h145v-166zM100 -188v16l762 930l649 839h244v-16l-762 -930l-649 -839h-244zM545 664h-219v745l-242 -84h-16v164l329 108h148v-933z" />
    <glyph glyph-name="onehalf" unicode="&#xbd;" horiz-adv-x="1994" 
d="M1892 -23v-165h-653v143q261 237 294 280q92 120 103 158q12 37 13 72q0 131 -162 131q-81 0 -168 -27l-31 -8h-16v164q114 33 272 33t245 -73t87 -196q0 -85 -41 -164q-41 -80 -130 -162q-88 -81 -208 -186h395zM100 -188v16l762 930l649 839h244v-16l-762 -930
l-649 -839h-244zM545 664h-219v745l-242 -84h-16v164l329 108h148v-933z" />
    <glyph glyph-name="threequarters" unicode="&#xbe;" horiz-adv-x="2086" 
d="M1661 166v375l-275 -375h275zM1999 0h-146v-188h-192v188h-447v176l404 569h235v-579h146v-166zM213 -188v16l762 930l649 839h244v-16l-762 -930l-649 -839h-244zM193 1065v156h122q199 1 199 115t-166 114q-98 0 -184 -25l-29 -10h-16v162q113 33 271 33t253 -65
q96 -65 96 -164q0 -187 -200 -228q100 -13 159 -73t60 -152q0 -127 -111 -202t-301 -75q-132 0 -207 25l-28 8v162h16q104 -35 213 -35q193 0 192 129q0 125 -213 125h-126z" />
    <glyph glyph-name="questiondown.round" unicode="&#xbf;" horiz-adv-x="974" 
d="M909 -150v-210q-155 -58 -397 -58t-377 102t-135 285q0 141 65 220t136 134q71 57 107 89t61 82t28 87q4 36 4 109h244q0 -92 -5 -142t-39 -120t-103 -133q-14 -14 -68 -58t-79 -70t-51 -75t-26 -102q0 -96 74 -150t211 -53q76 0 159 16t130 33l45 14h16zM522 836
q-74 0 -116 42t-41 110q0 68 42 109q41 42 115 42t116 -42t42 -110q0 -67 -42 -109t-116 -42z" />
    <glyph glyph-name="Agrave" unicode="&#xc0;" horiz-adv-x="1433" 
d="M819 1708h-231l-312 272h332zM700 1253l-227 -663h449zM1413 0h-295l-129 385h-588l-131 -385h-250l558 1540h286z" />
    <glyph glyph-name="Aacute" unicode="&#xc1;" horiz-adv-x="1433" 
d="M829 1708h-231l211 272h332zM700 1253l-227 -663h449zM1413 0h-295l-129 385h-588l-131 -385h-250l558 1540h286z" />
    <glyph glyph-name="Acircumflex" unicode="&#xc2;" horiz-adv-x="1433" 
d="M575 1980h267l237 -272h-237l-140 152l-137 -152h-227zM700 1253l-227 -663h449zM1413 0h-295l-129 385h-588l-131 -385h-250l558 1540h286z" />
    <glyph glyph-name="Atilde" unicode="&#xc3;" horiz-adv-x="1433" 
d="M365 1708v158q86 82 217 82q66 0 162 -36t142 -36q44 0 91 17t72 36l24 19h17v-158q-86 -82 -218 -82q-66 0 -162 36t-142 36q-44 0 -91 -18t-71 -36l-25 -18h-16zM700 1253l-227 -663h449zM1413 0h-295l-129 385h-588l-131 -385h-250l558 1540h286z" />
    <glyph glyph-name="Adieresis.round" unicode="&#xc4;" horiz-adv-x="1433" 
d="M938 1960q63 0 101 -37t38 -98t-38 -99t-101 -36q-63 0 -101 36t-38 98t38 99t101 37zM479 1960q63 0 101 -37t38 -98t-37 -99q-37 -36 -101 -36t-102 36t-38 98t38 99t101 37zM700 1253l-227 -663h449zM1413 0h-295l-129 385h-588l-131 -385h-250l558 1540h286z" />
    <glyph glyph-name="Aring" unicode="&#xc5;" horiz-adv-x="1433" 
d="M588 1686q0 -54 33 -88t88 -34t88 34t33 88t-33 87t-88 33t-88 -34t-33 -86zM700 1253l-227 -663h449zM422 1696q0 118 82 188t205 70t205 -70t81 -200q0 -130 -114 -191l532 -1493h-295l-129 385h-588l-131 -385h-250l537 1485q-135 59 -135 211z" />
    <glyph glyph-name="AE" unicode="&#xc6;" horiz-adv-x="2000" 
d="M967 586v704l-389 -704h389zM1862 1540v-207h-637v-430h538v-207h-538v-489h669v-207h-927v393h-496l-217 -393h-256l876 1540h988z" />
    <glyph glyph-name="Ccedilla" unicode="&#xc7;" horiz-adv-x="1302" 
d="M1192 246v-213q-117 -41 -283 -47q107 -70 107 -170t-79 -160t-224 -62l-111 9v151h16q49 -12 95 -12q119 0 118 96q0 59 -73 152q-322 28 -485 244t-163 549t189 553q188 220 561 220q174 0 291 -36l41 -13v-213h-16q-133 57 -293 58q-242 0 -362 -160t-120 -416
t122 -422t364 -166q132 0 252 43l37 15h16z" />
    <glyph glyph-name="Egrave" unicode="&#xc8;" horiz-adv-x="1249" 
d="M758 1708h-232l-311 272h332zM188 1540h922v-209h-651v-426h553v-209h-553v-487h684v-209h-955v1540z" />
    <glyph glyph-name="Eacute" unicode="&#xc9;" horiz-adv-x="1249" 
d="M768 1708h-231l211 272h331zM188 1540h922v-209h-651v-426h553v-209h-553v-487h684v-209h-955v1540z" />
    <glyph glyph-name="Ecircumflex" unicode="&#xca;" horiz-adv-x="1249" 
d="M514 1980h266l238 -272h-238l-139 152l-137 -152h-228zM188 1540h922v-209h-651v-426h553v-209h-553v-487h684v-209h-955v1540z" />
    <glyph glyph-name="Edieresis.round" unicode="&#xcb;" horiz-adv-x="1249" 
d="M850 1960q63 0 101 -37t38 -98t-38 -99t-101 -36q-63 0 -101 36t-38 98t38 99t101 37zM444 1960q64 0 102 -37t38 -98t-38 -99t-102 -36q-64 0 -101 36q-38 36 -38 98t38 99t101 37zM188 1540h922v-209h-651v-426h553v-209h-553v-487h684v-209h-955v1540z" />
    <glyph glyph-name="Igrave" unicode="&#xcc;" horiz-adv-x="651" 
d="M434 1708h-231l-312 272h332zM188 1540h275v-1540h-275v1540z" />
    <glyph glyph-name="Iacute" unicode="&#xcd;" horiz-adv-x="651" 
d="M444 1708h-231l211 272h332zM188 1540h275v-1540h-275v1540z" />
    <glyph glyph-name="Icircumflex" unicode="&#xce;" horiz-adv-x="651" 
d="M190 1980h267l237 -272h-237l-140 152l-137 -152h-227zM188 1540h275v-1540h-275v1540z" />
    <glyph glyph-name="Idieresis.round" unicode="&#xcf;" horiz-adv-x="651" 
d="M526 1960q64 0 102 -37t38 -98t-38 -99t-102 -36q-64 0 -101 36q-38 36 -38 98t38 99t101 37zM121 1960q63 0 101 -37t38 -98t-38 -99t-101 -36q-63 0 -102 36q-37 36 -37 98t37 99q39 37 102 37zM188 1540h275v-1540h-275v1540z" />
    <glyph glyph-name="Eth" unicode="&#xd0;" horiz-adv-x="1640" 
d="M520 1335v-432h334v-207h-334v-491h176q219 0 328 63q217 125 217 505t-221 501q-111 61 -324 61h-176zM250 1540h430q109 0 172 -3q62 -3 168 -28q508 -120 510 -739q0 -481 -328 -668q-84 -48 -186 -72t-166 -27t-170 -3h-430v696h-213v207h213v637z" />
    <glyph glyph-name="Ntilde" unicode="&#xd1;" horiz-adv-x="1622" 
d="M467 1708v158q86 82 217 82q66 0 163 -36t141 -36t91 17t72 36l25 19h16v-158q-86 -82 -217 -82q-66 0 -163 36t-141 36t-91 -18t-72 -36l-25 -18h-16zM188 1540h267l737 -1094v1094h242v-1540h-242l-762 1114v-1114h-242v1540z" />
    <glyph glyph-name="Ograve" unicode="&#xd2;" horiz-adv-x="1654" 
d="M938 1708h-231l-312 272h332zM827 176q207 0 317 150t110 444t-110 444t-317 150t-317 -150t-109 -444q-1 -294 109 -444t317 -150zM830 1569q342 0 528 -212t186 -586t-188 -587t-532 -213t-528 212q-185 212 -185 586t188 587t531 213z" />
    <glyph glyph-name="Oacute" unicode="&#xd3;" horiz-adv-x="1654" 
d="M948 1708h-231l211 272h332zM827 176q207 0 317 150t110 444t-110 444t-317 150t-317 -150t-109 -444q-1 -294 109 -444t317 -150zM830 1569q342 0 528 -212t186 -586t-188 -587t-532 -213t-528 212q-185 212 -185 586t188 587t531 213z" />
    <glyph glyph-name="Ocircumflex" unicode="&#xd4;" horiz-adv-x="1654" 
d="M694 1980h267l237 -272h-237l-140 152l-137 -152h-227zM827 176q207 0 317 150t110 444t-110 444t-317 150t-317 -150t-109 -444q-1 -294 109 -444t317 -150zM830 1569q342 0 528 -212t186 -586t-188 -587t-532 -213t-528 212q-185 212 -185 586t188 587t531 213z" />
    <glyph glyph-name="Otilde" unicode="&#xd5;" horiz-adv-x="1654" 
d="M483 1708v158q86 82 217 82q66 0 163 -36t141 -36t92 17q47 17 71 36l25 19h16v-158q-86 -82 -217 -82q-66 0 -163 36t-141 36t-91 -18t-72 -36l-24 -18h-17zM827 176q207 0 317 150t110 444t-110 444t-317 150t-317 -150t-109 -444q-1 -294 109 -444t317 -150zM830 1569
q342 0 528 -212t186 -586t-188 -587t-532 -213t-528 212q-185 212 -185 586t188 587t531 213z" />
    <glyph glyph-name="Odieresis.round" unicode="&#xd6;" horiz-adv-x="1654" 
d="M1057 1960q63 0 101 -37t38 -98t-38 -99t-101 -36q-63 0 -102 36q-37 36 -37 98t37 99q39 37 102 37zM598 1960q63 0 101 -37t38 -98t-38 -99t-101 -36q-63 0 -101 36t-38 98t38 99t101 37zM827 176q207 0 317 150t110 444t-110 444t-317 150t-317 -150t-109 -444
q-1 -294 109 -444t317 -150zM830 1569q342 0 528 -212t186 -586t-188 -587t-532 -213t-528 212q-185 212 -185 586t188 587t531 213z" />
    <glyph glyph-name="multiply" unicode="&#xd7;" horiz-adv-x="1392" 
d="M1194 236l-160 -154l-344 356l-344 -356l-147 145l352 346l-352 345l159 153l344 -356l345 356l147 -145l-352 -346z" />
    <glyph glyph-name="Oslash" unicode="&#xd8;" horiz-adv-x="1654" 
d="M827 164q215 0 329 152t114 454q0 231 -70 377l-633 -903q100 -80 260 -80zM385 770q0 -233 68 -379l634 903q-102 82 -260 82q-215 0 -329 -152t-113 -454zM1544 770q0 -373 -187 -586t-530 -213q-223 0 -387 95l-86 -123h-256l195 243q-182 211 -182 584t188 586
t530 213q219 0 383 -96l88 124h256l-196 -245q184 -209 184 -582z" />
    <glyph glyph-name="Ugrave" unicode="&#xd9;" horiz-adv-x="1572" 
d="M897 1708h-231l-312 272h332zM188 1540h275v-975q0 -189 74 -289q75 -100 267 -100t266 100t73 289v975h241v-930q0 -92 -4 -149t-32 -149t-86 -160q-154 -180 -476 -180t-475 180q-57 68 -86 160t-33 148q-4 58 -4 150v930z" />
    <glyph glyph-name="Uacute" unicode="&#xda;" horiz-adv-x="1572" 
d="M907 1708h-231l211 272h332zM188 1540h275v-975q0 -189 74 -289q75 -100 267 -100t266 100t73 289v975h241v-930q0 -92 -4 -149t-32 -149t-86 -160q-154 -180 -476 -180t-475 180q-57 68 -86 160t-33 148q-4 58 -4 150v930z" />
    <glyph glyph-name="Ucircumflex" unicode="&#xdb;" horiz-adv-x="1572" 
d="M653 1980h267l237 -272h-237l-140 152l-137 -152h-227zM188 1540h275v-975q0 -189 74 -289q75 -100 267 -100t266 100t73 289v975h241v-930q0 -92 -4 -149t-32 -149t-86 -160q-154 -180 -476 -180t-475 180q-57 68 -86 160t-33 148q-4 58 -4 150v930z" />
    <glyph glyph-name="Udieresis.round" unicode="&#xdc;" horiz-adv-x="1572" 
d="M1016 1960q63 0 101 -37t38 -98t-38 -99t-101 -36q-63 0 -102 36q-38 36 -38 98t38 99q39 37 102 37zM557 1960q63 0 101 -37t38 -98t-38 -99t-101 -36q-63 0 -101 36t-38 98t38 99t101 37zM188 1540h275v-975q0 -189 74 -289q75 -100 267 -100t266 100t73 289v975h241
v-930q0 -92 -4 -149t-32 -149t-86 -160q-154 -180 -476 -180t-475 180q-57 68 -86 160t-33 148q-4 58 -4 150v930z" />
    <glyph glyph-name="Yacute" unicode="&#xdd;" horiz-adv-x="1355" 
d="M821 1708h-231l211 272h332zM815 0h-274v602l-521 938h320l369 -692l368 692h258l-520 -934v-606z" />
    <glyph glyph-name="Thorn" unicode="&#xde;" horiz-adv-x="1347" 
d="M463 1077v-606h160q170 0 243 51q109 76 109 252t-109 252q-74 51 -243 51h-160zM188 1540h275v-258h141q305 0 447 -86q211 -127 211 -420t-232 -428q-139 -82 -428 -82h-139v-266h-275v1540z" />
    <glyph glyph-name="germandbls" unicode="&#xdf;" horiz-adv-x="1339" 
d="M434 0h-266v1073q0 149 14 216q14 68 39 116q109 197 436 197q231 0 351 -96t118 -242q0 -145 -88 -228q-38 -34 -74 -64q-89 -72 -88 -121q2 -48 40 -87t94 -75t113 -80q55 -45 95 -117t39 -164q-1 -166 -119 -255t-317 -89q-117 0 -198 24l-25 8v193h16
q111 -41 209 -41q164 0 164 125q0 97 -133 186q-55 37 -111 78q-55 41 -94 106t-39 145t39 142q39 61 84 93q123 87 123 188q0 76 -55 125t-150 49q-135 0 -188 -107q-29 -57 -29 -217v-1081z" />
    <glyph glyph-name="agrave.alt" unicode="&#xe0;" horiz-adv-x="1220" 
d="M672 1290h-209l-262 307h295zM518 184q229 0 227 303v25h-61q-181 0 -246 -38q-78 -44 -78 -148q0 -60 41 -101t117 -41zM193 885v209q139 49 360 49q299 0 397 -139q61 -86 62 -304v-385q0 -35 3 -57t25 -48t68 -26l59 9v-189q-61 -16 -159 -16q-210 0 -234 200
q-31 -96 -119 -150t-213 -54q-166 0 -263 92t-97 259t143 258t414 91l106 -4q0 82 -5 118t-27 70q-51 74 -199 74q-72 0 -148 -14t-116 -29l-41 -14h-16z" />
    <glyph glyph-name="aacute.alt" unicode="&#xe1;" horiz-adv-x="1220" 
d="M676 1290h-209l176 307h295zM518 184q229 0 227 303v25h-61q-181 0 -246 -38q-78 -44 -78 -148q0 -60 41 -101t117 -41zM193 885v209q139 49 360 49q299 0 397 -139q61 -86 62 -304v-385q0 -35 3 -57t25 -48t68 -26l59 9v-189q-61 -16 -159 -16q-210 0 -234 200
q-31 -96 -119 -150t-213 -54q-166 0 -263 92t-97 259t143 258t414 91l106 -4q0 82 -5 118t-27 70q-51 74 -199 74q-72 0 -148 -14t-116 -29l-41 -14h-16z" />
    <glyph glyph-name="acircumflex.alt" unicode="&#xe2;" horiz-adv-x="1220" 
d="M459 1597h221l238 -307h-218l-137 172l-137 -172h-205zM518 184q229 0 227 303v25h-61q-181 0 -246 -38q-78 -44 -78 -148q0 -60 41 -101t117 -41zM193 885v209q139 49 360 49q299 0 397 -139q61 -86 62 -304v-385q0 -35 3 -57t25 -48t68 -26l59 9v-189q-61 -16 -159 -16
q-210 0 -234 200q-31 -96 -119 -150t-213 -54q-166 0 -263 92t-97 259t143 258t414 91l106 -4q0 82 -5 118t-27 70q-51 74 -199 74q-72 0 -148 -14t-116 -29l-41 -14h-16z" />
    <glyph glyph-name="atilde.alt" unicode="&#xe3;" horiz-adv-x="1220" 
d="M248 1303v153q25 31 86 59q61 27 115 27q55 0 145 -38t131 -38t83 18t64 40l23 18h16v-153q-25 -31 -86 -59t-116 -28t-145 38t-130 38q-41 0 -83 -19t-64 -38l-23 -18h-16zM518 184q229 0 227 303v25h-61q-181 0 -246 -38q-78 -44 -78 -148q0 -60 41 -101t117 -41z
M193 885v209q139 49 360 49q299 0 397 -139q61 -86 62 -304v-385q0 -35 3 -57t25 -48t68 -26l59 9v-189q-61 -16 -159 -16q-210 0 -234 200q-31 -96 -119 -150t-213 -54q-166 0 -263 92t-97 259t143 258t414 91l106 -4q0 82 -5 118t-27 70q-51 74 -199 74q-72 0 -148 -14
t-116 -29l-41 -14h-16z" />
    <glyph glyph-name="adieresis.round.alt" unicode="&#xe4;" horiz-adv-x="1220" 
d="M782 1554q61 0 100 -36q38 -36 38 -96t-37 -96t-101 -36t-100 36q-37 36 -37 95t38 96t99 37zM356 1554q61 0 100 -36q38 -36 38 -96t-37 -96t-101 -36t-100 36q-37 36 -37 95t38 96t99 37zM518 184q229 0 227 303v25h-61q-181 0 -246 -38q-78 -44 -78 -148
q0 -60 41 -101t117 -41zM193 885v209q139 49 360 49q299 0 397 -139q61 -86 62 -304v-385q0 -35 3 -57t25 -48t68 -26l59 9v-189q-61 -16 -159 -16q-210 0 -234 200q-31 -96 -119 -150t-213 -54q-166 0 -263 92t-97 259t143 258t414 91l106 -4q0 82 -5 118t-27 70
q-51 74 -199 74q-72 0 -148 -14t-116 -29l-41 -14h-16z" />
    <glyph glyph-name="aring.alt" unicode="&#xe5;" horiz-adv-x="1220" 
d="M465 1458q0 -45 28 -74q29 -28 77 -28t76 28t28 74q0 45 -28 74t-77 29t-77 -29t-27 -74zM307 1458q0 96 70 156q71 60 193 61q122 0 192 -60q70 -61 70 -157t-70 -156t-193 -60t-193 60t-69 156zM518 184q229 0 227 303v25h-61q-181 0 -246 -38q-78 -44 -78 -148
q0 -60 41 -101t117 -41zM193 885v209q139 49 360 49q299 0 397 -139q61 -86 62 -304v-385q0 -35 3 -57t25 -48t68 -26l59 9v-189q-61 -16 -159 -16q-210 0 -234 200q-31 -96 -119 -150t-213 -54q-166 0 -263 92t-97 259t143 258t414 91l106 -4q0 82 -5 118t-27 70
q-51 74 -199 74q-72 0 -148 -14t-116 -29l-41 -14h-16z" />
    <glyph glyph-name="ae" unicode="&#xe6;" horiz-adv-x="1871" 
d="M766 508q-242 0 -322 -42t-79 -124q0 -162 170 -162q141 0 198 107q33 66 33 196v25zM1487 672q0 143 -50 215t-163 71q-226 1 -238 -286h451zM86 313q0 281 307 338q96 17 167 21t206 4q0 141 -33 192q-51 78 -206 78t-279 -43l-43 -14h-17v209q162 45 363 45
q299 0 387 -148q100 152 364 152t381 -193q66 -105 75 -289q3 -60 3 -178h-725q0 -145 83 -226t227 -81t288 43l45 15h17v-205q-152 -49 -355 -49q-385 -1 -485 249q-86 -250 -391 -249q-178 0 -279 86q-100 86 -100 243z" />
    <glyph glyph-name="ccedilla" unicode="&#xe7;" horiz-adv-x="1013" 
d="M913 233v-217q-84 -27 -208 -32q106 -64 106 -166t-79 -162t-224 -62l-111 9v151h17q49 -12 94 -12q119 0 119 96q0 63 -76 154q-221 31 -335 178t-114 406t144 413t422 154q131 0 217 -25l28 -8v-217h-16q-98 45 -211 45q-147 0 -222 -97t-75 -275t75 -278
q75 -99 220 -100q88 0 184 33l29 12h16z" />
    <glyph glyph-name="egrave" unicode="&#xe8;" horiz-adv-x="1216" 
d="M713 1290h-209l-262 307h295zM831 672q0 147 -50 221t-163 74t-169 -76t-68 -219h450zM1040 242v-209q-154 -49 -356 -49q-286 0 -434 142t-148 425t138 443t387 161q281 0 401 -197q62 -99 75 -292q3 -61 3 -179h-725q0 -145 83 -226t227 -81t288 45l45 17h16z" />
    <glyph glyph-name="eacute" unicode="&#xe9;" horiz-adv-x="1216" 
d="M717 1290h-209l176 307h295zM831 672q0 147 -50 221t-163 74t-169 -76t-68 -219h450zM1040 242v-209q-154 -49 -356 -49q-286 0 -434 142t-148 425t138 443t387 161q281 0 401 -197q62 -99 75 -292q3 -61 3 -179h-725q0 -145 83 -226t227 -81t288 45l45 17h16z" />
    <glyph glyph-name="ecircumflex" unicode="&#xea;" horiz-adv-x="1216" 
d="M500 1597h221l237 -307h-217l-137 172l-137 -172h-205zM831 672q0 147 -50 221t-163 74t-169 -76t-68 -219h450zM1040 242v-209q-154 -49 -356 -49q-286 0 -434 142t-148 425t138 443t387 161q281 0 401 -197q62 -99 75 -292q3 -61 3 -179h-725q0 -145 83 -226t227 -81
t288 45l45 17h16z" />
    <glyph glyph-name="edieresis.round" unicode="&#xeb;" horiz-adv-x="1216" 
d="M823 1554q61 0 100 -36q38 -36 38 -96t-37 -96q-36 -36 -100 -36t-101 36t-37 95t38 96t99 37zM397 1554q61 0 100 -36q38 -36 38 -96t-37 -96q-36 -36 -100 -36t-101 36t-37 95t38 96t99 37zM831 672q0 147 -50 221t-163 74t-169 -76t-68 -219h450zM1040 242v-209
q-154 -49 -356 -49q-286 0 -434 142t-148 425t138 443t387 161q281 0 401 -197q62 -99 75 -292q3 -61 3 -179h-725q0 -145 83 -226t227 -81t288 45l45 17h16z" />
    <glyph glyph-name="igrave" unicode="&#xec;" horiz-adv-x="602" 
d="M403 1290h-208l-263 307h295zM168 1126h266v-1126h-266v1126z" />
    <glyph glyph-name="iacute" unicode="&#xed;" horiz-adv-x="602" 
d="M408 1290h-209l176 307h295zM168 1126h266v-1126h-266v1126z" />
    <glyph glyph-name="icircumflex" unicode="&#xee;" horiz-adv-x="602" 
d="M190 1597h222l237 -307h-217l-137 172l-137 -172h-205zM168 1126h266v-1126h-266v1126z" />
    <glyph glyph-name="idieresis.round" unicode="&#xef;" horiz-adv-x="602" 
d="M498 1554q61 0 98 -36t37 -96t-37 -96t-98 -36t-99 36q-37 36 -37 95t37 97q38 36 99 36zM104 1554q61 0 99 -36q37 -36 37 -96t-37 -96t-99 -36t-98 36q-37 36 -37 95t37 96t98 37zM168 1126h266v-1126h-266v1126z" />
    <glyph glyph-name="eth" unicode="&#xf0;" horiz-adv-x="1296" 
d="M643 795q-119 0 -189 -86q-70 -85 -69 -229q0 -144 70 -230q71 -86 189 -86t188 86t69 229q1 143 -69 229t-189 87zM630 -29q-236 1 -382 139t-146 361t140 365t352 143q213 0 303 -180q-37 201 -215 407l-317 -153v143l225 109q-80 75 -172 145t-144 100l-53 31v16h340
q117 -61 250 -186l295 141v-139l-203 -98q276 -319 277 -711q0 -309 -168 -481q-146 -152 -382 -152z" />
    <glyph glyph-name="ntilde" unicode="&#xf1;" horiz-adv-x="1306" 
d="M330 1303v153q25 31 86 59q61 27 115 27q55 0 145 -38t131 -38t83 18t64 40l23 18h16v-153q-25 -31 -86 -59t-116 -28t-145 38t-130 38q-41 0 -83 -19t-64 -38l-23 -18h-16zM168 1126h209l49 -192q61 217 334 217q225 0 325 -147q58 -85 64 -208q2 -44 2 -132v-664h-270
v668q0 131 -37 184q-57 82 -178 82q-227 0 -228 -246v-688h-270v1126z" />
    <glyph glyph-name="ograve" unicode="&#xf2;" horiz-adv-x="1306" 
d="M754 1290h-209l-262 307h295zM653 164q264 0 265 399q0 399 -265 400q-264 1 -264 -399t264 -400zM1204 565q0 -289 -143 -441t-407 -153q-264 0 -408 151q-144 152 -144 440t144 440t407 153q264 0 408 -150q143 -151 143 -440z" />
    <glyph glyph-name="oacute" unicode="&#xf3;" horiz-adv-x="1306" 
d="M758 1290h-209l176 307h295zM653 164q264 0 265 399q0 399 -265 400q-264 1 -264 -399t264 -400zM1204 565q0 -289 -143 -441t-407 -153q-264 0 -408 151q-144 152 -144 440t144 440t407 153q264 0 408 -150q143 -151 143 -440z" />
    <glyph glyph-name="ocircumflex" unicode="&#xf4;" horiz-adv-x="1306" 
d="M541 1597h221l237 -307h-217l-137 172l-137 -172h-205zM653 164q264 0 265 399q0 399 -265 400q-264 1 -264 -399t264 -400zM1204 565q0 -289 -143 -441t-407 -153q-264 0 -408 151q-144 152 -144 440t144 440t407 153q264 0 408 -150q143 -151 143 -440z" />
    <glyph glyph-name="otilde" unicode="&#xf5;" horiz-adv-x="1306" 
d="M330 1303v153q25 31 86 59q61 27 115 27q55 0 145 -38t131 -38t83 18t64 40l23 18h16v-153q-25 -31 -86 -59t-116 -28t-145 38t-130 38q-41 0 -83 -19t-64 -38l-23 -18h-16zM653 164q264 0 265 399q0 399 -265 400q-264 1 -264 -399t264 -400zM1204 565q0 -289 -143 -441
t-407 -153q-264 0 -408 151q-144 152 -144 440t144 440t407 153q264 0 408 -150q143 -151 143 -440z" />
    <glyph glyph-name="odieresis.round" unicode="&#xf6;" horiz-adv-x="1306" 
d="M864 1554q61 0 100 -36q38 -36 38 -96t-38 -96q-36 -36 -100 -36t-100 36q-37 36 -37 95t38 96t99 37zM438 1554q61 0 100 -36q38 -36 38 -96t-38 -96q-36 -36 -100 -36t-100 36q-37 36 -37 95t38 96t99 37zM653 164q264 0 265 399q0 399 -265 400q-264 1 -264 -399
t264 -400zM1204 565q0 -289 -143 -441t-407 -153q-264 0 -408 151q-144 152 -144 440t144 440t407 153q264 0 408 -150q143 -151 143 -440z" />
    <glyph glyph-name="divide.round" unicode="&#xf7;" horiz-adv-x="1392" 
d="M696 14q-68 0 -106 38t-39 102q0 64 39 101q38 38 106 38t107 -38t39 -101q0 -64 -39 -102t-107 -38zM696 1141q68 0 107 -38q39 -37 39 -101t-39 -102t-107 -38t-106 38t-39 101q1 63 39 101t106 39zM1237 481h-1081v193h1081v-193z" />
    <glyph glyph-name="oslash" unicode="&#xf8;" horiz-adv-x="1302" 
d="M655 971q-282 1 -282 -393q0 -188 45 -285l366 649q-53 29 -129 29zM647 156q283 0 283 392q0 188 -45 286l-369 -652q53 -26 131 -26zM1200 563q0 -285 -145 -439t-404 -153q-131 0 -233 39l-72 -129h-194l135 205q-185 152 -185 457t146 459t403 153q133 0 232 -39
l73 129h195l-135 -207q184 -151 184 -475z" />
    <glyph glyph-name="ugrave" unicode="&#xf9;" horiz-adv-x="1302" 
d="M754 1290h-209l-262 307h295zM1135 0h-209l-49 193q-27 -101 -110 -159t-222 -59q-215 0 -312 140q-57 83 -63 214q-2 46 -2 134v663h270v-667q0 -131 37 -185q57 -82 184 -81q205 0 205 245v688h271v-1126z" />
    <glyph glyph-name="uacute" unicode="&#xfa;" horiz-adv-x="1302" 
d="M758 1290h-209l176 307h295zM1135 0h-209l-49 193q-27 -101 -110 -159t-222 -59q-215 0 -312 140q-57 83 -63 214q-2 46 -2 134v663h270v-667q0 -131 37 -185q57 -82 184 -81q205 0 205 245v688h271v-1126z" />
    <glyph glyph-name="ucircumflex" unicode="&#xfb;" horiz-adv-x="1302" 
d="M541 1597h221l237 -307h-217l-137 172l-137 -172h-205zM1135 0h-209l-49 193q-27 -101 -110 -159t-222 -59q-215 0 -312 140q-57 83 -63 214q-2 46 -2 134v663h270v-667q0 -131 37 -185q57 -82 184 -81q205 0 205 245v688h271v-1126z" />
    <glyph glyph-name="udieresis.round" unicode="&#xfc;" horiz-adv-x="1302" 
d="M864 1554q61 0 100 -36q38 -36 38 -96t-38 -96q-36 -36 -100 -36t-100 36q-37 36 -37 95t38 96t99 37zM438 1554q61 0 100 -36q38 -36 38 -96t-38 -96q-36 -36 -100 -36t-100 36q-37 36 -37 95t38 96t99 37zM1135 0h-209l-49 193q-27 -101 -110 -159t-222 -59
q-215 0 -312 140q-57 83 -63 214q-2 46 -2 134v663h270v-667q0 -131 37 -185q57 -82 184 -81q205 0 205 245v688h271v-1126z" />
    <glyph glyph-name="yacute.alt" unicode="&#xfd;" horiz-adv-x="1249" 
d="M750 1290h-209l176 307h295zM293 -410q-79 0 -160 17v213h17q78 -29 148 -29q70 1 121 61q50 60 99 185l-450 1089h303l286 -778l279 778h246l-418 -1101q-32 -85 -54 -135t-63 -116t-86 -99t-117 -59t-151 -26z" />
    <glyph glyph-name="thorn" unicode="&#xfe;" horiz-adv-x="1347" 
d="M696 176q266 0 266 386t-266 386t-266 -386t266 -386zM434 -401h-266v1998h266v-657q31 100 121 156t221 55q223 0 346 -159t123 -424t-127 -429q-126 -164 -368 -164t-316 191v-567z" />
    <glyph glyph-name="ydieresis.round.alt" unicode="&#xff;" horiz-adv-x="1249" 
d="M856 1554q61 0 99 -36t38 -96t-37 -96t-100 -36t-100 36t-37 95t38 96t99 37zM430 1554q61 0 99 -36t38 -96t-37 -96t-100 -36t-100 36t-37 95t38 96t99 37zM293 -410q-79 0 -160 17v213h17q78 -29 148 -29q70 1 121 61q50 60 99 185l-450 1089h303l286 -778l279 778h246
l-418 -1101q-32 -85 -54 -135t-63 -116t-86 -99t-117 -59t-151 -26z" />
    <glyph glyph-name="Amacron" unicode="&#x100;" horiz-adv-x="1433" 
d="M348 1911h721v-176h-721v176zM700 1253l-227 -663h449zM1413 0h-295l-129 385h-588l-131 -385h-250l558 1540h286z" />
    <glyph glyph-name="amacron.alt" unicode="&#x101;" horiz-adv-x="1220" 
d="M250 1475h639v-164h-639v164zM518 184q229 0 227 303v25h-61q-181 0 -246 -38q-78 -44 -78 -148q0 -60 41 -101t117 -41zM193 885v209q139 49 360 49q299 0 397 -139q61 -86 62 -304v-385q0 -35 3 -57t25 -48t68 -26l59 9v-189q-61 -16 -159 -16q-210 0 -234 200
q-31 -96 -119 -150t-213 -54q-166 0 -263 92t-97 259t143 258t414 91l106 -4q0 82 -5 118t-27 70q-51 74 -199 74q-72 0 -148 -14t-116 -29l-41 -14h-16z" />
    <glyph glyph-name="Abreve" unicode="&#x102;" horiz-adv-x="1433" 
d="M864 1980h191q0 -284 -346 -284t-347 284h191q-1 -133 155 -133t156 133zM700 1253l-227 -663h449zM1413 0h-295l-129 385h-588l-131 -385h-250l558 1540h286z" />
    <glyph glyph-name="abreve.alt" unicode="&#x103;" horiz-adv-x="1220" 
d="M719 1597h190q0 -307 -340 -307t-340 307h191q0 -160 149 -159q150 -1 150 159zM518 184q229 0 227 303v25h-61q-181 0 -246 -38q-78 -44 -78 -148q0 -60 41 -101t117 -41zM193 885v209q139 49 360 49q299 0 397 -139q61 -86 62 -304v-385q0 -35 3 -57t25 -48t68 -26
l59 9v-189q-61 -16 -159 -16q-210 0 -234 200q-31 -96 -119 -150t-213 -54q-166 0 -263 92t-97 259t143 258t414 91l106 -4q0 82 -5 118t-27 70q-51 74 -199 74q-72 0 -148 -14t-116 -29l-41 -14h-16z" />
    <glyph glyph-name="Aogonek" unicode="&#x104;" horiz-adv-x="1433" 
d="M700 1253l-227 -663h449zM1280 -272q50 0 117 18h16v-133q-68 -18 -168 -19q-291 0 -291 187q0 139 164 219l-129 385h-588l-131 -385h-250l558 1540h286l549 -1540q-262 -43 -262 -180q0 -92 129 -92z" />
    <glyph glyph-name="aogonek.alt" unicode="&#x105;" horiz-adv-x="1243" 
d="M700 516q-246 0 -312 -76q-34 -40 -34 -106t46 -111t128 -45q141 0 199 111q35 68 35 196v31h-62zM1061 -272q60 0 113 14h16v-135q-74 -12 -160 -13q-299 0 -299 181q0 150 234 227q-162 10 -179 186q-28 -96 -118 -150t-236 -54t-249 89q-101 89 -101 253t146 258
q146 92 419 92l115 -4q0 156 -33 205q-51 76 -205 75q-74 0 -152 -15t-122 -32l-41 -14h-16v201q145 51 368 51q305 0 404 -139q61 -86 61 -302v-364q0 -113 46 -138q24 -13 61 -14l57 7v-187q-262 -78 -262 -192q0 -86 133 -86z" />
    <glyph glyph-name="Cacute" unicode="&#x106;" horiz-adv-x="1302" 
d="M924 1708h-232l211 272h332zM1192 246v-213q-139 -49 -332 -49q-373 0 -561 220t-188 566t188 566t561 220q174 0 291 -36l41 -13v-213h-16q-133 57 -293 58q-242 0 -362 -160t-120 -416t122 -422t364 -166q132 0 252 43l37 15h16z" />
    <glyph glyph-name="cacute" unicode="&#x107;" horiz-adv-x="1013" 
d="M713 1290h-209l176 307h295zM913 233v-217q-98 -33 -243 -32q-276 0 -422 151q-145 152 -146 426q0 274 144 428t422 154q131 0 217 -25l28 -8v-217h-16q-98 45 -211 45q-147 0 -222 -97t-75 -275t75 -278q75 -99 220 -100q88 0 184 33l29 12h16z" />
    <glyph glyph-name="Ccircumflex" unicode="&#x108;" horiz-adv-x="1302" 
d="M670 1980h266l238 -272h-238l-139 152l-138 -152h-227zM1192 246v-213q-139 -49 -332 -49q-373 0 -561 220t-188 566t188 566t561 220q174 0 291 -36l41 -13v-213h-16q-133 57 -293 58q-242 0 -362 -160t-120 -416t122 -422t364 -166q132 0 252 43l37 15h16z" />
    <glyph glyph-name="ccircumflex" unicode="&#x109;" horiz-adv-x="1013" 
d="M496 1597h221l237 -307h-217l-137 172l-137 -172h-205zM913 233v-217q-98 -33 -243 -32q-276 0 -422 151q-145 152 -146 426q0 274 144 428t422 154q131 0 217 -25l28 -8v-217h-16q-98 45 -211 45q-147 0 -222 -97t-75 -275t75 -278q75 -99 220 -100q88 0 184 33l29 12
h16z" />
    <glyph glyph-name="Ccaron" unicode="&#x10c;" horiz-adv-x="1302" 
d="M936 1708h-266l-238 272h242l135 -159l133 159h232zM1192 246v-213q-139 -49 -332 -49q-373 0 -561 220t-188 566t188 566t561 220q174 0 291 -36l41 -13v-213h-16q-133 57 -293 58q-242 0 -362 -160t-120 -416t122 -422t364 -166q132 0 252 43l37 15h16z" />
    <glyph glyph-name="ccaron" unicode="&#x10d;" horiz-adv-x="1013" 
d="M717 1290h-221l-238 307h225l129 -184l129 184h213zM913 233v-217q-98 -33 -243 -32q-276 0 -422 151q-145 152 -146 426q0 274 144 428t422 154q131 0 217 -25l28 -8v-217h-16q-98 45 -211 45q-147 0 -222 -97t-75 -275t75 -278q75 -99 220 -100q88 0 184 33l29 12h16z
" />
    <glyph glyph-name="Dcaron" unicode="&#x10e;" horiz-adv-x="1581" 
d="M776 1708h-266l-238 272h242l135 -159l133 159h232zM463 1335v-1130h172q217 0 328 61q217 123 217 504t-222 504q-111 61 -323 61h-172zM188 1540h430q106 0 172 -3t172 -28q108 -25 189 -71q319 -184 319 -668t-327 -670q-84 -46 -192 -70t-171 -27t-162 -3h-430v1540z
" />
    <glyph glyph-name="dcaron" unicode="&#x10f;" horiz-adv-x="1347" 
d="M1462 1233h-168l60 364h231zM653 946q-264 0 -264 -383t264 -383q137 0 201 104t64 281q-1 381 -265 381zM913 1597h267v-1597h-209l-53 188q-27 -98 -114 -155t-224 -58q-229 0 -354 159q-124 159 -124 426t128 429t373 162t310 -193v639z" />
    <glyph glyph-name="Dcroat" unicode="&#x110;" horiz-adv-x="1640" 
d="M520 1335v-432h334v-207h-334v-491h176q219 0 328 63q217 125 217 505t-221 501q-111 61 -324 61h-176zM250 1540h430q109 0 172 -3q62 -3 168 -28q508 -120 510 -739q0 -481 -328 -668q-84 -48 -186 -72t-166 -27t-170 -3h-430v696h-213v207h213v637z" />
    <glyph glyph-name="dcroat" unicode="&#x111;" horiz-adv-x="1347" 
d="M651 950q-266 0 -266 -386t266 -386t266 386t-266 386zM1356 1292h-176v-1292h-213l-49 188q-31 -102 -123 -157t-224 -56q-223 0 -346 158t-123 424t127 430t368 164t316 -190v331h-299v146h299v159h267v-159h176v-146z" />
    <glyph glyph-name="Emacron" unicode="&#x112;" horiz-adv-x="1249" 
d="M336 1911h622v-176h-622v176zM188 1540h922v-209h-651v-426h553v-209h-553v-487h684v-209h-955v1540z" />
    <glyph glyph-name="emacron" unicode="&#x113;" horiz-adv-x="1216" 
d="M291 1475h639v-164h-639v164zM831 672q0 147 -50 221t-163 74t-169 -76t-68 -219h450zM1040 242v-209q-154 -49 -356 -49q-286 0 -434 142t-148 425t138 443t387 161q281 0 401 -197q62 -99 75 -292q3 -61 3 -179h-725q0 -145 83 -226t227 -81t288 45l45 17h16z" />
    <glyph glyph-name="Ebreve" unicode="&#x114;" horiz-adv-x="1249" 
d="M803 1980h190q0 -284 -346 -284t-346 284h191q0 -133 156 -133t155 133zM188 1540h922v-209h-651v-426h553v-209h-553v-487h684v-209h-955v1540z" />
    <glyph glyph-name="ebreve" unicode="&#x115;" horiz-adv-x="1216" 
d="M760 1597h190q0 -307 -340 -307t-340 307h191q0 -160 149 -159q150 -1 150 159zM831 672q0 147 -50 221t-163 74t-169 -76t-68 -219h450zM1040 242v-209q-154 -49 -356 -49q-286 0 -434 142t-148 425t138 443t387 161q281 0 401 -197q62 -99 75 -292q3 -61 3 -179h-725
q0 -145 83 -226t227 -81t288 45l45 17h16z" />
    <glyph glyph-name="Edotaccent.round" unicode="&#x116;" horiz-adv-x="1249" 
d="M647 1982q74 0 116 -40t42 -107q0 -69 -42 -107t-116 -38t-116 39t-42 107t42 106q42 40 116 40zM188 1540h922v-209h-651v-426h553v-209h-553v-487h684v-209h-955v1540z" />
    <glyph glyph-name="edotaccent.round" unicode="&#x117;" horiz-adv-x="1216" 
d="M610 1569q74 0 116 -39t42 -107q0 -69 -42 -107t-116 -38t-116 39t-41 107q-1 68 41 106q42 39 116 39zM831 672q0 147 -50 221t-163 74t-169 -76t-68 -219h450zM1040 242v-209q-154 -49 -356 -49q-286 0 -434 142t-148 425t138 443t387 161q281 0 401 -197
q62 -99 75 -292q3 -61 3 -179h-725q0 -145 83 -226t227 -81t288 45l45 17h16z" />
    <glyph glyph-name="Eogonek" unicode="&#x118;" horiz-adv-x="1249" 
d="M1012 -272q42 0 114 18h17v-133q-67 -19 -185 -19t-196 48t-78 132q0 85 68 136t188 90h-752v1540h922v-209h-651v-426h553v-209h-553v-487h684v-236q-262 -47 -262 -161q0 -84 131 -84z" />
    <glyph glyph-name="eogonek" unicode="&#x119;" horiz-adv-x="1208" 
d="M827 664q0 307 -213 307q-113 0 -173 -82t-66 -225h452zM899 -272q50 0 117 18h16v-133q-68 -19 -186 -19t-195 46q-78 46 -78 133q0 129 199 223q-37 -12 -121 -12q-253 0 -401 144t-148 430q0 284 136 440t397 157q262 0 383 -199q65 -107 77 -284q3 -59 3 -172h-721
q0 -158 82 -242q83 -84 233 -84t279 43l45 14h16v-198q-134 -39 -198 -97t-64 -120q0 -88 129 -88z" />
    <glyph glyph-name="Ecaron" unicode="&#x11a;" horiz-adv-x="1249" 
d="M780 1708h-266l-238 272h242l135 -159l133 159h232zM188 1540h922v-209h-651v-426h553v-209h-553v-487h684v-209h-955v1540z" />
    <glyph glyph-name="ecaron" unicode="&#x11b;" horiz-adv-x="1216" 
d="M721 1290h-221l-238 307h225l129 -184l129 184h213zM831 672q0 147 -50 221t-163 74t-169 -76t-68 -219h450zM1040 242v-209q-154 -49 -356 -49q-286 0 -434 142t-148 425t138 443t387 161q281 0 401 -197q62 -99 75 -292q3 -61 3 -179h-725q0 -145 83 -226t227 -81
t288 45l45 17h16z" />
    <glyph glyph-name="Gcircumflex" unicode="&#x11c;" horiz-adv-x="1527" 
d="M760 1980h266l238 -272h-238l-139 152l-137 -152h-228zM836 815h544v-754q-201 -82 -473 -81q-369 0 -583 196t-213 586q0 391 224 593t607 201q100 0 198 -13t144 -27l47 -13v-217h-16q-160 66 -365 66q-262 0 -405 -144t-143 -433q0 -291 138 -441t369 -150
q104 0 176 21l25 8v397h-274v205z" />
    <glyph glyph-name="gcircumflex.alt" unicode="&#x11d;" horiz-adv-x="1263" 
d="M455 1597h221l237 -307h-217l-137 172l-137 -172h-205zM608 614q90 0 140 45q49 45 49 131t-49 132q-50 45 -140 45t-139 -45t-49 -131q0 -85 49 -131t139 -46zM711 41h-332q-7 -4 -21 -13t-36 -45t-21 -77q0 -74 68 -109t215 -35q332 0 331 160q1 119 -204 119z
M1071 791q0 -165 -126 -265t-337 -100q-88 0 -153 14q-59 -33 -59 -92t48 -73q50 -13 103 -13h192q198 0 276 -38q113 -54 145 -138q22 -55 22 -127q0 -377 -609 -377q-518 0 -518 273q0 184 219 227q-15 4 -47 23q-98 61 -98 168q0 106 71 150q71 45 140 58
q-195 96 -195 310q0 166 126 265t337 99t334 -98q23 67 72 101t83 38t85 4h24v-221q-41 8 -93 8t-91 -16q49 -82 49 -180z" />
    <glyph glyph-name="Gbreve" unicode="&#x11e;" horiz-adv-x="1527" 
d="M1049 1980h190q0 -284 -346 -284t-346 284h190q0 -133 156 -133t156 133zM836 815h544v-754q-201 -82 -473 -81q-369 0 -583 196t-213 586q0 391 224 593t607 201q100 0 198 -13t144 -27l47 -13v-217h-16q-160 66 -365 66q-262 0 -405 -144t-143 -433q0 -291 138 -441
t369 -150q104 0 176 21l25 8v397h-274v205z" />
    <glyph glyph-name="gbreve.alt" unicode="&#x11f;" horiz-adv-x="1263" 
d="M715 1597h190q0 -307 -340 -307t-340 307h191q0 -160 149 -159q150 -1 150 159zM608 614q90 0 140 45q49 45 49 131t-49 132q-50 45 -140 45t-139 -45t-49 -131q0 -85 49 -131t139 -46zM711 41h-332q-7 -4 -21 -13t-36 -45t-21 -77q0 -74 68 -109t215 -35q332 0 331 160
q1 119 -204 119zM1071 791q0 -165 -126 -265t-337 -100q-88 0 -153 14q-59 -33 -59 -92t48 -73q50 -13 103 -13h192q198 0 276 -38q113 -54 145 -138q22 -55 22 -127q0 -377 -609 -377q-518 0 -518 273q0 184 219 227q-15 4 -47 23q-98 61 -98 168q0 106 71 150
q71 45 140 58q-195 96 -195 310q0 166 126 265t337 99t334 -98q23 67 72 101t83 38t85 4h24v-221q-41 8 -93 8t-91 -16q49 -82 49 -180z" />
    <glyph glyph-name="Gdotaccent.round" unicode="&#x120;" horiz-adv-x="1527" 
d="M893 1982q74 0 116 -40t42 -107q0 -69 -42 -107t-116 -38t-116 39t-42 107t42 106q42 40 116 40zM836 815h544v-754q-201 -82 -473 -81q-369 0 -583 196t-213 586q0 391 224 593t607 201q100 0 198 -13t144 -27l47 -13v-217h-16q-160 66 -365 66q-262 0 -405 -144
t-143 -433q0 -291 138 -441t369 -150q104 0 176 21l25 8v397h-274v205z" />
    <glyph glyph-name="gdotaccent.round" unicode="&#x121;" horiz-adv-x="1351" 
d="M668 1569q74 0 116 -39t41 -107q0 -69 -42 -107q-41 -38 -115 -38t-116 39t-42 107t42 106q42 39 116 39zM655 221q267 0 267 367t-267 366q-266 0 -266 -366t266 -367zM1184 1126v-962q0 -86 -2 -135t-20 -122t-56 -124q-139 -201 -520 -201q-199 0 -353 45l-45 17v229
h17q199 -90 399 -90t277 123q41 66 41 241v78q-72 -201 -340 -200q-223 0 -352 147q-128 148 -128 410t134 416t380 153q244 0 330 -188l74 163h164z" />
    <glyph glyph-name="Gcommaaccent" unicode="&#x122;" horiz-adv-x="1527" 
d="M782 -164h250l-127 -254h-200zM836 815h544v-754q-201 -82 -473 -81q-369 0 -583 196t-213 586q0 391 224 593t607 201q100 0 198 -13t144 -27l47 -13v-217h-16q-160 66 -365 66q-262 0 -405 -144t-143 -433q0 -291 138 -441t369 -150q104 0 176 21l25 8v397h-274v205z
" />
    <glyph glyph-name="gcommaaccent.alt" unicode="&#x123;" horiz-adv-x="1263" 
d="M684 1290h-260l151 307h195zM608 614q90 0 140 45q49 45 49 131t-49 132q-50 45 -140 45t-139 -45t-49 -131q0 -85 49 -131t139 -46zM711 41h-332q-7 -4 -21 -13t-36 -45t-21 -77q0 -74 68 -109t215 -35q332 0 331 160q1 119 -204 119zM1071 791q0 -165 -126 -265
t-337 -100q-88 0 -153 14q-59 -33 -59 -92t48 -73q50 -13 103 -13h192q198 0 276 -38q113 -54 145 -138q22 -55 22 -127q0 -377 -609 -377q-518 0 -518 273q0 184 219 227q-15 4 -47 23q-98 61 -98 168q0 106 71 150q71 45 140 58q-195 96 -195 310q0 166 126 265t337 99
t334 -98q23 67 72 101t83 38t85 4h24v-221q-41 8 -93 8t-91 -16q49 -82 49 -180z" />
    <glyph glyph-name="Hcircumflex" unicode="&#x124;" horiz-adv-x="1605" 
d="M670 1980h266l238 -272h-238l-139 152l-138 -152h-227zM188 1540h275v-635h680v635h274v-1540h-274v696h-680v-696h-275v1540z" />
    <glyph glyph-name="hcircumflex" unicode="&#x125;" horiz-adv-x="1302" 
d="M676 1597h221l238 -307h-217l-138 172l-137 -172h-205zM168 1597h266v-647q61 201 320 201q227 0 327 -147q55 -80 64 -208q2 -44 2 -132v-664h-270v668q0 131 -37 184q-57 82 -178 82q-227 0 -228 -246v-688h-266v1597z" />
    <glyph glyph-name="Itilde" unicode="&#x128;" horiz-adv-x="651" 
d="M-20 1708v158q86 82 217 82q67 0 163 -36t140 -36t92 17q47 17 72 36l24 19h17v-158q-86 -82 -218 -82q-67 0 -163 36t-140 36t-92 -18q-47 -18 -72 -36l-24 -18h-16zM188 1540h275v-1540h-275v1540z" />
    <glyph glyph-name="itilde" unicode="&#x129;" horiz-adv-x="602" 
d="M-20 1303v153q25 31 86 59q61 27 115 27q55 0 145 -38t131 -38t83 18t64 40l23 18h16v-153q-24 -30 -86 -59q-61 -28 -117 -28t-144 38q-89 38 -130 38t-83 -19t-65 -38l-22 -18h-16zM168 1126h266v-1126h-266v1126z" />
    <glyph glyph-name="Imacron" unicode="&#x12a;" horiz-adv-x="651" 
d="M12 1911h623v-176h-623v176zM188 1540h275v-1540h-275v1540z" />
    <glyph glyph-name="imacron" unicode="&#x12b;" horiz-adv-x="602" 
d="M43 1475h516v-164h-516v164zM168 1126h266v-1126h-266v1126z" />
    <glyph glyph-name="Ibreve" unicode="&#x12c;" horiz-adv-x="651" 
d="M479 1980h191q0 -284 -346 -284t-347 284h191q0 -133 156 -133t155 133zM188 1540h275v-1540h-275v1540z" />
    <glyph glyph-name="ibreve" unicode="&#x12d;" horiz-adv-x="602" 
d="M451 1597h190q0 -307 -340 -307t-340 307h191q0 -160 149 -159q150 -1 150 159zM168 1126h266v-1126h-266v1126z" />
    <glyph glyph-name="Iogonek" unicode="&#x12e;" horiz-adv-x="651" 
d="M332 -272q42 0 114 18h17v-133q-69 -19 -187 -19t-195 48t-77 137q0 137 184 221v1540h275v-1540q-125 -23 -194 -75t-68 -111q0 -86 131 -86z" />
    <glyph glyph-name="iogonek" unicode="&#x12f;" horiz-adv-x="602" 
d="M164 1540h274v-242h-274v242zM303 -272q38 0 115 18h16v-133q-68 -19 -186 -19t-196 48q-77 48 -77 134q-1 87 59 142t134 82v1126h266v-1126q-126 -23 -194 -75t-68 -111q0 -86 131 -86z" />
    <glyph glyph-name="Idotaccent.round" unicode="&#x130;" horiz-adv-x="651" 
d="M324 1982q74 0 116 -40t41 -107q0 -69 -42 -107q-41 -38 -115 -38t-116 39t-42 107t42 106q42 40 116 40zM188 1540h275v-1540h-275v1540z" />
    <glyph glyph-name="dotlessi" unicode="&#x131;" horiz-adv-x="602" 
d="M168 1126h266v-1126h-266v1126z" />
    <glyph glyph-name="Jcircumflex" unicode="&#x134;" horiz-adv-x="917" 
d="M457 1980h266l238 -272h-238l-139 152l-138 -152h-227zM33 221h16q90 -29 172 -28q133 0 193 86q41 61 41 221v1040h274v-1020q0 -78 -3 -124t-21 -116t-58 -124q-121 -168 -405 -168q-110 0 -185 18l-24 6v209z" />
    <glyph glyph-name="jcircumflex" unicode="&#x135;" horiz-adv-x="614" 
d="M203 1597h221l238 -307h-218l-137 172l-137 -172h-205zM-86 -197h16q45 -8 88 -8q100 0 138 66q25 45 24 151v1114h266v-1101q0 -180 -49 -267q-92 -160 -358 -159l-125 10v194z" />
    <glyph glyph-name="Kcommaaccent" unicode="&#x136;" horiz-adv-x="1429" 
d="M590 -164h250l-127 -254h-201zM188 1540h271v-688l610 688h299l-573 -639l585 -901h-323l-447 709l-151 -156v-553h-271v1540z" />
    <glyph glyph-name="kcommaaccent" unicode="&#x137;" 
d="M483 -164h250l-127 -254h-200zM168 1597h266v-942l422 471h295l-422 -458l438 -668h-311l-307 492l-115 -115v-377h-266v1597z" />
    <glyph glyph-name="kgreenlandic" unicode="&#x138;" 
d="M168 1126h266v-471l430 471h287l-422 -452l438 -674h-305l-309 500l-119 -119v-381h-266v1126z" />
    <glyph glyph-name="Lacute" unicode="&#x139;" horiz-adv-x="1101" 
d="M440 1708h-231l211 272h332zM188 1540h275v-1327h610v-213h-885v1540z" />
    <glyph glyph-name="lacute" unicode="&#x13a;" horiz-adv-x="602" 
d="M406 1761h-209l176 307h295zM168 1597h266v-1597h-266v1597z" />
    <glyph glyph-name="Lcommaaccent" unicode="&#x13b;" horiz-adv-x="1101" 
d="M528 -164h250l-127 -254h-200zM188 1540h275v-1327h610v-213h-885v1540z" />
    <glyph glyph-name="lcommaaccent" unicode="&#x13c;" horiz-adv-x="602" 
d="M176 -164h250l-127 -254h-201zM168 1597h266v-1597h-266v1597z" />
    <glyph glyph-name="Lcaron" unicode="&#x13d;" horiz-adv-x="1101" 
d="M188 1540h275v-1327h610v-213h-885v1540zM782 1032h-184l86 508h246z" />
    <glyph glyph-name="lcaron" unicode="&#x13e;" horiz-adv-x="602" 
d="M717 1233h-168l59 364h232zM168 1597h266v-1597h-266v1597z" />
    <glyph glyph-name="Ldot.round" unicode="&#x13f;" horiz-adv-x="1355" 
d="M965 864q75 0 117 -44t42 -116t-43 -115q-43 -44 -117 -44t-116 44q-43 44 -43 116q0 71 43 115t117 44zM188 1540h275v-1327h610v-213h-885v1540z" />
    <glyph glyph-name="ldot.round" unicode="&#x140;" horiz-adv-x="1167" 
d="M780 733q74 0 117 -44t43 -116q0 -71 -43 -115t-117 -44t-116 44t-43 116q1 72 43 115q42 44 116 44zM168 1597h266v-1597h-266v1597z" />
    <glyph glyph-name="Lslash" unicode="&#x141;" horiz-adv-x="1165" 
d="M254 1540h274v-559l314 111v-201l-314 -111v-567h609v-213h-883v686l-217 -76v201l217 76v653z" />
    <glyph glyph-name="lslash" unicode="&#x142;" horiz-adv-x="782" 
d="M524 0h-266v688l-221 -76v201l221 76v708h266v-618l221 76v-201l-221 -76v-778z" />
    <glyph glyph-name="Nacute" unicode="&#x143;" horiz-adv-x="1622" 
d="M932 1708h-232l211 272h332zM188 1540h267l737 -1094v1094h242v-1540h-242l-762 1114v-1114h-242v1540z" />
    <glyph glyph-name="nacute" unicode="&#x144;" horiz-adv-x="1306" 
d="M758 1290h-209l176 307h295zM168 1126h209l49 -192q61 217 334 217q225 0 325 -147q58 -85 64 -208q2 -44 2 -132v-664h-270v668q0 131 -37 184q-57 82 -178 82q-227 0 -228 -246v-688h-270v1126z" />
    <glyph glyph-name="Ncommaaccent" unicode="&#x145;" horiz-adv-x="1622" 
d="M688 -164h250l-127 -254h-201zM188 1540h267l737 -1094v1094h242v-1540h-242l-762 1114v-1114h-242v1540z" />
    <glyph glyph-name="ncommaaccent" unicode="&#x146;" horiz-adv-x="1306" 
d="M528 -164h250l-127 -254h-200zM168 1126h209l49 -192q61 217 334 217q225 0 325 -147q58 -85 64 -208q2 -44 2 -132v-664h-270v668q0 131 -37 184q-57 82 -178 82q-227 0 -228 -246v-688h-270v1126z" />
    <glyph glyph-name="Ncaron" unicode="&#x147;" horiz-adv-x="1622" 
d="M944 1708h-266l-238 272h242l135 -159l133 159h232zM188 1540h267l737 -1094v1094h242v-1540h-242l-762 1114v-1114h-242v1540z" />
    <glyph glyph-name="ncaron" unicode="&#x148;" horiz-adv-x="1306" 
d="M762 1290h-221l-238 307h225l129 -184l129 184h213zM168 1126h209l49 -192q61 217 334 217q225 0 325 -147q58 -85 64 -208q2 -44 2 -132v-664h-270v668q0 131 -37 184q-57 82 -178 82q-227 0 -228 -246v-688h-270v1126z" />
    <glyph glyph-name="Omacron" unicode="&#x14c;" horiz-adv-x="1654" 
d="M467 1911h721v-176h-721v176zM827 176q207 0 317 150t110 444t-110 444t-317 150t-317 -150t-109 -444q-1 -294 109 -444t317 -150zM830 1569q342 0 528 -212t186 -586t-188 -587t-532 -213t-528 212q-185 212 -185 586t188 587t531 213z" />
    <glyph glyph-name="omacron" unicode="&#x14d;" horiz-adv-x="1306" 
d="M332 1475h639v-164h-639v164zM653 164q264 0 265 399q0 399 -265 400q-264 1 -264 -399t264 -400zM1204 565q0 -289 -143 -441t-407 -153q-264 0 -408 151q-144 152 -144 440t144 440t407 153q264 0 408 -150q143 -151 143 -440z" />
    <glyph glyph-name="Ohungarumlaut" unicode="&#x150;" horiz-adv-x="1654" 
d="M727 1708h-192l194 272h246zM1116 1708h-192l215 272h245zM827 176q207 0 317 150t110 444t-110 444t-317 150t-317 -150t-109 -444q-1 -294 109 -444t317 -150zM830 1569q342 0 528 -212t186 -586t-188 -587t-532 -213t-528 212q-185 212 -185 586t188 587t531 213z" />
    <glyph glyph-name="ohungarumlaut" unicode="&#x151;" horiz-adv-x="1306" 
d="M559 1290h-192l182 307h246zM932 1290h-193l203 307h246zM653 164q264 0 265 399q0 399 -265 400q-264 1 -264 -399t264 -400zM1204 565q0 -289 -143 -441t-407 -153q-264 0 -408 151q-144 152 -144 440t144 440t407 153q264 0 408 -150q143 -151 143 -440z" />
    <glyph glyph-name="OE" unicode="&#x152;" horiz-adv-x="2222" 
d="M815 190q414 0 414 580t-414 580t-414 -580t414 -580zM1985 903v-207h-478q-12 -216 -81 -332q-70 -116 -119 -145l-21 -12h830v-207h-1262q-88 0 -146 4t-158 33t-175 84q-264 195 -264 649t274 649q78 55 178 84q99 29 157 33t148 4h1215v-207h-789l18 -12t44 -42
q119 -130 145 -376h484z" />
    <glyph glyph-name="oe" unicode="&#x153;" horiz-adv-x="1996" 
d="M641 168q256 0 256 395t-256 395t-256 -395t256 -395zM1616 664q0 307 -213 307q-113 0 -173 -82t-67 -225h453zM614 -29q-233 0 -372 154q-140 153 -140 435t142 438t385 157q150 0 255 -60t148 -173l10 25q6 15 37 55t70 71t112 57t160 25q264 0 385 -199
q38 -61 56 -143t21 -141t3 -172h-721q0 -158 82 -242q83 -84 233 -84t279 43l45 14h17v-198q-152 -49 -351 -49q-352 0 -444 227q-46 -109 -152 -175t-260 -65z" />
    <glyph glyph-name="Racute" unicode="&#x154;" horiz-adv-x="1413" 
d="M825 1708h-231l211 272h332zM459 1335v-520h237q143 0 209 45q94 62 94 212t-94 216q-70 47 -209 47h-237zM459 610v-610h-271v1540h512q82 0 132 -3t134 -25q316 -84 316 -424q0 -341 -301 -439l379 -649h-307l-336 610h-258z" />
    <glyph glyph-name="racute" unicode="&#x155;" horiz-adv-x="841" 
d="M528 1290h-209l177 307h295zM799 1139v-254q-55 12 -129 12t-128 -27q-104 -52 -104 -239v-631h-270v1126h205l53 -221q29 131 118 182t226 52h29z" />
    <glyph glyph-name="Rcaron" unicode="&#x158;" horiz-adv-x="1413" 
d="M838 1708h-267l-237 272h241l136 -159l133 159h231zM459 1335v-520h237q143 0 209 45q94 62 94 212t-94 216q-70 47 -209 47h-237zM459 610v-610h-271v1540h512q82 0 132 -3t134 -25q316 -84 316 -424q0 -341 -301 -439l379 -649h-307l-336 610h-258z" />
    <glyph glyph-name="rcaron" unicode="&#x159;" horiz-adv-x="841" 
d="M532 1290h-221l-237 307h225l129 -184l129 184h213zM799 1139v-254q-55 12 -129 12t-128 -27q-104 -52 -104 -239v-631h-270v1126h205l53 -221q29 131 118 182t226 52h29z" />
    <glyph glyph-name="Sacute" unicode="&#x15a;" horiz-adv-x="1216" 
d="M727 1708h-231l211 272h331zM1034 1290h-16q-182 70 -328 70t-212 -49t-66 -128t51 -135t129 -90q197 -85 336 -175q78 -50 129 -140t51 -211q0 -221 -159 -335t-423 -113q-104 0 -203 17t-147 36l-47 16v217h16q207 -90 366 -90t235 60t75 153q0 94 -71 160
q-72 66 -174 112t-205 98q-102 52 -174 146t-72 230q0 197 142 307t395 110q185 0 325 -43l47 -14v-209z" />
    <glyph glyph-name="sacute" unicode="&#x15b;" horiz-adv-x="1003" 
d="M631 1290h-209l176 307h295zM582 942q-190 0 -191 -104q0 -46 52 -80q52 -35 127 -64q75 -30 150 -68t127 -114t52 -184q0 -172 -124 -258t-337 -86q-86 0 -166 13t-116 28l-35 12v217h16q172 -70 288 -70q204 0 204 115q0 55 -52 94t-127 69t-150 66t-127 108
q-52 71 -52 173q0 156 117 245t327 89q150 0 246 -31l35 -10v-217h-17q-143 57 -247 57z" />
    <glyph glyph-name="Scircumflex" unicode="&#x15c;" horiz-adv-x="1216" 
d="M473 1980h266l238 -272h-238l-139 152l-137 -152h-227zM1034 1290h-16q-182 70 -328 70t-212 -49t-66 -128t51 -135t129 -90q197 -85 336 -175q78 -50 129 -140t51 -211q0 -221 -159 -335t-423 -113q-104 0 -203 17t-147 36l-47 16v217h16q207 -90 366 -90t235 60t75 153
q0 94 -71 160q-72 66 -174 112t-205 98q-102 52 -174 146t-72 230q0 197 142 307t395 110q185 0 325 -43l47 -14v-209z" />
    <glyph glyph-name="scircumflex" unicode="&#x15d;" horiz-adv-x="1003" 
d="M414 1597h221l237 -307h-217l-137 172l-137 -172h-205zM582 942q-190 0 -191 -104q0 -46 52 -80q52 -35 127 -64q75 -30 150 -68t127 -114t52 -184q0 -172 -124 -258t-337 -86q-86 0 -166 13t-116 28l-35 12v217h16q172 -70 288 -70q204 0 204 115q0 55 -52 94t-127 69
t-150 66t-127 108q-52 71 -52 173q0 156 117 245t327 89q150 0 246 -31l35 -10v-217h-17q-143 57 -247 57z" />
    <glyph glyph-name="Scedilla" unicode="&#x15e;" horiz-adv-x="1216" 
d="M1034 1290h-16q-182 70 -328 70t-212 -49t-66 -128t51 -135t129 -90q197 -85 336 -175q78 -50 129 -140t51 -211q0 -192 -122 -304t-331 -136q119 -70 119 -173t-79 -163t-224 -62l-111 9v151h17q49 -12 94 -12q119 0 119 96q0 61 -70 146q-102 0 -200 17t-144 36l-47 16
v217h16q207 -90 366 -90t235 60t75 153q0 94 -71 160q-72 66 -174 112t-205 98q-102 52 -174 146t-72 230q0 197 142 307t395 110q185 0 325 -43l47 -14v-209z" />
    <glyph glyph-name="scedilla" unicode="&#x15f;" horiz-adv-x="1003" 
d="M582 942q-190 0 -191 -104q0 -46 52 -80q52 -35 127 -64q75 -30 150 -68t127 -114t52 -184q0 -148 -92 -232t-254 -104q119 -68 119 -172t-79 -164t-224 -62l-111 9v151h16q49 -12 95 -12q119 0 118 96q0 61 -69 146q-171 4 -262 41l-35 12v217h16q172 -70 288 -70
q204 0 204 115q0 55 -52 94t-127 69t-150 66t-127 108q-52 71 -52 173q0 156 117 245t327 89q150 0 246 -31l35 -10v-217h-17q-143 57 -247 57z" />
    <glyph glyph-name="Scaron" unicode="&#x160;" horiz-adv-x="1216" 
d="M739 1708h-266l-237 272h241l135 -159l133 159h232zM1034 1290h-16q-182 70 -328 70t-212 -49t-66 -128t51 -135t129 -90q197 -85 336 -175q78 -50 129 -140t51 -211q0 -221 -159 -335t-423 -113q-104 0 -203 17t-147 36l-47 16v217h16q207 -90 366 -90t235 60t75 153
q0 94 -71 160q-72 66 -174 112t-205 98q-102 52 -174 146t-72 230q0 197 142 307t395 110q185 0 325 -43l47 -14v-209z" />
    <glyph glyph-name="scaron" unicode="&#x161;" horiz-adv-x="1003" 
d="M635 1290h-221l-238 307h225l129 -184l129 184h213zM582 942q-190 0 -191 -104q0 -46 52 -80q52 -35 127 -64q75 -30 150 -68t127 -114t52 -184q0 -172 -124 -258t-337 -86q-86 0 -166 13t-116 28l-35 12v217h16q172 -70 288 -70q204 0 204 115q0 55 -52 94t-127 69
t-150 66t-127 108q-52 71 -52 173q0 156 117 245t327 89q150 0 246 -31l35 -10v-217h-17q-143 57 -247 57z" />
    <glyph glyph-name="Tcedilla" unicode="&#x162;" horiz-adv-x="1224" 
d="M475 0v1327h-430v213h1135v-213h-430v-1327h-86q135 -68 135 -190q0 -94 -79 -154t-224 -62l-111 9v151h16q49 -12 95 -12q119 0 118 96q0 62 -82 162h-57z" />
    <glyph glyph-name="tcedilla" unicode="&#x163;" horiz-adv-x="935" 
d="M831 213v-205q-66 -18 -159 -22q106 -70 106 -170t-79 -160t-224 -62l-110 9v151h16q49 -12 94 -12q119 0 119 96q0 59 -76 154q-212 32 -249 205q-15 70 -15 204v512h-205v197h205v291l266 78v-369h311v-197h-311v-507q0 -127 29 -174q29 -48 109 -48t137 21l20 8h16z
" />
    <glyph glyph-name="Tcaron" unicode="&#x164;" horiz-adv-x="1224" 
d="M743 1708h-266l-237 272h241l135 -159l134 159h231zM45 1540h1135v-213h-430v-1327h-275v1327h-430v213z" />
    <glyph glyph-name="tcaron" unicode="&#x165;" horiz-adv-x="935" 
d="M803 1233h-168l59 364h232zM831 213v-205q-86 -25 -204 -24q-312 0 -358 213q-15 70 -15 204v512h-205v197h205v291l266 78v-369h311v-197h-311v-507q0 -127 29 -174q29 -48 109 -48t137 21l20 8h16z" />
    <glyph glyph-name="Utilde" unicode="&#x168;" horiz-adv-x="1572" 
d="M442 1708v158q86 82 217 82q66 0 163 -36q98 -36 142 -36t91 17t71 36l25 19h16v-158q-86 -82 -217 -82q-66 0 -163 36t-141 36t-91 -18t-72 -36l-24 -18h-17zM188 1540h275v-975q0 -189 74 -289q75 -100 267 -100t266 100t73 289v975h241v-930q0 -92 -4 -149t-32 -149
t-86 -160q-154 -180 -476 -180t-475 180q-57 68 -86 160t-33 148q-4 58 -4 150v930z" />
    <glyph glyph-name="utilde" unicode="&#x169;" horiz-adv-x="1302" 
d="M330 1303v153q25 31 86 59q61 27 115 27q55 0 145 -38t131 -38t83 18t64 40l23 18h16v-153q-25 -31 -86 -59t-116 -28t-145 38t-130 38q-41 0 -83 -19t-64 -38l-23 -18h-16zM1135 0h-209l-49 193q-27 -101 -110 -159t-222 -59q-215 0 -312 140q-57 83 -63 214
q-2 46 -2 134v663h270v-667q0 -131 37 -185q57 -82 184 -81q205 0 205 245v688h271v-1126z" />
    <glyph glyph-name="Umacron" unicode="&#x16a;" horiz-adv-x="1572" 
d="M426 1911h721v-176h-721v176zM188 1540h275v-975q0 -189 74 -289q75 -100 267 -100t266 100t73 289v975h241v-930q0 -92 -4 -149t-32 -149t-86 -160q-154 -180 -476 -180t-475 180q-57 68 -86 160t-33 148q-4 58 -4 150v930z" />
    <glyph glyph-name="umacron" unicode="&#x16b;" horiz-adv-x="1302" 
d="M332 1475h639v-164h-639v164zM1135 0h-209l-49 193q-27 -101 -110 -159t-222 -59q-215 0 -312 140q-57 83 -63 214q-2 46 -2 134v663h270v-667q0 -131 37 -185q57 -82 184 -81q205 0 205 245v688h271v-1126z" />
    <glyph glyph-name="Ubreve" unicode="&#x16c;" horiz-adv-x="1572" 
d="M942 1980h191q-1 -284 -347 -284t-346 284h191q-1 -133 155 -133t156 133zM188 1540h275v-975q0 -189 74 -289q75 -100 267 -100t266 100t73 289v975h241v-930q0 -92 -4 -149t-32 -149t-86 -160q-154 -180 -476 -180t-475 180q-57 68 -86 160t-33 148q-4 58 -4 150v930z
" />
    <glyph glyph-name="ubreve" unicode="&#x16d;" horiz-adv-x="1302" 
d="M801 1597h190q0 -307 -340 -307t-340 307h191q0 -160 149 -159q150 -1 150 159zM1135 0h-209l-49 193q-27 -101 -110 -159t-222 -59q-215 0 -312 140q-57 83 -63 214q-2 46 -2 134v663h270v-667q0 -131 37 -185q57 -82 184 -81q205 0 205 245v688h271v-1126z" />
    <glyph glyph-name="Uring" unicode="&#x16e;" horiz-adv-x="1572" 
d="M680 1810q0 -48 29 -76t77 -28t78 29q29 29 29 75t-29 76q-29 29 -78 29q-50 0 -78 -29t-28 -76zM520 1810q0 102 72 164t194 62t195 -62q72 -62 72 -164t-72 -163t-195 -61q-122 0 -194 60q-72 62 -72 164zM188 1540h275v-975q0 -189 74 -289q75 -100 267 -100t266 100
t73 289v975h241v-930q0 -92 -4 -149t-32 -149t-86 -160q-154 -180 -476 -180t-475 180q-57 68 -86 160t-33 148q-4 58 -4 150v930z" />
    <glyph glyph-name="uring" unicode="&#x16f;" horiz-adv-x="1302" 
d="M547 1419q-1 -45 27 -73t77 -29q49 0 77 29q28 30 28 74t-28 73t-77 29t-77 -29t-27 -74zM389 1419q0 97 70 157q71 60 193 60t192 -60t70 -156t-70 -157t-193 -61t-193 60t-69 157zM1135 0h-209l-49 193q-27 -101 -110 -159t-222 -59q-215 0 -312 140q-57 83 -63 214
q-2 46 -2 134v663h270v-667q0 -131 37 -185q57 -82 184 -81q205 0 205 245v688h271v-1126z" />
    <glyph glyph-name="Uhungarumlaut" unicode="&#x170;" horiz-adv-x="1572" 
d="M686 1708h-192l194 272h246zM1075 1708h-192l215 272h245zM188 1540h275v-975q0 -189 74 -289q75 -100 267 -100t266 100t73 289v975h241v-930q0 -92 -4 -149t-32 -149t-86 -160q-154 -180 -476 -180t-475 180q-57 68 -86 160t-33 148q-4 58 -4 150v930z" />
    <glyph glyph-name="uhungarumlaut" unicode="&#x171;" horiz-adv-x="1302" 
d="M559 1290h-192l182 307h246zM932 1290h-193l203 307h246zM1135 0h-209l-49 193q-27 -101 -110 -159t-222 -59q-215 0 -312 140q-57 83 -63 214q-2 46 -2 134v663h270v-667q0 -131 37 -185q57 -82 184 -81q205 0 205 245v688h271v-1126z" />
    <glyph glyph-name="Uogonek" unicode="&#x172;" horiz-adv-x="1572" 
d="M940 -272q40 0 117 18h16v-133q-69 -19 -187 -19t-195 48t-77 135q0 135 185 200q-467 0 -574 333q-29 92 -33 150t-4 158v922h275v-975q0 -189 74 -289q75 -100 267 -100t266 100t73 289v975h241v-922q0 -298 -88 -424q-45 -67 -109 -112q-63 -45 -165 -89t-156 -83
t-55 -94q0 -88 129 -88z" />
    <glyph glyph-name="uogonek" unicode="&#x173;" horiz-adv-x="1302" 
d="M1004 -272q42 0 114 18h17v-133q-67 -19 -185 -19t-196 48t-78 132q0 85 68 136q69 51 188 90h-6l-49 193q-27 -101 -110 -159t-222 -59q-215 0 -312 140q-57 83 -63 214q-2 46 -2 134v663h270v-667q0 -131 37 -185q57 -82 184 -81q205 0 205 245v688h271v-1153
q-262 -47 -263 -161q0 -84 132 -84z" />
    <glyph glyph-name="Wcircumflex" unicode="&#x174;" horiz-adv-x="2138" 
d="M961 1980h266l237 -272h-237l-140 152l-137 -152h-227zM53 1540h291l303 -1196l311 1159h275l311 -1159l303 1196h238l-422 -1540h-279l-315 1171l-315 -1171h-279z" />
    <glyph glyph-name="wcircumflex" unicode="&#x175;" horiz-adv-x="1849" 
d="M836 1597h221l237 -307h-217l-137 172l-137 -172h-205zM88 1126h283l213 -823l229 799h266l230 -799l213 823h237l-323 -1126h-279l-233 811l-234 -811h-278z" />
    <glyph glyph-name="Ycircumflex" unicode="&#x176;" horiz-adv-x="1355" 
d="M567 1980h267l237 -272h-237l-140 152l-137 -152h-227zM815 0h-274v602l-521 938h320l369 -692l368 692h258l-520 -934v-606z" />
    <glyph glyph-name="ycircumflex.alt" unicode="&#x177;" horiz-adv-x="1249" 
d="M532 1597h222l237 -307h-217l-137 172l-137 -172h-205zM293 -410q-79 0 -160 17v213h17q78 -29 148 -29q70 1 121 61q50 60 99 185l-450 1089h303l286 -778l279 778h246l-418 -1101q-32 -85 -54 -135t-63 -116t-86 -99t-117 -59t-151 -26z" />
    <glyph glyph-name="Ydieresis.round" unicode="&#x178;" horiz-adv-x="1355" 
d="M930 1960q63 0 101 -37t38 -98t-38 -99t-101 -36q-63 0 -102 36q-38 36 -38 98t38 99q39 37 102 37zM471 1960q63 0 101 -37t38 -98t-38 -99t-101 -36q-63 0 -101 36t-38 98t38 99t101 37zM815 0h-274v602l-521 938h320l369 -692l368 692h258l-520 -934v-606z" />
    <glyph glyph-name="Zacute" unicode="&#x179;" horiz-adv-x="1323" 
d="M776 1708h-231l211 272h331zM1196 1540v-188l-770 -1143h786v-209h-1106v197l766 1134h-741v209h1065z" />
    <glyph glyph-name="zacute" unicode="&#x17a;" horiz-adv-x="1085" 
d="M664 1290h-209l176 307h295zM963 1110v-197l-537 -716h545v-197h-852v213l524 700h-516v197h836z" />
    <glyph glyph-name="Zdotaccent.round" unicode="&#x17b;" horiz-adv-x="1323" 
d="M655 1982q74 0 116 -40t42 -107q0 -69 -42 -107t-116 -38q-73 0 -115 39t-42 107t42 106q42 40 115 40zM1196 1540v-188l-770 -1143h786v-209h-1106v197l766 1134h-741v209h1065z" />
    <glyph glyph-name="zdotaccent.round" unicode="&#x17c;" horiz-adv-x="1085" 
d="M557 1569q74 0 116 -39t42 -107q0 -69 -42 -107t-116 -38t-116 39t-42 107t42 106q42 39 116 39zM963 1110v-197l-537 -716h545v-197h-852v213l524 700h-516v197h836z" />
    <glyph glyph-name="Zcaron" unicode="&#x17d;" horiz-adv-x="1323" 
d="M788 1708h-266l-237 272h241l136 -159l133 159h231zM1196 1540v-188l-770 -1143h786v-209h-1106v197l766 1134h-741v209h1065z" />
    <glyph glyph-name="zcaron" unicode="&#x17e;" horiz-adv-x="1085" 
d="M668 1290h-222l-237 307h225l129 -184l129 184h213zM963 1110v-197l-537 -716h545v-197h-852v213l524 700h-516v197h836z" />
    <glyph glyph-name="Schwa" unicode="&#x18f;" horiz-adv-x="1476" 
d="M393 655q0 -483 324 -483q174 0 267 128t101 355h-692zM201 1284v209q182 63 440 63q365 0 537 -182q188 -197 188 -588t-171 -603t-482 -212q-346 0 -494 262q-47 82 -69 193q-23 111 -27 194t-4 232h966q0 246 -118 375q-119 129 -351 129q-88 0 -187 -18t-155 -35
l-55 -19h-18z" />
    <glyph glyph-name="florin" unicode="&#x192;" horiz-adv-x="851" 
d="M608 1602q93 0 178 -17v-201h-16q-78 20 -143 21q-102 0 -140 -72q-20 -45 -20 -159v-64h319v-197h-319v-884q0 -119 -13 -175q-13 -57 -36 -98q-92 -158 -361 -157q-95 0 -143 12v199h16q57 -14 113 -15q100 0 135 68q23 45 23 160v890h-215v197h215v68q0 184 49 270
q90 154 358 154z" />
    <glyph glyph-name="Scommaaccent" unicode="&#x218;" horiz-adv-x="1216" 
d="M467 -164h250l-127 -254h-201zM1034 1290h-16q-182 70 -328 70t-212 -49t-66 -128t51 -135t129 -90q197 -85 336 -175q78 -50 129 -140t51 -211q0 -221 -159 -335t-423 -113q-104 0 -203 17t-147 36l-47 16v217h16q207 -90 366 -90t235 60t75 153q0 94 -71 160
q-72 66 -174 112t-205 98q-102 52 -174 146t-72 230q0 197 142 307t395 110q185 0 325 -43l47 -14v-209z" />
    <glyph glyph-name="scommaaccent" unicode="&#x219;" horiz-adv-x="1003" 
d="M365 -164h249l-127 -254h-200zM582 942q-190 0 -191 -104q0 -46 52 -80q52 -35 127 -64q75 -30 150 -68t127 -114t52 -184q0 -172 -124 -258t-337 -86q-86 0 -166 13t-116 28l-35 12v217h16q172 -70 288 -70q204 0 204 115q0 55 -52 94t-127 69t-150 66t-127 108
q-52 71 -52 173q0 156 117 245t327 89q150 0 246 -31l35 -10v-217h-17q-143 57 -247 57z" />
    <glyph glyph-name="uni021A" unicode="&#x21a;" horiz-adv-x="1224" 
d="M492 -164h249l-127 -254h-200zM45 1540h1135v-213h-430v-1327h-275v1327h-430v213z" />
    <glyph glyph-name="uni021B" unicode="&#x21b;" horiz-adv-x="935" 
d="M471 -164h250l-127 -254h-201zM831 213v-205q-86 -25 -204 -24q-312 0 -358 213q-15 70 -15 204v512h-205v197h205v291l266 78v-369h311v-197h-311v-507q0 -127 29 -174q29 -48 109 -48t137 21l20 8h16z" />
    <glyph glyph-name="dotlessj" unicode="&#x237;" horiz-adv-x="614" 
d="M-86 -197h16q45 -8 88 -8q100 0 138 66q25 45 24 151v1114h266v-1101q0 -180 -49 -267q-92 -160 -358 -159l-125 10v194z" />
    <glyph glyph-name="schwa" unicode="&#x259;" horiz-adv-x="1208" 
d="M381 463q0 -307 213 -307q114 0 174 82t66 225h-453zM528 1143q578 0 578 -580q0 -279 -135 -435t-397 -157q-262 0 -384 199q-67 111 -76 285q-3 59 -3 172h720q1 157 -81 241t-242 84q-68 0 -147 -14t-123 -29l-45 -14h-17v199q150 49 352 49z" />
    <glyph glyph-name="circumflex" unicode="&#x2c6;" 
d="M504 1597h221l238 -307h-218l-137 172l-137 -172h-205z" />
    <glyph glyph-name="caron" unicode="&#x2c7;" 
d="M725 1290h-221l-238 307h226l129 -184l129 184h213z" />
    <glyph glyph-name="breve" unicode="&#x2d8;" 
d="M764 1597h190q0 -307 -340 -307t-340 307h191q0 -160 149 -159q150 -1 150 159z" />
    <glyph glyph-name="dotaccent" unicode="&#x2d9;" 
d="M477 1540h275v-242h-275v242z" />
    <glyph glyph-name="ring" unicode="&#x2da;" 
d="M510 1458q0 -45 28 -74q28 -28 76 -28t77 28q28 28 28 74q0 45 -28 74t-77 29q-48 0 -76 -29t-28 -74zM352 1458q0 96 70 156t192 61q122 0 193 -60q70 -61 70 -157t-70 -156t-193 -60q-122 0 -192 60t-70 156z" />
    <glyph glyph-name="ogonek" unicode="&#x2db;" 
d="M483 -272q43 0 115 18h16v-133q-68 -19 -185 -19t-195 48t-78 132q0 85 68 136q69 51 188 90h202v-27q-262 -47 -262 -161q0 -84 131 -84z" />
    <glyph glyph-name="tilde" unicode="&#x2dc;" 
d="M293 1303v153q25 31 86 59q61 27 115 27t145 -38q90 -38 131 -38t83 18t65 40l22 18h16v-153q-25 -31 -86 -59t-116 -28q-54 0 -144 38t-131 38t-83 -19t-64 -38l-23 -18h-16z" />
    <glyph glyph-name="hungarumlaut" unicode="&#x2dd;" 
d="M522 1290h-192l182 307h246zM895 1290h-193l203 307h246z" />
    <glyph glyph-name="uni0312" unicode="&#x312;" 
d="M733 1290h-260l152 307h194z" />
    <glyph glyph-name="Delta" unicode="&#x394;" horiz-adv-x="1396" 
d="M686 1272l-354 -1067h692zM20 0l535 1540h303l518 -1540h-1356z" />
    <glyph glyph-name="Delta" unicode="&#x2206;" horiz-adv-x="1396" 
d="M686 1272l-354 -1067h692zM20 0l535 1540h303l518 -1540h-1356z" />
    <glyph glyph-name="pi" unicode="&#x3c0;" horiz-adv-x="1437" 
d="M1380 909h-217v-909h-266v909h-319l-103 -909h-266l102 909h-254v201h1323v-201z" />
    <glyph glyph-name="Wgrave" unicode="&#x1e80;" horiz-adv-x="2138" 
d="M1204 1708h-231l-311 272h331zM53 1540h291l303 -1196l311 1159h275l311 -1159l303 1196h238l-422 -1540h-279l-315 1171l-315 -1171h-279z" />
    <glyph glyph-name="wgrave" unicode="&#x1e81;" horiz-adv-x="1849" 
d="M1049 1290h-209l-262 307h294zM88 1126h283l213 -823l229 799h266l230 -799l213 823h237l-323 -1126h-279l-233 811l-234 -811h-278z" />
    <glyph glyph-name="Wacute" unicode="&#x1e82;" horiz-adv-x="2138" 
d="M1214 1708h-231l211 272h332zM53 1540h291l303 -1196l311 1159h275l311 -1159l303 1196h238l-422 -1540h-279l-315 1171l-315 -1171h-279z" />
    <glyph glyph-name="wacute" unicode="&#x1e83;" horiz-adv-x="1849" 
d="M1053 1290h-209l176 307h295zM88 1126h283l213 -823l229 799h266l230 -799l213 823h237l-323 -1126h-279l-233 811l-234 -811h-278z" />
    <glyph glyph-name="Ygrave" unicode="&#x1ef2;" horiz-adv-x="1355" 
d="M811 1708h-231l-312 272h332zM815 0h-274v602l-521 938h320l369 -692l368 692h258l-520 -934v-606z" />
    <glyph glyph-name="ygrave.alt" unicode="&#x1ef3;" horiz-adv-x="1249" 
d="M745 1290h-208l-263 307h295zM293 -410q-79 0 -160 17v213h17q78 -29 148 -29q70 1 121 61q50 60 99 185l-450 1089h303l286 -778l279 778h246l-418 -1101q-32 -85 -54 -135t-63 -116t-86 -99t-117 -59t-151 -26z" />
    <glyph glyph-name="space.tnum" unicode="&#x2007;" 
 />
    <glyph glyph-name="minus.tnum" unicode="&#x2012;" 
d="M1112 477h-995v201h995v-201z" />
    <glyph glyph-name="endash" unicode="&#x2013;" horiz-adv-x="1376" 
d="M1221 543h-1065v196h1065v-196z" />
    <glyph glyph-name="emdash" unicode="&#x2014;" horiz-adv-x="2154" 
d="M1999 543h-1843v196h1843v-196z" />
    <glyph glyph-name="quoteleft" unicode="&#x2018;" horiz-adv-x="618" 
d="M266 1597h191l-82 -550h-256z" />
    <glyph glyph-name="quoteright" unicode="&#x2019;" horiz-adv-x="624" 
d="M334 1047h-191l82 550h256z" />
    <glyph glyph-name="quotesinglbase" unicode="&#x201a;" horiz-adv-x="569" 
d="M301 -252h-190l82 551h256z" />
    <glyph glyph-name="quotedblleft" unicode="&#x201c;" horiz-adv-x="983" 
d="M266 1597h180l-81 -550h-242zM639 1597h180l-82 -550h-241z" />
    <glyph glyph-name="quotedblright" unicode="&#x201d;" horiz-adv-x="983" 
d="M696 1047h-180l82 550h242zM324 1047h-181l82 550h242z" />
    <glyph glyph-name="quotedblbase" unicode="&#x201e;" horiz-adv-x="929" 
d="M664 -252h-181l82 551h242zM291 -252h-180l82 551h241z" />
    <glyph glyph-name="dagger" unicode="&#x2020;" horiz-adv-x="1093" 
d="M670 0h-246v913h-338v199h338v297h246v-297h338v-199h-338v-913z" />
    <glyph glyph-name="daggerdbl" unicode="&#x2021;" horiz-adv-x="1091" 
d="M668 0h-246v297h-287v199h287v417h-287v199h287v297h246v-297h288v-199h-288v-417h288v-199h-288v-297z" />
    <glyph glyph-name="bullet.round" unicode="&#x2022;" horiz-adv-x="626" 
d="M297 844q92 0 145 -56q54 -56 54 -143q0 -88 -54 -143q-54 -56 -145 -56q-92 0 -145 56t-54 143q0 87 54 143t145 56z" />
    <glyph glyph-name="ellipsis.round" unicode="&#x2026;" horiz-adv-x="1884" 
d="M1530 291q70 0 110 -42t41 -110q0 -67 -41 -109q-40 -42 -110 -42t-111 42t-41 110t41 109q41 42 111 42zM942 291q70 0 111 -42t41 -110q0 -67 -41 -109t-111 -42t-111 42t-41 110t41 109q41 42 111 42zM354 291q70 0 111 -42t41 -110q0 -67 -41 -109t-111 -42t-110 42
t-41 110q1 68 41 109q40 42 110 42z" />
    <glyph glyph-name="perthousand" unicode="&#x2030;" horiz-adv-x="2588" 
d="M1999 332q0 -88 46 -142t120 -53q74 0 119 53q45 54 45 142q-1 88 -47 141t-120 53t-118 -53q-45 -53 -45 -141zM1798 332q0 160 104 259t262 99q157 0 261 -99t104 -259t-104 -259t-261 -99q-158 0 -262 98q-104 100 -104 260zM1178 332q0 -88 46 -142t120 -53
q74 0 119 53q46 54 46 142t-46 141t-120 53q-73 0 -119 -53t-46 -141zM979 332q0 160 103 259t261 99q157 0 261 -99t104 -259t-103 -259t-261 -99t-262 98q-103 100 -103 260zM313 1077q0 -88 47 -141t121 -53t119 53t45 141q0 87 -46 141t-120 54t-120 -54t-46 -141z
M115 1077q0 160 103 259q103 100 261 100t261 -100q104 -100 104 -259q0 -160 -104 -259t-261 -99q-158 0 -261 99t-103 259zM209 0v14l639 742l516 653h252v-14l-641 -742l-516 -653h-250z" />
    <glyph glyph-name="guilsinglleft" unicode="&#x2039;" horiz-adv-x="741" 
d="M115 641l262 440h250l-279 -436l279 -444h-250z" />
    <glyph glyph-name="guilsinglright" unicode="&#x203a;" horiz-adv-x="741" 
d="M627 641l-262 -440h-250l278 436l-278 444h250z" />
    <glyph glyph-name="fraction" unicode="&#x2044;" horiz-adv-x="438" 
d="M-608 -188v16l762 930l649 839h244v-16l-762 -930l-650 -839h-243z" />
    <glyph glyph-name="zero.superior" unicode="&#x2070;" horiz-adv-x="964" 
d="M623 1153q0 163 -33 233t-109 70q-77 0 -109 -70t-32 -234t33 -232q33 -70 109 -70t108 70q33 70 33 233zM485 1614q371 0 371 -461t-377 -461q-371 0 -371 461t377 461z" />
    <glyph glyph-name="i.superior" unicode="&#x2071;" horiz-adv-x="481" 
d="M131 1460h219v-751h-219v751zM129 1741h223v-180h-223v180z" />
    <glyph glyph-name="four.superior" unicode="&#x2074;" horiz-adv-x="901" 
d="M489 1047v329l-223 -329h223zM819 879h-131v-170h-199v170h-413v159l364 559h248v-550h131v-168z" />
    <glyph glyph-name="five.superior" unicode="&#x2075;" horiz-adv-x="823" 
d="M684 1427h-356l-13 -170q47 4 88 5q158 0 244 -73t86 -207t-101 -209t-286 -75q-118 0 -209 25l-28 8v170h10q119 -39 225 -39q166 0 166 119t-199 119l-174 -13h-10l27 510h530v-170z" />
    <glyph glyph-name="six.superior" unicode="&#x2076;" horiz-adv-x="921" 
d="M606 987q0 63 -34 102t-100 39q-68 0 -102 -38t-34 -100q0 -64 35 -103t101 -39t100 38t34 101zM545 1284q131 0 209 -77t77 -212q0 -135 -94 -219q-93 -84 -281 -84q-349 0 -347 414q0 260 113 381q114 121 339 121q113 0 178 -19l25 -6v-168h-10q-94 29 -204 29
q-218 0 -218 -275q47 115 213 115z" />
    <glyph glyph-name="seven.superior" unicode="&#x2077;" horiz-adv-x="778" 
d="M57 1427v170h645v-127l-301 -761h-241l313 718h-416z" />
    <glyph glyph-name="eight.superior" unicode="&#x2078;" horiz-adv-x="913" 
d="M315 961q0 -55 38 -89t104 -32q65 0 103 32t38 80q0 94 -178 146q-105 -45 -105 -137zM340 1370q0 -94 147 -133q86 37 86 125q0 47 -30 75q-31 27 -87 27t-86 -26t-30 -68zM90 932q0 159 197 217q-170 63 -170 221q0 116 89 180t252 64t251 -60t88 -165q0 -76 -46 -127
t-124 -72q92 -29 144 -91t52 -149q0 -118 -97 -188t-271 -70t-270 65q-95 65 -95 175z" />
    <glyph glyph-name="nine.superior" unicode="&#x2079;" horiz-adv-x="921" 
d="M449 1178q67 0 101 38t34 100q0 64 -34 103t-100 39t-102 -38q-35 -38 -35 -102t35 -102t101 -38zM464 1614q349 0 349 -418q0 -498 -453 -498q-99 0 -178 19l-24 6v168h10q92 -29 202 -29q220 0 220 275q-49 -115 -213 -115q-131 0 -209 77t-78 213t94 219t280 83z" />
    <glyph glyph-name="plus.superior" unicode="&#x207a;" horiz-adv-x="1009" 
d="M602 719h-192v291h-289v159h289v291h192v-291h287v-159h-287v-291z" />
    <glyph glyph-name="minus.superior" unicode="&#x207b;" horiz-adv-x="1009" 
d="M889 1010h-768v159h768v-159z" />
    <glyph glyph-name="equal.superior" unicode="&#x207c;" horiz-adv-x="1011" 
d="M850 1159h-688v154h688v-154zM850 866h-688v152h688v-152z" />
    <glyph glyph-name="parenleft.superior" unicode="&#x207d;" horiz-adv-x="565" 
d="M96 1132q0 207 75 372t132 229l23 28h159q-21 -26 -57 -96q-120 -232 -122 -513q-1 -195 44 -352t90 -227l45 -69h-159q-33 33 -80 110q-150 242 -150 518z" />
    <glyph glyph-name="parenright.superior" unicode="&#x207e;" horiz-adv-x="565" 
d="M260 1165q0 145 -45 301t-90 226l-45 69h160q31 -31 74 -102q155 -252 155 -526q0 -207 -76 -375q-76 -167 -131 -226l-22 -28h-160q21 26 57 96q37 71 61 140t43 175t19 250z" />
    <glyph glyph-name="n.superior" unicode="&#x207f;" horiz-adv-x="978" 
d="M131 1460h172l41 -129q43 145 238 146q158 0 227 -97q47 -66 47 -229v-442h-223v442q0 71 -30 109t-107 38q-141 0 -142 -139v-450h-223v751z" />
    <glyph glyph-name="zero.inferior" unicode="&#x2080;" horiz-adv-x="964" 
d="M623 43q0 163 -33 233t-109 70q-77 0 -109 -70t-32 -234t33 -232q33 -70 109 -70t108 70q33 70 33 233zM485 504q371 0 371 -461t-377 -461q-371 0 -371 461t377 461z" />
    <glyph glyph-name="one.inferior" unicode="&#x2081;" horiz-adv-x="618" 
d="M483 -401h-219v698l-190 -59h-11v165l275 84h145v-888z" />
    <glyph glyph-name="two.inferior" unicode="&#x2082;" horiz-adv-x="804" 
d="M711 -229v-172h-619v149q20 20 102 95t134 128q53 53 97 121t44 123q0 119 -156 119q-84 0 -170 -25l-28 -8h-11v166q108 31 264 31t245 -69t89 -192t-119 -248q-65 -68 -144 -134q-78 -66 -99 -84h371z" />
    <glyph glyph-name="three.inferior" unicode="&#x2083;" horiz-adv-x="806" 
d="M285 139q178 0 178 101q0 94 -144 94q-90 0 -176 -25l-28 -8h-11v166q104 31 256 31t243 -60t91 -170q0 -162 -184 -202q92 -14 148 -70t57 -143q-1 -123 -107 -194t-291 -71q-120 0 -198 23l-25 8v166h10q106 -33 207 -33q172 0 172 109q0 59 -48 86t-150 26h-105v166
h105z" />
    <glyph glyph-name="four.inferior" unicode="&#x2084;" horiz-adv-x="901" 
d="M489 -63v329l-223 -329h223zM819 -231h-131v-170h-199v170h-413v159l364 559h248v-550h131v-168z" />
    <glyph glyph-name="five.inferior" unicode="&#x2085;" horiz-adv-x="823" 
d="M684 317h-356l-13 -170q47 4 88 5q158 0 244 -73t86 -207t-101 -209t-286 -75q-118 0 -209 25l-28 8v170h10q119 -39 225 -39q166 0 166 119t-199 119l-174 -13h-10l27 510h530v-170z" />
    <glyph glyph-name="six.inferior" unicode="&#x2086;" horiz-adv-x="921" 
d="M606 -123q0 63 -34 102t-100 39q-68 0 -102 -38t-34 -100q0 -64 35 -103t101 -39t100 38t34 101zM545 174q131 0 209 -77t77 -212q0 -135 -94 -219q-93 -84 -281 -84q-349 0 -347 414q0 260 113 381q114 121 339 121q113 0 178 -19l25 -6v-168h-10q-94 29 -204 29
q-218 0 -218 -275q47 115 213 115z" />
    <glyph glyph-name="seven.inferior" unicode="&#x2087;" horiz-adv-x="778" 
d="M57 317v170h645v-127l-301 -761h-241l313 718h-416z" />
    <glyph glyph-name="eight.inferior" unicode="&#x2088;" horiz-adv-x="913" 
d="M315 -150q0 -55 38 -88q38 -32 104 -32q65 0 103 32t38 80q0 94 -178 146q-105 -46 -105 -138zM340 260q0 -94 147 -133q86 37 86 125q0 47 -30 75q-31 27 -87 27t-86 -26t-30 -68zM90 -178q0 159 197 217q-170 63 -170 221q0 116 89 180t252 64t251 -60t88 -165
q0 -76 -46 -127t-124 -72q92 -29 144 -91t52 -149q0 -118 -97 -188t-271 -70t-270 65q-95 65 -95 175z" />
    <glyph glyph-name="nine.inferior" unicode="&#x2089;" horiz-adv-x="921" 
d="M449 68q67 0 101 38t34 100q0 64 -34 103t-100 39t-102 -38q-35 -38 -35 -102t35 -102t101 -38zM464 504q349 0 349 -418q0 -498 -453 -498q-110 0 -178 19l-24 6v168h10q92 -29 202 -29q220 0 220 275q-49 -115 -213 -115q-131 0 -209 77t-78 213t94 219t280 83z" />
    <glyph glyph-name="parenleft.inferior" unicode="&#x208d;" horiz-adv-x="565" 
d="M96 22q0 207 75 372t132 229l23 28h159q-21 -26 -57 -96q-120 -232 -122 -513q-1 -195 44 -352t90 -227l45 -69h-159q-33 33 -80 110q-150 242 -150 518z" />
    <glyph glyph-name="parenright.inferior" unicode="&#x208e;" horiz-adv-x="565" 
d="M260 55q0 145 -45 301t-90 226l-45 69h160q31 -31 74 -102q44 -71 75 -140t55 -175t25 -211q0 -207 -76 -375q-76 -167 -131 -226l-22 -28h-160q21 26 57 96q37 71 61 140t43 175t19 250z" />
    <glyph glyph-name="rupee" unicode="&#x20a8;" horiz-adv-x="1177" 
d="M1083 862h-241q-18 -139 -120 -221t-286 -92l494 -549h-326l-454 530v146h106q154 0 232 45t102 141h-440v158h440q-20 92 -98 138t-236 46h-106v205h933v-205h-385q106 -39 138 -184h247v-158z" />
    <glyph glyph-name="Euro" unicode="&#x20ac;" horiz-adv-x="1359" 
d="M950 184q122 0 230 37l34 15h17v-207q-121 -43 -297 -43q-266 0 -432 125t-226 335h-198v183h166q-2 25 -2 76t2 75h-166v183h198q60 211 226 335t432 125q150 0 262 -32l35 -11v-206h-17q-123 51 -266 51q-291 0 -391 -262h557l-41 -183h-555q-2 -22 -2 -60t4 -91h516
l-41 -183h-434q100 -262 389 -262z" />
    <glyph glyph-name="uni20BA" unicode="&#x20ba;" horiz-adv-x="1386" 
d="M532 203q262 0 405 125q142 125 142 411h224q0 -471 -340 -647q-178 -92 -480 -92h-221v459l-184 -58v166l184 58v135l-184 -58v168l184 58v481h270v-397l263 82v-166l-263 -82v-137l263 82v-166l-263 -82v-340z" />
    <glyph glyph-name="numero" unicode="&#x2116;" horiz-adv-x="2263" 
d="M1808 807q162 -1 162 237t-162 238t-162 -238t162 -237zM2187 1044q0 -194 -97 -292q-98 -98 -282 -98t-281 98q-97 100 -97 292t97 292t281 100t282 -100t97 -292zM188 1409h275l577 -975v975h242v-1409h-246l-606 999v-999h-242v1409z" />
    <glyph glyph-name="trademark" unicode="&#x2122;" horiz-adv-x="1685" 
d="M735 1540h262l164 -422l164 422h258v-668h-184v480l-172 -437h-156l-172 437v-480h-164v668zM45 1540h561v-154h-184v-514h-193v514h-184v154z" />
    <glyph glyph-name="onethird" unicode="&#x2153;" horiz-adv-x="2009" 
d="M1341 213v156h121q199 1 199 115t-166 114q-101 0 -176 -25l-29 -10h-16v162q104 33 262 33t254 -65t96 -164q0 -187 -198 -228q100 -13 159 -73t60 -152q0 -127 -111 -202t-301 -75q-131 0 -217 25l-29 8v162h17q115 -35 223 -35q193 0 192 129q0 125 -213 125h-127z
M100 -188v16l762 930l649 839h244v-16l-762 -930l-649 -839h-244zM545 664h-219v745l-242 -84h-16v164l329 108h148v-933z" />
    <glyph glyph-name="twothirds" unicode="&#x2154;" horiz-adv-x="2154" 
d="M1487 213v156h121q199 0 198 116q0 113 -166 113q-97 0 -178 -25l-26 -10h-17v162q104 33 262 33t254 -65q97 -65 97 -164q1 -187 -199 -228q99 -13 159 -73t60 -152q0 -127 -110 -202t-302 -75q-132 0 -215 25l-30 8v162h16q115 -35 223 -35q193 0 193 127t-213 127
h-127zM246 -188v16l762 930l649 839h244v-16l-762 -930l-650 -839h-243zM727 829v-165h-645v143q246 231 299 295q106 123 106 215q0 131 -170 131q-87 0 -174 -27l-30 -8h-17v164q114 33 276 33t252 -73t91 -204q0 -131 -126 -263q-69 -72 -156 -146t-109 -95h403z" />
    <glyph glyph-name="oneeighth" unicode="&#x215b;" horiz-adv-x="2050" 
d="M1405 68q0 -60 46 -96t123 -36t123 34t46 89q0 109 -205 172q-133 -59 -133 -163zM1574 621q-66 0 -104 -29q-36 -29 -36 -82t48 -94t120 -62q113 53 112 154q0 53 -37 83t-103 30zM1227 516q0 114 94 178t253 64t253 -60t94 -170q0 -156 -184 -219q213 -72 213 -250
q0 -119 -102 -189t-277 -71q-174 0 -274 65q-99 65 -99 179q0 164 215 238q-84 31 -135 91t-51 144zM100 -188v16l762 930l649 839h244v-16l-762 -930l-649 -839h-244zM545 664h-219v745l-242 -84h-16v164l329 108h148v-933z" />
    <glyph glyph-name="threeeighths" unicode="&#x215c;" horiz-adv-x="2162" 
d="M1518 68q0 -60 46 -96t123 -36t123 34t45 89q0 109 -204 172q-133 -59 -133 -163zM1546 510q0 -53 48 -94t120 -62q113 53 113 154q0 53 -37 83q-38 30 -104 30t-103 -29t-37 -82zM1339 516q1 114 95 178t253 64t253 -60t94 -170q0 -156 -185 -219q213 -72 213 -250
q0 -119 -102 -189t-276 -71q-174 0 -274 65q-99 65 -99 179q0 164 215 238q-84 31 -136 91t-51 144zM213 -188v16l762 930l649 839h244v-16l-762 -930l-649 -839h-244zM193 1065v156h122q199 1 199 115t-166 114q-98 0 -184 -25l-29 -10h-16v162q113 33 271 33t253 -65
q96 -65 96 -164q0 -187 -200 -228q100 -13 159 -73t60 -152q0 -127 -111 -202t-301 -75q-132 0 -207 25l-28 8v162h16q104 -35 213 -35q193 0 192 129q0 125 -213 125h-126z" />
    <glyph glyph-name="fiveeighths" unicode="&#x215d;" horiz-adv-x="2177" 
d="M1532 68q0 -60 46 -96t123 -36t123 34t46 89q0 109 -205 172q-133 -59 -133 -163zM1700 621q-66 0 -102 -29t-37 -82q0 -53 48 -94t120 -62q113 53 112 154q0 53 -37 83q-38 30 -104 30zM1354 516q0 114 94 178t253 64t253 -60t94 -170q0 -156 -184 -219
q213 -72 213 -250q-1 -119 -103 -189t-276 -71q-174 0 -274 65q-99 65 -99 179q0 164 215 238q-84 31 -135 91t-51 144zM227 -188v16l762 930l649 839h244v-16l-762 -930l-649 -839h-244zM725 1432h-377l-14 -197q49 6 100 6q164 0 253 -77t89 -215t-105 -218t-296 -80
q-129 0 -215 25l-31 8v166h16q117 -39 228 -39q188 0 188 139q0 133 -227 133l-168 -10h-16l28 524h547v-165z" />
    <glyph glyph-name="seveneighths" unicode="&#x215e;" horiz-adv-x="2025" 
d="M1380 68q0 -60 46 -96t123 -36t123 34t46 89q0 109 -205 172q-133 -59 -133 -163zM1549 621q-67 0 -103 -29t-37 -82q0 -53 48 -94t120 -62q113 53 113 154q0 53 -37 83t-104 30zM1202 516q0 114 94 178t253 64t253 -60t94 -170q0 -156 -184 -219q213 -72 213 -250
q0 -119 -102 -189q-103 -70 -277 -71q-174 0 -273 65t-99 179q0 164 215 238q-84 31 -136 91q-51 60 -51 144zM76 -188v16l762 930l649 839h244v-16l-762 -930l-650 -839h-243zM66 1432v165h677v-120l-329 -813h-234l338 768h-452z" />
    <glyph glyph-name="arrowleft" unicode="&#x2190;" horiz-adv-x="2048" 
d="M172 700l659 709h308l-584 -602l1370 12v-229l-1370 12l588 -602h-316z" />
    <glyph glyph-name="arrowup" unicode="&#x2191;" horiz-adv-x="2048" 
d="M1747 709h-16l-596 587l10 -1296h-242l10 1296l-596 -583h-16v280l727 686l719 -682v-288z" />
    <glyph glyph-name="arrowright" unicode="&#x2192;" horiz-adv-x="2048" 
d="M1876 709l-659 -709h-308l584 602l-1370 -12v229l1370 -12l-588 602h316z" />
    <glyph glyph-name="arrowdown" unicode="&#x2193;" horiz-adv-x="2048" 
d="M301 831h16l596 -587l-10 1296h242l-10 -1296l596 583h16v-280l-727 -686l-719 682v288z" />
    <glyph glyph-name="arrownorthwest" unicode="&#x2196;" horiz-adv-x="2048" 
d="M410 1409h1042l205 -195v-16l-891 16l1071 -1069l-172 -172l-1055 1086l17 -903h-17l-200 211v1042z" />
    <glyph glyph-name="arrownortheast" unicode="&#x2197;" horiz-adv-x="2048" 
d="M1638 1409v-1042l-200 -211h-17l17 903l-1055 -1086l-172 172l1071 1069l-891 -16v16l205 195h1042z" />
    <glyph glyph-name="arrowsoutheast" unicode="&#x2198;" horiz-adv-x="2048" 
d="M1638 0h-1042l-205 195v16l891 -16l-1071 1069l172 172l1055 -1086l-17 903h17l200 -211v-1042z" />
    <glyph glyph-name="arrowsouthwest" unicode="&#x2199;" horiz-adv-x="2048" 
d="M410 0v1042l200 211h17l-17 -903l1055 1086l172 -172l-1071 -1069l891 16v-16l-205 -195h-1042z" />
    <glyph glyph-name="minus" unicode="&#x2212;" horiz-adv-x="1392" 
d="M1237 477h-1081v201h1081v-201z" />
    <glyph glyph-name="radical" unicode="&#x221a;" horiz-adv-x="1327" 
d="M123 739h422l155 -481l371 1339h219l-467 -1597h-260l-190 543h-250v196z" />
    <glyph glyph-name="infinity" unicode="&#x221e;" horiz-adv-x="1867" 
d="M1329 825q-94 0 -158 -65q-63 -66 -116 -185q53 -121 116 -184t157 -63t150 66q54 68 54 182t-54 182q-55 67 -149 67zM539 328q94 0 157 66t117 184q-53 121 -117 184t-157 63q-94 0 -149 -66q-54 -67 -54 -181t54 -183q55 -67 149 -67zM1356 131q-279 0 -428 287
q-139 -287 -416 -287q-182 0 -296 122t-114 324q0 201 113 323t297 122q279 0 428 -287q139 287 416 287q182 0 296 -122t114 -324t-114 -324q-112 -122 -296 -121z" />
    <glyph glyph-name="integral" unicode="&#x222b;" horiz-adv-x="821" 
d="M666 1860q96 0 155 -13v-200h-16q-66 16 -129 16q-111 0 -154 -72q-27 -47 -26 -170v-1415q0 -113 -14 -168q-63 -256 -423 -256q-101 0 -155 12v201h16q66 -16 129 -16q111 0 154 71q27 47 26 170v1416q-1 113 13 168q62 256 424 256z" />
    <glyph glyph-name="approxequal" unicode="&#x2248;" horiz-adv-x="1392" 
d="M1184 915v-184q-48 -41 -129 -74q-80 -33 -156 -33t-207 55q-131 54 -200 54q-68 -1 -134 -27t-100 -55l-33 -26h-16v188q35 35 122 69t175 34t216 -55q128 -54 188 -54t124 27t99 55l34 26h17zM1184 530v-188q-35 -35 -122 -69q-87 -33 -175 -33t-216 54
q-129 54 -189 54t-124 -26t-98 -56l-35 -26h-16v184q48 41 129 74q80 32 156 32t206 -54q131 -54 200 -54q68 0 134 27t101 55l32 26h17z" />
    <glyph glyph-name="notequal" unicode="&#x2260;" horiz-adv-x="1392" 
d="M201 283v180h387l57 229h-444v180h493l56 232h163l-59 -232h338v-180h-387l-57 -229h444v-180h-494l-55 -232h-164l60 232h-338z" />
    <glyph glyph-name="lessequal" unicode="&#x2264;" horiz-adv-x="1392" 
d="M1118 0h-860v172h860v-172zM1118 1104v-195l-647 -215l647 -223v-195l-860 304v221z" />
    <glyph glyph-name="greaterequal" unicode="&#x2265;" horiz-adv-x="1392" 
d="M274 172h861v-172h-861v172zM274 276v195l648 215l-648 223v195l861 -303v-221z" />
    <glyph glyph-name="g" horiz-adv-x="1351" 
d="M655 221q267 0 267 367t-267 366q-266 0 -266 -366t266 -367zM1184 1126v-962q0 -86 -2 -135t-20 -122t-56 -124q-139 -201 -520 -201q-199 0 -353 45l-45 17v229h17q199 -90 399 -90t277 123q41 66 41 241v78q-72 -201 -340 -200q-223 0 -352 147q-128 148 -128 410
t134 416t380 153q244 0 330 -188l74 163h164z" />
    <glyph glyph-name="i" horiz-adv-x="602" 
d="M168 1126h266v-1126h-266v1126zM164 1540h274v-242h-274v242z" />
    <glyph glyph-name="j" horiz-adv-x="614" 
d="M176 1540h275v-242h-275v242zM-86 -197h16q43 -8 88 -8q100 0 138 66q25 45 24 151v1114h266v-1101q0 -180 -49 -267q-94 -160 -364 -159l-119 8v196z" />
    <glyph glyph-name="k" 
d="M168 1597h266v-942l422 471h295l-422 -458l438 -668h-311l-307 492l-115 -115v-377h-266v1597z" />
    <glyph glyph-name="y" horiz-adv-x="1249" 
d="M1182 1126l-594 -1527h-271l185 421l-434 1106h303l278 -798l287 798h246z" />
    <glyph glyph-name="K" horiz-adv-x="1429" 
d="M188 1540h271v-688l610 688h299l-573 -639l585 -901h-323l-447 709l-151 -156v-553h-271v1540z" />
    <glyph glyph-name="cent.gap" horiz-adv-x="1017" 
d="M918 322v-197q-82 -29 -205 -37l4 -219h-232l11 233q-190 40 -292 180t-102 359t106 359t306 180l-2 229h229l-10 -221q116 -9 166 -29l21 -6v-197h-19q-109 43 -245 43t-216 -92t-80 -263t81 -268t235 -97q111 0 194 32l31 11h19z" />
    <glyph glyph-name="cent.smcp" horiz-adv-x="954" 
d="M324 606q0 -190 153 -246l43 494q-196 -37 -196 -248zM854 827h-12q-76 18 -158 29l-45 -516q92 4 172 29l31 6h12v-180q-106 -29 -229 -31l-13 -178h-180l25 190q-168 35 -261 145q-94 109 -94 289t116 294t314 130l15 183h180l-25 -185l152 -24v-181z" />
    <glyph glyph-name="cent.gap.smcp" horiz-adv-x="882" 
d="M782 821h-16q-90 33 -194 33t-163 -66t-59 -186t58 -188q58 -66 163 -66q104 0 170 25l25 8h16v-186q-66 -23 -161 -29l4 -180h-224l11 194q-150 37 -230 145q-80 107 -80 277t84 280t242 142l-2 193h223l-10 -183q66 -7 143 -26v-187z" />
    <glyph glyph-name="dollar.gap" horiz-adv-x="1138" 
d="M131 309h19q190 -76 338 -76q270 0 272 162q0 76 -66 128t-158 87t-186 76t-160 120q-66 80 -66 208t93 218q92 90 260 120l-2 188h227l-12 -178q147 -8 244 -39l35 -8v-201h-17q-172 62 -307 62q-248 1 -250 -144q0 -57 47 -100t118 -68q175 -61 305 -136
q71 -40 118 -117t47 -181q0 -158 -100 -253t-279 -122l4 -186h-227l10 176q-155 8 -270 47l-37 12v205z" />
    <glyph glyph-name="dollar.pl" horiz-adv-x="1329" 
d="M367 1124q0 -76 59 -122t174 -80l35 364q-268 -8 -268 -162zM973 429q-1 81 -59 133t-166 93l-39 -401q139 8 201 51t63 124zM150 342h18q150 -61 358 -82l45 449q-82 25 -133 42t-119 52q-67 35 -105 71t-66 96t-27 132q0 172 140 267t390 104l17 198h198l-28 -203
q180 -18 276 -45l39 -10v-201h-18q-133 49 -320 68l-41 -408q98 -30 165 -56q188 -74 246 -189q36 -72 36 -166q1 -189 -141 -285t-388 -108l-16 -199h-199l27 201q-189 12 -311 51l-43 12v209z" />
    <glyph glyph-name="dollar.gap.pl" horiz-adv-x="1212" 
d="M131 346h16q207 -84 404 -84q133 0 204 48t71 124t-40 120q-39 46 -100 75t-136 55t-150 56t-136 71t-100 111t-39 161q0 154 101 252t286 127l-2 209h233l-12 -198q156 -8 268 -39l39 -13v-209h-16q-186 66 -336 66q-282 0 -283 -162q1 -66 53 -112t130 -70
q194 -62 336 -135q78 -41 130 -123t52 -195q0 -172 -111 -274t-305 -131l4 -207h-233l10 199q-90 4 -175 20t-124 31l-39 14v213z" />
    <glyph glyph-name="period" horiz-adv-x="565" 
d="M147 270h279v-270h-279v270z" />
    <glyph glyph-name="periodcentered" horiz-adv-x="356" 
d="M45 705h266v-271h-266v271z" />
    <glyph glyph-name="colon" horiz-adv-x="622" 
d="M172 1110h279v-262h-279v262zM172 262h279v-262h-279v262z" />
    <glyph glyph-name="semicolon" horiz-adv-x="622" 
d="M180 270h271l-160 -573h-201zM172 1110h279v-262h-279v262z" />
    <glyph glyph-name="question" horiz-adv-x="1122" 
d="M373 258h274v-258h-274v258zM123 1290v209q155 57 397 57t377 -101t135 -284q0 -141 -64 -223t-135 -139t-107 -91t-62 -85t-29 -86q-4 -35 -4 -101h-242q0 92 5 138t39 116t104 136q10 8 66 58t79 76t49 77q27 51 27 104q0 96 -72 148q-72 53 -211 53t-291 -45l-45 -17
h-16z" />
    <glyph glyph-name="exclam" horiz-adv-x="700" 
d="M217 1540h291l-29 -1094h-233zM225 258h275v-258h-275v258z" />
    <glyph glyph-name="questiondown" horiz-adv-x="974" 
d="M662 877h-279v249h279v-249zM909 -150v-210q-155 -58 -397 -58t-377 102t-135 285q0 139 69 225t137 137q68 53 103 85t60 84t28 88q4 37 4 110h244q0 -94 -5 -144t-40 -121t-102 -134q-12 -12 -68 -58t-80 -72t-50 -76t-26 -103q0 -96 74 -150t211 -53q76 0 159 16
t130 33l45 14h16z" />
    <glyph glyph-name="exclamdown" horiz-adv-x="653" 
d="M453 -401h-291l31 1099h229zM446 877h-278v249h278v-249z" />
    <glyph glyph-name="questiondown.uc" horiz-adv-x="1089" 
d="M748 1290h-279v250h279v-250zM995 252v-211q-155 -57 -397 -57t-377 102t-135 285q0 142 70 227t137 139q67 53 102 85t60 84t28 90q4 38 4 116h244q0 -100 -6 -151t-39 -122t-102 -134q-8 -9 -66 -59t-82 -75t-50 -75t-26 -105q0 -96 74 -149q74 -54 218 -54t282 50
l45 14h16z" />
    <glyph glyph-name="questiondown.round.uc" horiz-adv-x="1089" 
d="M995 252v-211q-155 -57 -397 -57t-377 102t-135 285q0 140 69 225t137 136q68 52 87 71q74 68 91 128t17 173h244q0 -98 -5 -148t-39 -122q-34 -70 -103 -134q-12 -12 -68 -58t-80 -72t-50 -76t-26 -103q0 -96 74 -149q74 -54 218 -54t282 50l45 14h16zM608 1249
q-74 0 -116 42t-41 110q0 67 42 109q41 42 115 42t116 -42t42 -110t-42 -109q-42 -42 -116 -42z" />
    <glyph glyph-name="exclamdown.uc" horiz-adv-x="700" 
d="M483 0h-290l30 1112h230zM477 1290h-278v250h278v-250z" />
    <glyph glyph-name="exclamdown.round.uc" horiz-adv-x="700" 
d="M338 1249q-74 0 -116 42t-42 110q0 67 42 109t116 42t116 -42t42 -110t-42 -109q-42 -42 -116 -42zM483 0h-290l30 1104h230z" />
    <glyph glyph-name="multiply.full" horiz-adv-x="1744" 
d="M1577 145l-172 -157l-535 567l-542 -567l-164 151l551 566l-547 559l172 157l534 -567l543 567l164 -151l-551 -565z" />
    <glyph glyph-name="parenleft.case" horiz-adv-x="739" 
d="M377 704q-1 -172 27 -327q28 -156 87 -304t123 -229l29 -32h-197q-41 35 -105 131t-108 191q-43 95 -78 250q-36 155 -36 321q0 165 34 319t81 253q100 206 180 286l32 34h197q-11 -11 -29 -33t-64 -104t-81 -176t-63 -251t-29 -329z" />
    <glyph glyph-name="parenright.case" horiz-adv-x="739" 
d="M621 704q0 -166 -34 -319q-34 -154 -82 -253q-98 -202 -177 -286l-35 -34h-197q10 12 28 34t65 103q46 82 81 176t64 251t28 329q0 171 -28 327t-87 307q-60 151 -124 226l-27 32h197q44 -37 107 -132t106 -190t79 -250t36 -321z" />
    <glyph glyph-name="bracketleft.case" horiz-adv-x="839" 
d="M188 1597h541v-196h-299v-1393h299v-196h-541v1785z" />
    <glyph glyph-name="bracketright.case" horiz-adv-x="843" 
d="M655 -188h-540v196h299v1393h-299v196h540v-1785z" />
    <glyph glyph-name="braceleft.case" horiz-adv-x="837" 
d="M727 1597v-196q-121 0 -174 -29t-53 -129v-297q0 -151 -72 -202q-37 -26 -96 -39q120 -28 147 -106q21 -60 21 -136v-297q0 -100 53 -129t174 -29v-196q-98 0 -149 3t-119 22t-111 57t-63 93q-20 54 -24 89q-3 35 -3 96v305q0 82 -42 106t-138 23v197q96 -1 138 23
t42 106v305q0 61 3 96t24 89q41 111 174 150q68 19 119 22t149 3z" />
    <glyph glyph-name="braceright.case" horiz-adv-x="837" 
d="M111 -188v196q121 0 174 29t53 129v297q0 153 72 202q37 26 96 40q-119 28 -148 105q-20 57 -20 136v297q0 100 -53 129t-174 29v196q98 0 149 -3t119 -22q68 -20 111 -58t63 -92q19 -54 23 -89t4 -96v-305q0 -82 42 -106t138 -23v-197q-96 0 -138 -24t-42 -105v-305
q0 -61 -3 -96t-23 -89q-42 -111 -175 -150q-68 -19 -119 -22t-149 -3z" />
    <glyph glyph-name="divide" horiz-adv-x="1392" 
d="M836 29h-279v237h279v-237zM557 1126h279v-237h-279v237zM1237 481h-1081v193h1081v-193z" />
    <glyph glyph-name="arrowright.long" horiz-adv-x="2867" 
d="M2695 709l-659 -709h-307l583 602l-2189 -12v229l2189 -12l-588 602h316z" />
    <glyph glyph-name="arrowleft.long" horiz-adv-x="2867" 
d="M172 700l659 709h308l-584 -602l2189 12v-229l-2189 12l588 -602h-316z" />
    <glyph glyph-name="bullet" horiz-adv-x="626" 
d="M111 831h372v-372h-372v372z" />
    <glyph glyph-name="ellipsis" horiz-adv-x="1884" 
d="M1401 254h258v-254h-258v254zM813 254h258v-254h-258v254zM225 254h258v-254h-258v254z" />
    <glyph glyph-name="commaaccent" 
d="M492 -164h249l-127 -254h-200z" />
    <glyph glyph-name="dieresis.round" 
d="M827 1554q61 0 100 -36q38 -36 38 -96t-37 -96q-36 -36 -100 -36t-101 36t-37 95t38 96t99 37zM401 1554q61 0 100 -36q38 -36 38 -96t-37 -96q-36 -36 -100 -36t-101 36t-37 95t38 96t99 37z" />
    <glyph glyph-name="dieresis.narrow" 
d="M696 1540h226v-233h-226v233zM307 1540h225v-233h-225v233z" />
    <glyph glyph-name="dieresis.narrow.round" 
d="M811 1554q61 0 98 -36t37 -96t-37 -96t-98 -36t-98 36t-37 95t37 96t98 37zM418 1554q61 0 98 -36t37 -96t-37 -96t-98 -36t-99 36q-37 36 -36 95q0 59 36 97q38 36 99 36z" />
    <glyph glyph-name="dotaccent.round" 
d="M614 1569q74 0 116 -39t42 -107q0 -69 -42 -107t-116 -38t-116 39t-41 107q-1 68 41 106q42 39 116 39z" />
    <glyph glyph-name="macron.narrow" 
d="M356 1475h516v-164h-516v164z" />
    <glyph glyph-name="dieresis.case" 
d="M729 1937h250v-229h-250v229zM250 1937h250v-229h-250v229z" />
    <glyph glyph-name="dieresis.round.case" 
d="M844 1960q63 0 101 -37t38 -98t-38 -99t-101 -36q-63 0 -102 36q-38 36 -38 98t38 99q39 37 102 37zM385 1960q63 0 101 -37t38 -98t-38 -99t-101 -36q-63 0 -101 36t-38 98t38 99t101 37z" />
    <glyph glyph-name="dieresis.narrow.case" 
d="M698 1937h244v-229h-244v229zM287 1937h243v-229h-243v229z" />
    <glyph glyph-name="dieresis.narrow.round.case" 
d="M817 1960q63 0 101 -37t38 -98t-37 -99q-37 -36 -101 -36t-102 36t-38 98t38 99t101 37zM412 1960q63 0 101 -37t38 -98t-38 -99t-101 -36q-63 0 -102 36q-38 36 -38 98t38 99q39 37 102 37z" />
    <glyph glyph-name="dotaccent.case" 
d="M471 1937h287v-229h-287v229z" />
    <glyph glyph-name="dotaccent.round.case" 
d="M614 1982q74 0 116 -40t42 -107q0 -69 -42 -107t-116 -38t-116 39t-41 107q-1 68 41 106q42 40 116 40z" />
    <glyph glyph-name="macron.case" 
d="M254 1911h721v-176h-721v176z" />
    <glyph glyph-name="macron.narrow.case" 
d="M303 1911h623v-176h-623v176z" />
    <glyph glyph-name="grave.case" 
d="M725 1708h-231l-312 272h332z" />
    <glyph glyph-name="acute.case" 
d="M735 1708h-231l211 272h332z" />
    <glyph glyph-name="hungarumlaut.case" 
d="M514 1708h-192l194 272h246zM903 1708h-192l215 272h245z" />
    <glyph glyph-name="circumflex.case" 
d="M481 1980h267l237 -272h-237l-140 152l-137 -152h-227z" />
    <glyph glyph-name="caron.case" 
d="M748 1708h-267l-237 272h241l136 -159l133 159h231z" />
    <glyph glyph-name="breve.case" 
d="M770 1980h191q-1 -284 -347 -284t-346 284h191q-1 -133 155 -133t156 133z" />
    <glyph glyph-name="ring.case" 
d="M508 1810q0 -48 29 -76t77 -28t78 29q29 29 29 75t-29 76q-29 29 -78 29q-50 0 -78 -29t-28 -76zM348 1810q0 102 72 164t194 62t195 -62q72 -62 72 -164t-72 -163t-195 -61q-122 0 -194 60q-72 62 -72 164z" />
    <glyph glyph-name="tilde.case" 
d="M270 1708v158q86 82 217 82q66 0 163 -36q98 -36 142 -36t91 17t71 36l25 19h16v-158q-86 -82 -217 -82q-66 0 -163 36t-141 36t-91 -18t-72 -36l-24 -18h-17z" />
    <glyph glyph-name="dagger.sups" horiz-adv-x="956" 
d="M578 754h-199v565h-244v160h244v192h199v-192h243v-160h-243v-565z" />
    <glyph glyph-name="daggerdbl.sups" horiz-adv-x="956" 
d="M573 754h-190v188h-223v156h223v225h-223v156h223v192h190v-192h224v-156h-224v-225h224v-156h-224v-188z" />
    <glyph glyph-name="one.pl" horiz-adv-x="894" 
d="M690 0h-270v1303l-326 -111h-16v209l426 139h186v-1540z" />
    <glyph glyph-name="two.pl" horiz-adv-x="1224" 
d="M1094 215v-215h-971v186q55 56 157 162q299 308 357 392q115 167 131 234q16 66 16 124q0 122 -74 188t-218 66q-70 0 -152 -14t-129 -31l-47 -15h-17v211q174 53 381 53q270 0 408 -114q137 -115 137 -314t-139 -380q-76 -98 -134 -163t-182 -187t-184 -183h660z" />
    <glyph glyph-name="three.pl" horiz-adv-x="1210" 
d="M412 903q340 0 342 236q0 213 -277 213q-140 0 -272 -41l-45 -13h-17v209q162 49 363 49q258 0 395 -103t137 -279q0 -140 -81 -234t-224 -125q150 -23 244 -123t94 -258q0 -207 -163 -329t-445 -121q-178 0 -295 36l-41 13v207h16q158 -52 314 -52q157 0 243 66t86 196
t-114 197q-86 49 -262 49h-148v207h150z" />
    <glyph glyph-name="four.pl" horiz-adv-x="1363" 
d="M778 532v730l-446 -730h446zM1262 324h-234v-324h-250v324h-688v188l627 1028h311v-1008h234v-208z" />
    <glyph glyph-name="five.pl" 
d="M1024 1327h-582l-24 -391q74 8 147 8q261 0 401 -129t140 -350t-161 -351t-439 -130q-90 0 -178 13t-131 28l-45 12v213h16q174 -62 336 -62t242 74t81 201q0 279 -370 278q-97 0 -217 -12l-41 -6h-17l43 817h799v-213z" />
    <glyph glyph-name="six.pl" horiz-adv-x="1380" 
d="M715 776q-127 0 -201 -79t-74 -217t70 -224t198 -86t200 83t71 222t-69 220t-195 81zM791 973q213 0 339 -131t127 -356q0 -224 -146 -368t-404 -145q-299 0 -437 193q-113 160 -112 516q0 461 168 668t522 206q169 0 270 -28l37 -8v-213h-16q-139 45 -291 45
q-228 0 -322 -142t-94 -452q37 104 130 160t229 55z" />
    <glyph glyph-name="seven.pl" horiz-adv-x="1146" 
d="M66 1327v213h991v-154l-512 -1386h-295l520 1327h-704z" />
    <glyph glyph-name="nine.pl" horiz-adv-x="1380" 
d="M666 764q126 0 200 79t74 217t-70 224t-198 86t-199 -83q-72 -83 -72 -222t69 -220t196 -81zM123 1055q0 225 146 368t405 144q299 0 436 -193q113 -160 113 -516q0 -461 -168 -668t-523 -206q-166 0 -270 28l-37 8v213h17q139 -45 290 -45q228 0 322 142t94 452
q-37 -104 -130 -159t-228 -56q-213 -1 -340 131t-127 357z" />
    <glyph glyph-name="zero.pl" horiz-adv-x="1462" 
d="M1018 770q0 316 -68 456t-220 140t-218 -139q-68 -139 -68 -457t68 -456q68 -140 220 -140t218 140q68 140 68 456zM1305 756q0 -152 -26 -285t-86 -251t-178 -182q-117 -64 -271 -65q-284 0 -414 152t-159 400q-13 107 -13 259q0 317 111 536q60 118 178 182
q117 64 271 65q283 0 413 -151q131 -151 161 -401q14 -107 13 -259z" />
    <glyph glyph-name="numbersign.pl" horiz-adv-x="1724" 
d="M711 1020l-52 -500h355l51 500h-354zM1565 1212l-19 -192h-254l-51 -500h256l-18 -192h-256l-33 -328h-227l32 328h-354l-33 -328h-227l33 328h-254l18 192h254l51 500h-256l19 192h256l33 328h227l-33 -328h354l33 328h227l-32 -328h254z" />
    <glyph glyph-name="Euro.pl" horiz-adv-x="1474" 
d="M1028 188q134 0 254 43l37 15h16v-213q-131 -49 -323 -49q-289 0 -466 136t-243 367h-217v197h182q-2 29 -2 86t2 86h-182v197h217q66 231 243 367t466 136q172 0 286 -36l37 -13v-213h-16q-135 57 -295 58q-326 0 -436 -299h620l-45 -197h-616q-2 -27 -2 -84t4 -88h573
l-45 -197h-485q115 -299 436 -299z" />
    <glyph glyph-name="sterling.pl" 
d="M123 696v205h166q-68 135 -68 250q-1 188 145 297t388 108q148 0 243 -28l35 -8v-213h-16q-127 45 -258 45t-197 -52q-65 -52 -65 -137q0 -86 41 -159l27 -54q19 -37 26 -49h401v-205h-327q8 -39 8 -94q0 -272 -217 -393h659v-209h-991v168q274 137 274 397q0 57 -18 131
h-256z" />
    <glyph glyph-name="yen.pl" horiz-adv-x="1486" 
d="M1237 307h-363v-307h-262v307h-362v172h362v158h-362v172h315l-483 731h305l379 -608l383 608h256l-485 -731h317v-172h-363v-158h363v-172z" />
    <glyph glyph-name="uni20BA.pl" horiz-adv-x="1484" 
d="M559 207q291 0 449 139t157 455h228q0 -514 -371 -703q-190 -98 -514 -98h-223v506l-199 -64v172l199 64v156l-199 -64v172l199 64v534h274v-444l289 94v-172l-289 -94v-156l289 94v-172l-289 -94v-389z" />
    <glyph glyph-name="rupee.pl" horiz-adv-x="1267" 
d="M1165 956h-264q-20 -156 -133 -246t-315 -100l540 -610h-331l-502 594v151h116q174 -1 260 51t109 160h-485v164h485q-25 109 -109 160t-260 51h-116v209h1005v-209h-422q117 -41 152 -211h270v-164z" />
    <glyph glyph-name="one.tnum.pl" 
d="M180 0v207h359v1096l-363 -111h-16v209l465 139h184v-1333h321v-207h-950z" />
    <glyph glyph-name="one.tnum" 
d="M182 0v201h353v975l-357 -101h-16v207l456 127h183v-1208h319v-201h-938z" />
    <glyph glyph-name="perthousand.pl" horiz-adv-x="2789" 
d="M2519 361q0 99 -52 159t-135 62q-84 0 -136 -61t-52 -160t52 -159t136 -60t135 60q52 60 52 159zM2332 752q168 0 280 -109t112 -282t-112 -281t-280 -109q-168 1 -281 109q-112 108 -112 281t112 282t281 109zM1257 361q1 -99 53 -159t135 -60t135 60t52 159t-52 159
t-135 62q-83 0 -135 -61t-53 -160zM1445 752q169 0 281 -109t111 -282q0 -173 -112 -281q-113 -108 -281 -109q-168 1 -280 109t-111 281q0 173 111 282q112 109 281 109zM330 1179q0 -99 52 -159t135 -62q83 0 135 60t52 160t-52 160t-135 60t-135 -60t-52 -159zM517 788
q-169 0 -281 109t-111 282q0 173 112 281q113 108 281 109q168 0 280 -109q112 -110 112 -282t-112 -281t-281 -109zM227 0v14l688 809l562 717h258v-14l-688 -809l-562 -717h-258z" />
    <glyph glyph-name="daggerdbl.pl" horiz-adv-x="1175" 
d="M713 0h-250v330h-316v202h316v476h-316v202h316v330h250v-330h315v-202h-315v-476h315v-202h-315v-330z" />
    <glyph glyph-name="dagger.pl" horiz-adv-x="1175" 
d="M713 0h-250v1008h-369v202h369v330h250v-330h368v-202h-368v-1008z" />
    <glyph glyph-name="ordfeminine.alt" horiz-adv-x="909" 
d="M287 1026q0 -92 123 -92q152 0 151 176v25h-41q-233 0 -233 -109zM584 911q-42 -137 -258 -137q-108 0 -184 62q-75 62 -74 168q0 248 411 247h82q0 82 -22 111q-35 45 -146 45t-198 -31l-31 -10h-12v158q102 35 276 35q231 0 305 -97q45 -59 45 -207v-223q0 -29 2 -45
q2 -17 22 -35t54 -18l37 2v-152q-63 -8 -137 -8q-153 0 -172 135z" />
    <glyph glyph-name="eight.pl" horiz-adv-x="1363" 
d="M408 410q0 -115 72 -179q73 -63 201 -63t202 64q73 64 73 172q0 106 -85 177t-246 128q-217 -102 -217 -299zM915 1159q0 97 -61 155t-171 58t-172 -58t-62 -154q-1 -97 73 -163t213 -116q78 41 129 111t51 167zM174 1169q0 183 138 289t372 106t370 -102
q136 -104 136 -282q0 -258 -283 -369q150 -55 239 -159t89 -253q0 -195 -153 -309q-152 -114 -406 -115q-254 0 -401 112q-146 112 -146 300q0 268 324 399q-129 52 -204 150t-75 233z" />
    <glyph glyph-name="percent.pl" horiz-adv-x="1961" 
d="M1255 362q1 -98 55 -158t136 -60t136 60t54 158t-54 158t-136 62q-82 0 -136 -61t-55 -159zM1055 360q0 174 111 284q112 110 281 110t279 -108t111 -282q0 -174 -112 -283q-113 -110 -281 -110q-168 -1 -278 107t-111 282zM326 1180q0 -100 54 -160t138 -62q84 0 138 60
t54 162q0 100 -54 160t-138 60t-138 -60t-54 -160zM125 1180q0 172 113 280q112 108 280 109q168 0 281 -109q113 -108 113 -280t-114 -281q-112 -109 -280 -109t-280 110q-112 108 -113 280zM227 0v16l688 807l562 717h258v-12l-688 -811l-562 -717h-258z" />
    <glyph glyph-name="ring.low.case" 
d="M494 1686q0 -53 32 -88q33 -34 88 -34t88 34t33 88t-33 87t-88 33t-88 -33q-32 -34 -32 -87zM328 1699q0 115 82 185t204 70t205 -70q82 -70 82 -186t-79 -178q-79 -64 -208 -64q-130 0 -208 64t-78 179z" />
    <glyph glyph-name="ring.low.cap" 
d="M494 1559q0 -53 32 -88q33 -33 88 -33t88 34t33 86q0 54 -33 88t-88 34t-88 -34q-32 -34 -32 -87zM328 1572q0 116 82 186t204 69q122 0 205 -70q82 -69 82 -185t-83 -188t-204 -72q-122 0 -204 72t-82 188z" />
    <glyph glyph-name="ring.low.smcp" 
d="M498 1346q0 -51 32 -84t84 -33q53 0 85 33t32 84t-32 84q-32 32 -85 32t-85 -32q-31 -33 -31 -84zM332 1359q0 115 80 183t202 68t203 -69q80 -69 80 -183t-77 -175q-77 -63 -206 -63q-130 0 -206 62t-76 177z" />
    <glyph glyph-name="ring.low" 
d="M510 1419q0 -45 28 -73t76 -29q48 0 77 29q28 30 28 74t-28 73t-77 29q-48 0 -76 -29t-28 -74zM352 1419q0 97 70 157t192 60t193 -60q70 -60 70 -156t-70 -157t-193 -61q-122 0 -192 60t-70 157z" />
    <glyph glyph-name="cent.tnum" 
d="M373 654q0 -140 62 -233t179 -130l68 710q-152 -20 -230 -113q-78 -94 -79 -234zM135 652q0 234 151 376q151 143 410 162l17 219h192l-26 -223q118 -9 194 -27l27 -6v-190h-19q-104 29 -221 38l-67 -731q123 4 247 35l41 10h19v-190q-154 -39 -322 -39l-16 -217h-193
l27 231q-217 42 -339 180t-122 372z" />
    <glyph glyph-name="cent.gap.tnum" 
d="M1079 322v-197q-98 -31 -241 -39l2 -217h-232l10 229q-221 40 -342 180q-120 140 -120 363t126 365t355 176l-2 227h231l-10 -219q137 -9 197 -31l26 -6v-197h-20q-123 43 -285 43t-260 -93t-98 -263t98 -267t283 -97q136 0 227 32l35 11h20z" />
    <glyph glyph-name="dollar.tnum" 
d="M354 1030q0 -66 50 -106t147 -74l31 324q-228 -15 -228 -144zM887 377q0 67 -50 111t-143 81l-32 -336q225 15 225 144zM145 307h17q139 -51 323 -69l39 387q-92 31 -151 57q-174 75 -228 179q-33 65 -32 151q0 166 128 257t357 101l12 170h195l-23 -174q174 -15 250 -39
l35 -8v-205h-16q-123 41 -291 55l-39 -368q169 -51 276 -122q133 -89 132 -269t-128 -270t-354 -101l-12 -170h-195l21 172q-167 12 -277 45l-39 12v209z" />
    <glyph glyph-name="dollar.gap.tnum" 
d="M154 309h18q198 -76 358 -76q299 0 297 164q0 63 -50 111t-126 74q-201 71 -327 137q-76 39 -126 111t-51 171q1 141 99 233t278 120l-2 186h228l-13 -178q161 -9 260 -39l37 -8v-201h-18q-180 62 -326 62q-270 1 -270 -144q0 -93 135 -150q59 -26 186 -70t222 -111
q59 -41 97 -111t38 -160q0 -158 -108 -253t-296 -122l4 -186h-227l10 176q-163 8 -288 47l-39 12v205z" />
    <glyph glyph-name="dollar.pl.tnum" 
d="M338 1126q0 -76 54 -120t157 -80l35 360q-246 -13 -246 -160zM901 426q0 143 -205 225l-37 -397q129 8 186 50q56 42 56 122zM123 342h18q143 -61 338 -82l43 449q-258 81 -343 169q-85 89 -85 224q0 172 133 267t373 104l14 198h197l-27 -203q173 -18 263 -45l36 -10
v-201h-18q-129 49 -303 68l-39 -408q74 -23 125 -41q50 -18 112 -53q186 -106 187 -306q0 -379 -504 -404l-16 -199h-197l27 201q-179 12 -295 51l-39 12v209z" />
    <glyph glyph-name="dollar.gap.pl.tnum" 
d="M135 346h17q210 -84 376 -84q310 0 310 184q0 72 -52 123t-132 78q-191 65 -342 136q-79 38 -131 116t-52 184q0 154 102 253t289 128l-2 207h234l-13 -198q151 -8 273 -39l39 -13v-209h-17q-188 66 -340 66q-288 0 -286 -162q0 -66 52 -112t131 -70q201 -64 342 -135
q79 -41 131 -123t52 -195q0 -172 -112 -274t-308 -131l4 -207h-233l10 199q-90 4 -176 20t-125 31l-41 14v213z" />
    <glyph glyph-name="plus.tnum" 
d="M731 29h-233v448h-381v201h381v448h233v-448h381v-201h-381v-448z" />
    <glyph glyph-name="two.pl.tnum" 
d="M1098 215v-215h-975v186q55 56 159 162q305 311 368 406q105 158 121 222q15 64 15 122q0 122 -74 188t-218 66q-70 0 -152 -14t-129 -31l-47 -15h-16v211q174 53 380 53q270 0 408 -114q137 -115 137 -314t-139 -380q-76 -98 -134 -163t-182 -187t-184 -183h662z" />
    <glyph glyph-name="three.pl.tnum" 
d="M418 903q336 0 338 238q0 104 -62 157q-62 54 -207 54q-146 0 -278 -41l-45 -13h-17v209q162 49 371 49q268 0 395 -101t127 -277q0 -143 -79 -238q-80 -94 -226 -125q154 -25 246 -124t92 -261q-1 -205 -153 -326t-443 -120q-188 0 -305 36l-41 13v207h16
q158 -51 322 -52q319 0 319 250q0 143 -112 209q-86 49 -260 49h-148v207h150z" />
    <glyph glyph-name="four.pl.tnum" 
d="M696 532v730l-395 -730h395zM1157 324h-213v-324h-248v324h-635v188l574 1028h309v-1008h213v-208z" />
    <glyph glyph-name="five.pl.tnum" 
d="M1001 1327h-538l-21 -391q68 8 136 8q242 0 370 -130t129 -350t-149 -350t-414 -130q-84 0 -168 13t-125 28l-43 12v213h17q166 -62 313 -62t219 74t72 201q0 279 -334 278q-88 0 -205 -12l-39 -6h-14l41 817h753v-213z" />
    <glyph glyph-name="six.pl.tnum" 
d="M636 776q-112 0 -175 -78t-63 -217t58 -225q60 -86 174 -86t175 82t61 222t-59 221t-171 81zM719 973q195 0 311 -131t115 -356q0 -224 -136 -368t-378 -145q-281 0 -410 193q-106 160 -106 514q0 463 158 670q159 207 489 206q154 0 252 -28l35 -8v-213h-15
q-133 45 -268 45q-205 0 -291 -142t-86 -452q74 215 330 215z" />
    <glyph glyph-name="seven.pl.tnum" 
d="M84 1327v213h1034v-154l-543 -1386h-292l548 1327h-747z" />
    <glyph glyph-name="nine.pl.tnum" 
d="M593 764q112 0 175 78t63 217t-59 225t-173 86t-175 -82q-62 -82 -62 -222t60 -221t171 -81zM510 567q-194 -1 -310 131t-116 357t136 368t378 144q281 0 410 -193q106 -160 106 -514q0 -463 -159 -670t-488 -206q-154 0 -252 28l-35 8v213h15q133 -45 268 -45
q205 0 291 142t86 452q-74 -215 -330 -215z" />
    <glyph glyph-name="zero.pl.tnum" 
d="M846 770q0 320 -54 458t-178 138t-177 -138q-54 -138 -54 -458t54 -458t177 -138t178 138q54 139 54 458zM1133 774q1 -133 -13 -244t-50 -217t-93 -179t-151 -117t-216 -44q-123 0 -216 44t-148 117q-147 195 -148 633q-2 439 154 639q57 73 150 117t216 44
q122 0 216 -44t149 -117t90 -178t47 -213t13 -241z" />
    <glyph glyph-name="numbersign.pl.tnum" 
d="M508 1020l-39 -500h252l39 500h-252zM1186 1212l-19 -192h-184l-39 -500h191l-19 -192h-188l-25 -328h-223l25 328h-252l-25 -328h-223l24 328h-186l18 192h185l39 500h-191l19 192h186l27 328h223l-27 -328h252l27 328h223l-27 -328h189z" />
    <glyph glyph-name="Euro.pl.tnum" 
d="M877 188q111 0 215 43l32 15h15v-213q-113 -49 -283 -49q-254 0 -412 136t-215 367h-186v197h156q-2 29 -2 86t2 86h-156v197h186q57 231 215 367t412 136q151 0 250 -36l33 -13v-213h-15q-117 57 -250 58q-274 0 -364 -299h520l-41 -197h-514q-2 -27 -2 -71t4 -101h481
l-40 -197h-406q94 -299 365 -299z" />
    <glyph glyph-name="sterling.pl.tnum" 
d="M176 696v205h143q-57 141 -57 250q0 188 130 297t349 108q127 0 222 -28l30 -8v-213h-14q-123 45 -236 45q-213 0 -213 -195q0 -64 33 -149q33 -86 47 -107h342v-205h-280q6 -43 6 -94q0 -268 -178 -393h559v-209h-883v168q236 137 236 399q0 63 -17 129h-219z" />
    <glyph glyph-name="yen.pl.tnum" 
d="M1055 307h-310v-307h-262v307h-309v172h309v158h-309v172h268l-417 731h303l309 -608l313 608h254l-420 -731h271v-172h-310v-158h310v-172z" />
    <glyph glyph-name="uni20BA.pl.tnum" 
d="M469 207q508 0 508 594h225q0 -514 -319 -703q-168 -98 -463 -98h-223v504l-177 -62v172l177 62v155l-177 -61v172l177 62v536h272v-438l246 88v-172l-246 -88v-156l246 88v-172l-246 -88v-395z" />
    <glyph glyph-name="rupee.pl.tnum" 
d="M1135 956h-258q-20 -156 -129 -246t-306 -100l527 -610h-332l-487 594v151h114q168 -1 253 53t106 158h-473v164h473q-25 106 -108 158t-251 53h-114v209h985v-209h-410q117 -43 147 -211h263v-164z" />
    <glyph glyph-name="eight.pl.tnum" 
d="M371 410q0 -115 64 -179q65 -63 179 -63t179 63t65 169t-75 178t-222 131q-190 -102 -190 -299zM821 1160q0 96 -55 154q-56 58 -152 58t-151 -58t-55 -153q0 -96 66 -163t190 -117q68 41 112 111t45 168zM133 1169q0 183 130 289t353 106q224 0 352 -102
q128 -104 128 -282q0 -258 -262 -369q141 -55 222 -159t81 -251q-1 -197 -143 -311t-384 -115q-242 0 -380 111t-138 301q0 270 299 399q-117 50 -187 148t-71 235z" />
    <glyph glyph-name="two.tnum" 
d="M1096 211v-211h-971v182q61 58 159 148t210 199q113 109 154 160q40 51 77 107q64 96 66 203q0 223 -295 224q-130 0 -283 -39l-47 -15h-16v207q174 47 378 47q272 0 410 -105t137 -286q0 -144 -93 -288q-38 -58 -112 -136t-127 -125t-155 -135t-156 -137h664z" />
    <glyph glyph-name="three.tnum" 
d="M270 629v202h148q158 0 239 41q102 51 103 168q0 88 -60 136t-206 47q-145 0 -283 -37l-45 -12h-16v204q160 45 397 45t366 -92t129 -256q0 -127 -76 -213t-231 -117q156 -23 248 -113t92 -239q1 -188 -153 -298t-443 -109q-191 0 -307 34l-39 11v202h17q156 -47 323 -47
q322 0 322 217q0 125 -115 183q-86 43 -264 43h-146z" />
    <glyph glyph-name="four.tnum" 
d="M698 496v641l-401 -641h401zM1155 291h-213v-291h-244v291h-635v188l576 930h303v-913h213v-205z" />
    <glyph glyph-name="five.tnum" 
d="M1022 1200h-582l-24 -342q70 8 151 8q270 0 399 -114q128 -115 128 -323t-148 -326t-434 -117q-193 0 -315 37l-43 12v207h16q170 -55 342 -56q307 0 307 240q0 117 -80 179t-274 63q-124 0 -223 -13l-41 -6h-17l43 760h795v-209z" />
    <glyph glyph-name="six.tnum" 
d="M870 436q0 122 -60 194t-173 72t-179 -70t-65 -192q-1 -120 61 -196t176 -76t177 73t63 195zM713 893q197 1 313 -119t117 -327q0 -207 -136 -339q-137 -132 -397 -132t-389 178q-104 145 -104 469q0 424 157 612q158 188 490 188q149 0 248 -24l35 -8v-209h-15
q-129 41 -268 41q-207 0 -293 -125t-86 -398q72 193 328 193z" />
    <glyph glyph-name="seven.tnum" 
d="M86 1200v209h1032v-152l-545 -1257h-290l551 1200h-748z" />
    <glyph glyph-name="nine.tnum" 
d="M592 707q112 1 178 71t66 191t-62 197t-175 75q-114 0 -177 -73q-64 -74 -64 -196t60 -194t174 -71zM516 516q-198 0 -314 120t-116 326q0 208 136 340t378 132q276 0 406 -179q106 -147 106 -473q0 -420 -158 -608t-487 -188q-145 0 -250 24l-35 8v209h15
q131 -41 270 -41q205 0 291 125t86 398q-72 -193 -328 -193z" />
    <glyph glyph-name="zero.tnum" 
d="M850 705q0 285 -54 409t-180 123q-126 0 -182 -124q-55 -125 -55 -409t55 -408t181 -124t181 124q54 124 54 409zM1130 709q0 -121 -13 -223t-48 -198q-35 -97 -91 -164t-150 -108t-216 -41q-123 0 -216 41t-148 108q-147 179 -150 574q0 735 520 736q124 0 216 -41
t147 -108t90 -163t47 -194t12 -219z" />
    <glyph glyph-name="numbersign.tnum" 
d="M506 924l-39 -439h256l39 439h-256zM1184 1114l-17 -190h-188l-39 -439h193l-19 -190h-190l-25 -295h-217l25 295h-256l-25 -295h-217l24 295h-188l16 190h189l39 439h-193l19 190h190l25 295h219l-27 -295h256l25 295h217l-25 -295h189z" />
    <glyph glyph-name="Euro.tnum" 
d="M874 184q113 0 218 37l32 15h15v-207q-115 -43 -281 -43q-254 0 -411 124t-216 336h-188v183h158q-2 25 -2 76t2 75h-158v183h188q59 213 216 337t411 123q142 0 248 -32l33 -11v-206h-15q-117 51 -252 51q-270 0 -366 -262h524l-41 -183h-520q-2 -22 -2 -60t4 -91h485
l-41 -183h-407q96 -262 366 -262z" />
    <glyph glyph-name="sterling.tnum" 
d="M123 627v200h164q-66 123 -66 224q-1 172 145 272t388 100q141 0 243 -24l35 -8v-209h-16q-125 41 -258 41t-200 -44t-66 -126q0 -48 27 -103t71 -123h401v-200h-327q6 -33 6 -68q0 -244 -219 -354h663v-205h-991v164q274 127 274 358q0 47 -14 105h-260z" />
    <glyph glyph-name="yen.tnum" 
d="M1053 276h-312v-276h-254v276h-311v166h311v140h-311v166h266l-415 661h297l313 -543l317 543h248l-418 -661h269v-166h-312v-140h312v-166z" />
    <glyph glyph-name="uni20BA.tnum" 
d="M467 203q244 0 378 125t134 411h221q0 -469 -321 -647q-168 -92 -461 -92h-219v457l-174 -56v166l174 56v135l-174 -56v168l174 56v483h268v-395l248 80v-166l-248 -82v-135l248 80v-166l-248 -80v-342z" />
    <glyph glyph-name="rupee.tnum" 
d="M1135 862h-258q-19 -139 -131 -221t-308 -92l529 -549h-326l-489 530v146h112q168 0 252 45t109 141h-473v158h471q-23 94 -105 139t-254 45h-112v205h983v-205h-412q115 -39 147 -184h265v-158z" />
    <glyph glyph-name="eight.tnum" 
d="M367 379q0 -102 66 -159q67 -56 181 -56t181 56t67 152t-77 158q-77 63 -224 113q-194 -88 -194 -264zM406 1059q0 -86 66 -145q67 -58 192 -103q160 82 159 242q0 90 -55 141q-56 51 -154 51t-153 -50t-55 -136zM135 1067q0 170 130 267q130 98 351 98q222 0 350 -94
t128 -259q0 -238 -263 -334q139 -49 221 -144t83 -230q-1 -181 -143 -287t-383 -106t-378 100q-137 102 -137 276q0 250 299 361q-121 47 -189 137t-69 215z" />
    <glyph glyph-name="A.cap" horiz-adv-x="1366" 
d="M668 1135l-203 -592h397zM1331 0h-289l-112 342h-533l-116 -342h-246l508 1409h288z" />
    <glyph glyph-name="B.cap" horiz-adv-x="1329" 
d="M872 1024q0 195 -249 195h-170v-385h170q109 0 161 28q88 49 88 162zM655 190q299 0 299 220t-303 219h-198v-439h202zM188 1409h471q143 0 215 -16t121 -45q152 -88 152 -283q0 -80 -26 -141t-62 -93q-76 -64 -137 -73l-25 -4q44 0 109 -24t109 -56q44 -33 80 -104
t36 -164q0 -217 -178 -328q-57 -37 -133 -55q-76 -19 -124 -21t-132 -2h-476v1409z" />
    <glyph glyph-name="C.cap" horiz-adv-x="1239" 
d="M1120 238v-209q-129 -43 -305 -43q-346 0 -521 200t-175 518t175 519t521 200q153 0 268 -32l37 -11v-209h-16q-123 51 -266 52q-217 -1 -325 -143q-107 -142 -107 -370t109 -376q110 -147 327 -148q123 0 227 39l35 13h16z" />
    <glyph glyph-name="D.cap" horiz-adv-x="1499" 
d="M459 1208v-1007h151q197 0 291 53q193 106 193 450t-199 451q-98 53 -285 53h-151zM188 1409h406q100 0 160 -3t156 -26q97 -23 175 -67q295 -172 295 -610t-301 -609q-78 -44 -174 -66t-154 -25t-157 -3h-406v1409z" />
    <glyph glyph-name="E.cap" horiz-adv-x="1196" 
d="M188 1409h863v-205h-596v-370h506v-205h-506v-424h626v-205h-893v1409z" />
    <glyph glyph-name="F.cap" horiz-adv-x="1118" 
d="M188 1409h844v-209h-573v-442h510v-209h-510v-549h-271v1409z" />
    <glyph glyph-name="G.cap" horiz-adv-x="1449" 
d="M788 750h510v-695q-188 -74 -442 -73q-342 0 -540 178t-198 536t209 542q208 184 566 185q193 0 315 -34l45 -13v-211h-16q-150 57 -336 58q-239 0 -367 -128t-128 -386t122 -394q123 -135 330 -135q97 0 154 19l22 6v344h-246v201z" />
    <glyph glyph-name="H.cap" horiz-adv-x="1523" 
d="M188 1409h271v-575h606v575h270v-1409h-270v629h-606v-629h-271v1409z" />
    <glyph glyph-name="I.cap" horiz-adv-x="647" 
d="M188 1409h271v-1409h-271v1409z" />
    <glyph glyph-name="J.cap" horiz-adv-x="890" 
d="M49 215h14q84 -25 160 -25q119 0 172 76q37 53 37 199v944h270v-924q0 -73 -2 -115t-20 -108q-75 -273 -438 -272q-91 0 -168 14l-25 6v205z" />
    <glyph glyph-name="K.cap" horiz-adv-x="1366" 
d="M188 1409h267v-621l549 621h288l-518 -582l531 -827h-316l-395 639l-139 -143v-496h-267v1409z" />
    <glyph glyph-name="L.cap" horiz-adv-x="1056" 
d="M188 1409h271v-1200h553v-209h-824v1409z" />
    <glyph glyph-name="M.cap" horiz-adv-x="1929" 
d="M188 1409h347l438 -1051l426 1051h342v-1409h-264v1092l-408 -1020h-233l-410 1020v-1092h-238v1409z" />
    <glyph glyph-name="N.cap" horiz-adv-x="1536" 
d="M188 1409h263l659 -973v973h238v-1409h-238l-684 993v-993h-238v1409z" />
    <glyph glyph-name="O.cap" horiz-adv-x="1568" 
d="M784 174q379 0 379 530t-379 531q-379 -1 -379 -531t379 -530zM787 1436q319 0 491 -194t172 -536q0 -341 -175 -537t-493 -196t-491 195q-172 196 -172 536t175 536t493 196z" />
    <glyph glyph-name="P.cap" horiz-adv-x="1292" 
d="M459 1208v-540h139q154 0 219 47q96 71 96 225t-96 221q-66 47 -219 47h-139zM188 1409h398q279 0 411 -80q199 -119 199 -383q0 -275 -232 -411q-116 -68 -382 -68h-123v-467h-271v1409z" />
    <glyph glyph-name="Q.cap" horiz-adv-x="1568" 
d="M784 174q379 0 379 530t-379 531q-379 -1 -379 -531t379 -530zM1450 709q0 -463 -303 -643l209 -285h-305l-136 203q-72 -10 -135 -11q-317 0 -489 195q-172 196 -172 536t175 536t493 196q319 0 491 -194t172 -533z" />
    <glyph glyph-name="R.cap" horiz-adv-x="1349" 
d="M453 1208v-458h213q129 0 188 38q84 56 84 190t-84 189q-61 41 -188 41h-213zM453 549v-549h-265v1409h482q82 0 127 -2q45 -3 123 -23t135 -59q158 -109 157 -334q0 -309 -274 -403l346 -588h-301l-301 549h-229z" />
    <glyph glyph-name="S.cap" horiz-adv-x="1167" 
d="M983 1167h-16q-171 63 -305 63t-191 -41q-57 -42 -57 -116t66 -128t158 -94q93 -40 187 -89t160 -141t66 -222q-1 -203 -149 -308t-396 -105q-98 0 -190 15t-136 32l-45 16v211h15q195 -82 339 -82q143 0 211 50t68 134t-66 141q-66 58 -158 99t-188 89q-94 48 -160 135
t-65 210q0 182 133 284t371 103q168 0 303 -39l45 -14v-203z" />
    <glyph glyph-name="T.cap" horiz-adv-x="1169" 
d="M59 1409h1051v-209h-389v-1200h-270v1200h-392v209z" />
    <glyph glyph-name="U.cap" horiz-adv-x="1488" 
d="M188 1409h271v-891q-1 -166 65 -255t238 -89t238 89t65 255v891h235v-848q0 -218 -48 -318q-26 -54 -64 -102q-142 -168 -444 -168q-384 0 -507 270q-49 102 -49 318v848z" />
    <glyph glyph-name="V.cap" horiz-adv-x="1382" 
d="M51 1409h295l363 -1114l381 1114h241l-512 -1409h-268z" />
    <glyph glyph-name="W.cap" horiz-adv-x="2021" 
d="M66 1409h284l271 -1079l280 1046h270l279 -1046l272 1079h234l-387 -1409h-277l-282 1057l-283 -1057h-276z" />
    <glyph glyph-name="X.cap" horiz-adv-x="1400" 
d="M84 1409h322l321 -516l322 516h264l-445 -678l475 -731h-327l-342 557l-350 -557h-263l467 723z" />
    <glyph glyph-name="Y.cap" horiz-adv-x="1296" 
d="M782 0h-270v549l-477 860h315l328 -618l330 618h254l-480 -856v-553z" />
    <glyph glyph-name="Z.cap" horiz-adv-x="1259" 
d="M1124 1409v-186l-696 -1018h713v-205h-1026v195l692 1009h-670v205h987z" />
    <glyph glyph-name="K.alt.cap" horiz-adv-x="1417" 
d="M188 1409h271v-641l585 641h289l-594 -627l635 -782h-334l-581 733v-733h-271v1409z" />
    <glyph glyph-name="AE.cap" horiz-adv-x="1890" 
d="M909 537v630l-348 -630h348zM1745 1409v-203h-584v-375h494v-202h-494v-426h615v-203h-867v350h-452l-193 -350h-250l801 1409h930z" />
    <glyph glyph-name="OE.cap" horiz-adv-x="2086" 
d="M774 186q369 0 369 518t-369 519q-369 -1 -369 -519t369 -518zM1851 831v-202h-436q-12 -186 -71 -285t-103 -131l-18 -10h749v-203h-1163q-293 0 -444 111q-246 179 -246 593t256 594q72 51 165 78t145 30t136 3h1121v-203h-713q97 -65 147 -223q23 -70 33 -152h442z
" />
    <glyph glyph-name="Eth.cap" horiz-adv-x="1556" 
d="M512 1208v-377h299v-202h-299v-428h156q195 0 290 55q195 111 195 451t-199 448q-98 53 -286 53h-156zM246 1409h405q99 0 159 -3t158 -26t175 -67q295 -170 295 -608t-301 -611q-78 -44 -175 -66q-96 -22 -152 -25t-159 -3h-405v629h-193v202h193v578z" />
    <glyph glyph-name="Thorn.cap" horiz-adv-x="1292" 
d="M459 979v-541h139q152 0 217 45q98 68 98 226t-98 225q-66 45 -217 45h-139zM188 1409h271v-229h125q281 0 413 -80q199 -120 199 -392t-219 -397q-129 -74 -395 -73h-123v-238h-271v1409z" />
    <glyph glyph-name="Schwa.cap" horiz-adv-x="1409" 
d="M397 594q0 -424 289 -424q158 0 240 112t88 312h-617zM203 1163v203q172 57 413 57q338 0 506 -174t168 -531t-160 -551t-448 -194q-322 0 -461 240q-43 76 -64 177q-22 101 -26 179t-4 217h887q0 215 -108 328t-316 113q-80 1 -172 -15t-144 -32l-53 -17h-18z" />
    <glyph glyph-name="Lslash.cap" horiz-adv-x="1116" 
d="M250 1409h270v-504l281 96v-196l-281 -96v-500h551v-209h-821v616l-197 -65v197l197 65v596z" />
    <glyph glyph-name="Lcaron.cap" horiz-adv-x="1056" 
d="M188 1409h271v-1200h553v-209h-824v1409zM760 952h-182l77 457h240z" />
    <glyph glyph-name="Oslash.cap" horiz-adv-x="1568" 
d="M387 705q0 -199 57 -332l568 807q-92 68 -228 67q-195 0 -296 -136t-101 -406zM784 162q193 0 294 136t102 407q0 199 -58 331l-567 -807q92 -67 229 -67zM1450 703q0 -340 -174 -535t-492 -195q-205 0 -352 82l-76 -108h-250l181 225q-168 193 -168 534q0 342 174 536
t491 194q201 0 349 -82l77 108h252l-182 -225q170 -194 170 -534z" />
    <glyph glyph-name="Uogonek.cap" horiz-adv-x="1488" 
d="M893 -242q48 0 108 17h17v-127q-66 -16 -178 -16t-183 42q-72 43 -71 123q0 121 166 183q-435 0 -530 306q-26 83 -29 137q-4 54 -5 146v840h271v-891q-1 -166 65 -255t238 -89t238 89t65 255v891h235v-840q0 -161 -21 -248q-21 -88 -62 -143q-80 -107 -259 -186
q-92 -41 -137 -73t-45 -81q0 -80 117 -80z" />
    <glyph glyph-name="question.cap" horiz-adv-x="1081" 
d="M358 248h269v-248h-269v248zM131 1167v205q145 51 371 51t352 -93q127 -93 127 -261q0 -129 -62 -206q-62 -78 -126 -127q-63 -50 -95 -80t-56 -75q-24 -46 -28 -79t-4 -90h-235q0 84 5 127t35 106t93 121q114 98 158 150q43 52 45 131q0 176 -254 176q-143 0 -269 -41
l-43 -15h-14z" />
    <glyph glyph-name="question.round.cap" horiz-adv-x="1081" 
d="M131 1165v207q147 51 371 51t352 -93q127 -93 127 -261q0 -130 -62 -205q-62 -76 -127 -126q-64 -50 -96 -78t-56 -73q-24 -46 -27 -79t-3 -102h-237q0 90 5 137q12 117 128 227q16 14 54 46q120 101 139 162q11 32 12 69q0 84 -67 130t-162 46q-162 0 -294 -43l-43 -15
h-14zM494 283q72 0 112 -41t41 -107q0 -67 -41 -107q-40 -40 -112 -40t-113 41t-41 107t41 106q41 41 113 41z" />
    <glyph glyph-name="exclam.cap" horiz-adv-x="692" 
d="M213 1409h287l-29 -997h-229zM221 248h268v-248h-268v248z" />
    <glyph glyph-name="exclam.round.cap" horiz-adv-x="692" 
d="M356 283q72 0 113 -41t41 -107q0 -67 -41 -107t-113 -40t-112 41t-41 107q1 66 41 106q40 41 112 41zM213 1409h287l-31 -1003h-225z" />
    <glyph glyph-name="questiondown.cap" horiz-adv-x="1048" 
d="M717 1167h-271v242h271v-242zM944 244v-207q-148 -51 -372 -51t-351 93t-127 261q0 127 68 212q35 44 61 70q27 26 76 64t81 66t54 75q23 47 26 80t3 105h239q0 -90 -6 -138q-15 -122 -129 -231q-89 -74 -123 -109q-81 -85 -80 -170q0 -86 66 -132t162 -46q161 0 293 43
l43 15h16z" />
    <glyph glyph-name="questiondown.round.cap" horiz-adv-x="1048" 
d="M944 244v-207q-148 -51 -372 -51t-351 93t-127 261q0 127 68 211q35 43 61 69q27 26 76 64t81 64q32 28 54 74q23 46 26 78t3 104h239q0 -131 -22 -207t-113 -158q-16 -14 -54 -47q-67 -58 -107 -107q-41 -49 -41 -128q-1 -79 65 -125t162 -46q161 0 293 43l43 15h16z
M582 1126q-72 0 -113 41t-41 107t41 106t113 41q72 0 112 -41q40 -40 41 -106q-1 -66 -41 -107t-112 -41z" />
    <glyph glyph-name="exclamdown.cap" horiz-adv-x="692" 
d="M479 0h-286l30 1012h226zM471 1167h-270v242h270v-242z" />
    <glyph glyph-name="exclamdown.round.cap" horiz-adv-x="692" 
d="M336 1126q-72 0 -113 41t-41 107t41 106t113 41q72 0 113 -41q41 -40 41 -106t-42 -107q-40 -41 -112 -41zM479 0h-286l30 1004h226z" />
    <glyph glyph-name="ampersand.cap" horiz-adv-x="1527" 
d="M463 1096q0 -115 147 -260q92 66 144 126q51 60 51 134t-49 118t-124 43q-75 1 -122 -43t-47 -118zM623 164q150 0 264 115l-348 321q-162 -117 -162 -238q1 -90 69 -144t177 -54zM1497 0h-315l-160 152q-162 -174 -447 -175q-221 -1 -348 99t-127 268q0 131 76 220
t221 163q-98 98 -144 179t-46 177q0 158 112 255q113 98 305 98t301 -90q107 -90 107 -220t-78 -219q-78 -88 -229 -184l303 -283q59 135 82 320h242q-29 -264 -164 -451l309 -295v-14z" />
    <glyph glyph-name="A.smcp" horiz-adv-x="1241" 
d="M604 942l-166 -475h324zM1208 0h-288l-93 274h-456l-95 -274h-243l442 1204h297z" />
    <glyph glyph-name="B.smcp" horiz-adv-x="1206" 
d="M424 1018v-295h147q90 0 134 22q70 39 69 125q0 86 -69 125q-43 23 -134 23h-147zM606 186q242 0 242 170q0 94 -84 138q-53 27 -168 26h-172v-334h182zM166 1204h442q213 0 305 -53q133 -76 134 -242q0 -67 -24 -119t-71 -91t-108 -52l-23 -2q41 0 98 -19q58 -19 97 -47
q40 -29 72 -89t32 -142q0 -188 -162 -282q-50 -30 -118 -46t-112 -18t-122 -2h-440v1204z" />
    <glyph glyph-name="C.smcp" horiz-adv-x="1110" 
d="M1004 227v-204q-115 -35 -271 -35q-311 0 -469 170t-158 442t158 444t469 173q135 0 238 -25l33 -10v-205h-15q-106 41 -229 41q-184 0 -276 -115t-91 -298q0 -183 91 -301t278 -118q106 0 196 31l31 10h15z" />
    <glyph glyph-name="D.smcp" horiz-adv-x="1349" 
d="M434 1006v-807h123q158 0 240 43q161 86 161 362t-167 361q-82 41 -234 41h-123zM166 1204h375q94 0 144 -2t139 -22t159 -60q260 -150 260 -520t-264 -516q-121 -68 -296 -81q-52 -3 -142 -3h-375v1204z" />
    <glyph glyph-name="E.smcp" horiz-adv-x="1085" 
d="M166 1204h788v-203h-522v-278h440v-203h-440v-317h549v-203h-815v1204z" />
    <glyph glyph-name="F.smcp" horiz-adv-x="1015" 
d="M166 1204h772v-207h-502v-342h447v-206h-447v-449h-270v1204z" />
    <glyph glyph-name="G.smcp" horiz-adv-x="1304" 
d="M774 178q76 0 137 17v254h-206v198h466v-600q-170 -66 -401 -65q-307 0 -485 154q-179 154 -179 460q0 307 188 464t515 157q168 0 281 -29l38 -8v-207h-12q-137 45 -297 45q-426 0 -426 -414q1 -206 103 -316t278 -110z" />
    <glyph glyph-name="H.smcp" horiz-adv-x="1374" 
d="M166 1204h270v-481h502v481h270v-1204h-270v520h-502v-520h-270v1204z" />
    <glyph glyph-name="I.smcp" horiz-adv-x="602" 
d="M166 1204h270v-1204h-270v1204z" />
    <glyph glyph-name="J.smcp" horiz-adv-x="817" 
d="M49 213h14q74 -23 158 -23t129 62q31 43 31 164v788h270v-768q0 -209 -69 -303q-106 -143 -357 -143q-85 0 -155 14l-21 6v203z" />
    <glyph glyph-name="K.smcp" horiz-adv-x="1245" 
d="M166 1204h266v-512l463 512h283l-445 -489l455 -715h-309l-326 528l-121 -125v-403h-266v1204z" />
    <glyph glyph-name="L.smcp" horiz-adv-x="956" 
d="M166 1204h270v-995h477v-209h-747v1204z" />
    <glyph glyph-name="M.smcp" horiz-adv-x="1744" 
d="M166 1204h352l365 -846l350 846h346v-1204h-258v915l-346 -856h-227l-347 856v-915h-235v1204z" />
    <glyph glyph-name="N.smcp" horiz-adv-x="1382" 
d="M166 1204h264l551 -772v772h236v-1204h-236l-580 797v-797h-235v1204z" />
    <glyph glyph-name="O.smcp" horiz-adv-x="1415" 
d="M1022 602q0 426 -314 426t-314 -426t314 -426t314 426zM711 1229q287 0 443 -168t155 -457q0 -289 -159 -459t-447 -170q-289 0 -443 168t-154 457t159 459t446 170z" />
    <glyph glyph-name="P.smcp" horiz-adv-x="1181" 
d="M436 1006v-433h109q131 0 182 35q82 53 82 181t-82 180q-59 37 -182 37h-109zM166 1204h373q248 0 368 -69q185 -104 185 -346t-201 -351q-115 -63 -356 -63h-99v-375h-270v1204z" />
    <glyph glyph-name="Q.smcp" horiz-adv-x="1415" 
d="M1022 602q0 426 -314 426t-314 -426t314 -426t314 426zM1309 606q0 -383 -262 -545l184 -245h-301l-115 168q-49 -8 -113 -9q-288 0 -442 168t-154 457t159 459t446 170t443 -168t155 -455z" />
    <glyph glyph-name="R.smcp" horiz-adv-x="1224" 
d="M430 1006v-359h178q106 0 156 31q70 43 70 148t-70 149q-51 31 -156 31h-178zM430 449v-449h-264v1204h442q242 0 357 -76q141 -94 141 -292q0 -258 -234 -347l293 -489h-299l-250 449h-186z" />
    <glyph glyph-name="S.smcp" horiz-adv-x="1062" 
d="M897 969h-12q-160 59 -299 59q-184 0 -185 -117q0 -98 197 -175q82 -32 164 -74t139 -120q57 -79 57 -192q0 -176 -134 -269t-363 -93q-88 0 -173 13t-124 28l-41 12v207h14q182 -72 305 -72q234 0 234 137q0 106 -197 188q-82 35 -164 75t-139 117t-57 184
q0 163 123 251t342 89q143 0 272 -33l41 -13v-202z" />
    <glyph glyph-name="T.smcp" horiz-adv-x="1054" 
d="M55 1204h944v-207h-337v-997h-271v997h-336v207z" />
    <glyph glyph-name="U.smcp" horiz-adv-x="1339" 
d="M166 1204h270v-762q0 -126 53 -196t197 -70t198 70t54 196v762h236v-719q0 -73 -4 -117t-26 -117q-24 -73 -71 -126q-129 -150 -403 -150t-404 148q-100 115 -100 362v719z" />
    <glyph glyph-name="V.smcp" horiz-adv-x="1257" 
d="M47 1204h293l307 -915l322 915h241l-452 -1204h-271z" />
    <glyph glyph-name="W.smcp" horiz-adv-x="1826" 
d="M59 1204h281l227 -891l236 867h274l234 -867l229 891h227l-335 -1204h-281l-238 870l-239 -870h-279z" />
    <glyph glyph-name="X.smcp" horiz-adv-x="1267" 
d="M74 1204h323l265 -416l266 416h262l-387 -577l414 -627h-326l-285 453l-291 -453h-260l408 616z" />
    <glyph glyph-name="Y.smcp" horiz-adv-x="1179" 
d="M725 0h-270v465l-422 739h315l273 -497l274 497h252l-422 -735v-469z" />
    <glyph glyph-name="Z.smcp" horiz-adv-x="1132" 
d="M1012 1204v-186l-594 -813h608v-205h-922v197l590 802h-571v205h889z" />
    <glyph glyph-name="K.alt.smcp" horiz-adv-x="1298" 
d="M166 1204h270v-547l504 547h287l-512 -532l542 -672h-331l-490 625v-625h-270v1204z" />
    <glyph glyph-name="AE.smcp" horiz-adv-x="1703" 
d="M809 463v508l-287 -508h287zM1573 1204v-200h-510v-281h430v-203h-430v-319h536v-201h-790v276h-393l-156 -276h-248l703 1204h858z" />
    <glyph glyph-name="OE.smcp" horiz-adv-x="1867" 
d="M698 184q305 0 306 418q0 418 -306 418t-305 -418q0 -418 305 -418zM1657 723v-203h-383q-12 -140 -62 -218t-77 -93l-13 -8h641v-201h-1034q-262 0 -397 92q-226 154 -226 511t232 509q141 92 403 92h996v-200h-611q12 -8 32 -24t58 -89q40 -72 54 -168h387z" />
    <glyph glyph-name="Eth.smcp" horiz-adv-x="1400" 
d="M483 1006v-283h248v-203h-248v-321h125q160 0 240 43q162 86 162 362t-168 361q-82 41 -234 41h-125zM217 1204h375q94 0 144 -2t140 -22t158 -60q260 -147 260 -518t-264 -518q-121 -68 -296 -81q-52 -3 -142 -3h-375v520h-166v203h166v481z" />
    <glyph glyph-name="Thorn.smcp" horiz-adv-x="1181" 
d="M436 821v-432h109q125 0 180 35q84 53 84 181t-84 181q-55 35 -180 35h-109zM166 1204h270v-184h101q254 0 370 -68q185 -106 185 -348t-203 -350q-119 -63 -354 -64h-99v-190h-270v1204z" />
    <glyph glyph-name="Schwa.smcp" horiz-adv-x="1275" 
d="M381 498q0 -328 242 -328q131 0 199 87t73 241h-514zM182 969v200q156 47 375 48q309 0 461 -149t152 -454t-144 -472q-143 -167 -422 -167t-405 205q-74 119 -83 319q-3 67 -3 189h782q0 164 -92 249t-254 85t-303 -39l-49 -14h-15z" />
    <glyph glyph-name="Lslash.smcp" horiz-adv-x="1009" 
d="M219 1204h270v-416l236 76v-194l-236 -76v-385h478v-209h-748v508l-168 -53v194l168 53v502z" />
    <glyph glyph-name="Lcaron.smcp" horiz-adv-x="956" 
d="M166 1204h270v-995h477v-209h-747v1204zM715 831h-183l66 373h238z" />
    <glyph glyph-name="Oslash.smcp" horiz-adv-x="1417" 
d="M709 162q332 0 331 440q0 156 -43 254l-469 -647q70 -47 181 -47zM375 602q0 -158 43 -256l471 649q-76 47 -180 47q-334 0 -334 -440zM1309 599q0 -286 -158 -455t-444 -169q-170 0 -301 64l-62 -84h-248l162 195q-150 166 -150 454t158 456q158 169 443 169
q176 0 303 -66l61 86h248l-164 -196q152 -168 152 -454z" />
    <glyph glyph-name="Uogonek.smcp" horiz-adv-x="1339" 
d="M813 -190q56 0 98 14h15v-119q-57 -16 -163 -16q-105 0 -171 37t-66 104q0 98 140 152q-272 0 -400 145q-47 53 -70 124q-24 71 -27 117t-3 126v710h270v-762q0 -126 53 -196t197 -70t198 70t54 196v762h236v-710q0 -232 -70 -330t-225 -162q-80 -34 -123 -62t-43 -69
q0 -61 100 -61z" />
    <glyph glyph-name="copyright.smcp" horiz-adv-x="1531" 
d="M279 551q-1 -186 123 -307t330 -121t330 121t124 307t-124 307t-330 121t-330 -121t-123 -307zM731 -23q-279 0 -452 158t-173 415t174 415q174 157 454 157q278 0 451 -158t173 -414q0 -257 -174 -415t-453 -158zM944 424v-168q-76 -25 -172 -25q-152 0 -255 81
t-103 239t103 240t255 81q97 0 150 -20l22 -6v-170h-14q-57 23 -129 22q-164 0 -164 -147t166 -148q68 0 127 21h14z" />
    <glyph glyph-name="dollar.smcp" horiz-adv-x="1169" 
d="M356 868q0 -90 166 -135l29 242q-195 -9 -195 -107zM825 340q0 94 -163 147l-29 -260q192 9 192 113zM147 299h17q125 -49 297 -66l33 302q-166 45 -240 90q-75 45 -107 98q-31 53 -30 125q0 139 117 218q118 79 333 87l15 154h188l-25 -158q156 -14 230 -35l33 -6v-190
h-15q-115 37 -270 53l-33 -277q151 -37 253 -97q122 -73 122 -228q0 -297 -451 -318l-12 -153h-190l24 155q-141 11 -254 37l-35 10v199z" />
    <glyph glyph-name="dollar.gap.smcp" horiz-adv-x="1050" 
d="M129 301h12q180 -63 336 -63q195 0 195 116q0 98 -196 156q-81 24 -162 56t-138 100t-57 180t81 190q81 80 230 107l-2 164h227l-10 -154q145 -9 215 -31l31 -8v-199h-12q-160 51 -301 52q-184 0 -185 -103q-1 -51 57 -85q58 -33 139 -57t162 -56t138 -103t57 -191
t-88 -203t-248 -110l6 -161h-229l10 153q-144 8 -237 39l-31 10v201z" />
    <glyph glyph-name="question.smcp" horiz-adv-x="985" 
d="M315 236h267v-236h-267v236zM119 969v202q131 45 337 45t321 -78q116 -79 116 -229q0 -113 -56 -177q-56 -65 -112 -108q-57 -43 -72 -55q-59 -49 -73 -94t-15 -119h-235q0 74 5 114q12 100 111 189q8 7 54 45t63 56q58 58 60 127q0 131 -209 131q-125 0 -242 -37
l-39 -12h-14z" />
    <glyph glyph-name="question.round.smcp" horiz-adv-x="985" 
d="M119 969v202q131 45 337 45t321 -78q116 -79 116 -227q0 -110 -55 -174q-55 -63 -112 -105q-58 -42 -75 -57q-59 -49 -72 -92t-14 -125h-235q0 76 4 116q10 97 110 190q14 12 56 44t61 51q60 57 62 126q0 133 -209 133q-125 0 -242 -37l-39 -12h-14zM299 132q0 64 40 104
q40 38 111 38q70 0 110 -38t40 -104q0 -64 -40 -103t-110 -39t-111 39q-40 39 -40 103z" />
    <glyph glyph-name="exclam.smcp" horiz-adv-x="641" 
d="M186 1204h287l-29 -848h-229zM197 236h266v-236h-266v236z" />
    <glyph glyph-name="exclam.round.smcp" horiz-adv-x="641" 
d="M178 132q0 64 40 104q40 38 111 38t111 -38t39 -104q0 -64 -40 -103q-41 -39 -111 -39t-110 39t-40 103zM186 1204h285l-29 -846h-227z" />
    <glyph glyph-name="questiondown.smcp" horiz-adv-x="954" 
d="M662 971h-269v233h269v-233zM858 236v-203q-134 -45 -338 -45t-320 79t-116 228q0 113 58 180t112 107q55 41 70 53q59 49 73 95t15 126h235q0 -117 -18 -179t-97 -132q-12 -10 -55 -45q-43 -36 -62 -54t-39 -54t-22 -73q0 -133 209 -133q122 0 242 37l39 13h14z" />
    <glyph glyph-name="questiondown.round.smcp" horiz-adv-x="954" 
d="M858 236v-203q-134 -45 -338 -45t-320 79t-116 228q0 68 29 125t53 82q25 26 86 72t72 55q59 49 73 93t15 124h235q0 -76 -4 -116q-10 -99 -111 -189q-14 -12 -55 -44q-41 -31 -61 -51q-60 -59 -62 -127q0 -133 209 -133q122 0 242 37l39 13h14zM527 930q-71 0 -111 39
t-39 103q0 64 40 104q41 40 111 38q70 0 110 -38t40 -104t-40 -104t-111 -38z" />
    <glyph glyph-name="exclamdown.smcp" horiz-adv-x="641" 
d="M455 0h-287l29 856h227zM444 971h-266v233h266v-233z" />
    <glyph glyph-name="exclamdown.round.smcp" horiz-adv-x="641" 
d="M312 930q-70 0 -110 39t-40 103t40 104t110 38q70 0 111 -38q40 -38 40 -104t-40 -104t-111 -38zM455 0h-285l29 846h227z" />
    <glyph glyph-name="parenleft.smcp" horiz-adv-x="655" 
d="M358 602q0 -331 136 -616q31 -66 51 -97l22 -32h-188q-106 127 -176 287q-35 81 -65 206t-29 252q0 255 88 445t155 268l27 33h188q-136 -204 -186 -489q-23 -126 -23 -257z" />
    <glyph glyph-name="parenright.smcp" horiz-adv-x="655" 
d="M297 602q0 256 -69 448t-117 265l-23 33h188q107 -129 177 -288q35 -81 65 -206t29 -252q0 -319 -175 -612q-40 -68 -69 -101l-27 -32h-188q8 12 23 32q14 21 50 95q136 282 136 618z" />
    <glyph glyph-name="bracketleft.smcp" horiz-adv-x="751" 
d="M166 1348h479v-191h-244v-1110h244v-190h-479v1491z" />
    <glyph glyph-name="bracketright.smcp" horiz-adv-x="753" 
d="M588 -143h-479v190h241v1110h-241v191h479v-1491z" />
    <glyph glyph-name="braceleft.smcp" horiz-adv-x="747" 
d="M641 1348v-191q-96 0 -137 -20t-41 -90v-240q1 -68 -15 -108q-29 -73 -133 -97q104 -24 126 -83t22 -124v-239q0 -70 40 -89t138 -20v-190q-90 0 -136 2q-45 2 -105 18t-96 48t-54 76t-21 74q-2 30 -2 81v254q0 61 -33 78q-34 17 -112 18v190q78 0 112 18t33 81v254
q0 51 2 81t21 73q53 130 255 143q46 2 136 2z" />
    <glyph glyph-name="braceright.smcp" horiz-adv-x="747" 
d="M106 1157v191q92 0 138 -2t106 -18q111 -31 149 -126q17 -45 19 -73t2 -80v-254q0 -61 35 -79t111 -20v-190q-78 0 -112 -18t-34 -78v-254q0 -55 -2 -82t-19 -72t-53 -77t-96 -48q-59 -16 -105 -18t-139 -2v190q98 -1 138 19t41 90v239q0 129 62 172q32 23 85 35
q-104 24 -129 90q-18 50 -18 115v240q0 70 -40 90q-41 20 -139 20z" />
    <glyph glyph-name="ampersand.smcp" horiz-adv-x="1382" 
d="M436 932q0 -88 123 -205q160 109 160 205q0 55 -40 89t-101 34q-62 0 -102 -34t-40 -89zM360 319q0 -71 58 -113t166 -42t200 76l-295 262q-129 -90 -129 -183zM1354 0h-310l-126 117q-137 -135 -396 -135q-210 0 -322 84t-112 233q0 113 67 189t195 137q-86 83 -126 149
t-40 148q0 135 104 220t280 85q178 0 276 -78q98 -79 98 -191t-71 -189t-197 -148l250 -224q47 100 67 250h240q-29 -221 -150 -381l273 -254v-12z" />
    <glyph glyph-name="slash.smcp" horiz-adv-x="827" 
d="M780 1249l-514 -1294h-219l514 1294h219z" />
    <glyph glyph-name="backslash.smcp" horiz-adv-x="827" 
d="M561 -45l-514 1294h219l514 -1294h-219z" />
    <glyph glyph-name="one.smcp" horiz-adv-x="796" 
d="M616 0h-264v971l-258 -82h-14v203l360 112h176v-1204z" />
    <glyph glyph-name="two.smcp" horiz-adv-x="1054" 
d="M932 209v-209h-813v180q35 35 99 96q64 60 94 90q28 30 78 80q140 138 184 217q45 79 53 114q8 36 8 67q0 174 -219 174q-123 0 -228 -35l-38 -10h-13v205q145 39 316 39q233 1 350 -91t117 -247q0 -112 -74 -241q-29 -48 -88 -113q-60 -65 -100 -101t-120 -109
q-80 -72 -118 -106h512z" />
    <glyph glyph-name="three.smcp" horiz-adv-x="1050" 
d="M233 520v203h134q125 0 189 35t65 119q0 141 -205 141q-113 0 -230 -33l-39 -10h-12v203q135 39 331 39t316 -81q119 -81 119 -225q-1 -109 -67 -181t-181 -95q123 -18 199 -95t76 -198q0 -164 -138 -259t-380 -95q-164 0 -254 28l-35 11v202h14q137 -43 261 -43t189 44
t65 128q-1 162 -283 162h-134z" />
    <glyph glyph-name="four.smcp" horiz-adv-x="1175" 
d="M649 444v492l-321 -492h321zM1073 240h-180v-240h-244v240h-555v188l498 776h301v-760h180v-204z" />
    <glyph glyph-name="five.smcp" horiz-adv-x="1069" 
d="M887 997h-475l-19 -258q61 6 121 6q211 0 326 -100q114 -100 114 -277q0 -176 -135 -278t-375 -102q-169 0 -268 32l-37 11v205h15q152 -49 288 -50q240 0 240 182t-279 181q-87 0 -192 -12l-35 -5h-12l35 672h688v-207z" />
    <glyph glyph-name="six.smcp" horiz-adv-x="1196" 
d="M616 582q-94 0 -146 -56t-52 -148q0 -94 50 -152t145 -58t146 56q50 56 50 152q1 96 -49 150q-50 56 -144 56zM1081 385q0 -180 -124 -294q-125 -114 -365 -114t-356 160q-94 127 -95 398q1 356 147 519t441 163q131 0 234 -25l30 -6v-205h-12q-123 37 -248 37
q-174 0 -248 -98t-73 -308q63 160 286 160q176 0 280 -103q103 -104 103 -284z" />
    <glyph glyph-name="seven.smcp" horiz-adv-x="1009" 
d="M72 997v207h843v-151l-409 -1053h-291l420 997h-563z" />
    <glyph glyph-name="nine.smcp" horiz-adv-x="1196" 
d="M580 623q94 0 146 55t52 148q0 94 -50 152t-145 58t-145 -56t-51 -152t49 -150q50 -55 144 -55zM496 432q-174 0 -278 104t-103 283q0 180 124 294q125 114 365 114t357 -160q94 -127 94 -397q-1 -356 -147 -519t-441 -163q-143 0 -234 22l-30 8v205h12q123 -37 248 -37
q174 0 248 98t73 308q-63 -160 -288 -160z" />
    <glyph glyph-name="zero.smcp" horiz-adv-x="1257" 
d="M836 602q0 230 -48 330t-160 100q-110 0 -157 -99t-47 -331t47 -330q47 -100 158 -100t159 100t48 330zM1116 602q0 -624 -487 -625q-487 0 -487 625t491 625q483 -1 483 -625z" />
    <glyph glyph-name="numbersign.smcp" horiz-adv-x="1497" 
d="M631 772l-35 -340h268l35 340h-268zM1339 961l-18 -189h-201l-35 -340h199l-18 -188h-201l-25 -244h-221l25 244h-269l-24 -244h-221l24 244h-196l18 188h199l35 340h-197l16 189h201l27 243h221l-27 -243h269l26 243h221l-26 -243h198z" />
    <glyph glyph-name="Euro.smcp" horiz-adv-x="1239" 
d="M870 184q90 0 195 29l31 10h14v-200q-106 -35 -260 -35q-242 0 -390 105t-204 290h-172v162h143v55q0 39 2 59h-145v162h174q56 183 204 289t388 107q135 0 229 -25l31 -10v-201h-14q-109 39 -230 39q-242 0 -327 -199h471l-39 -162h-471q-2 -18 -2 -56t2 -58h442
l-37 -162h-364q88 -199 329 -199z" />
    <glyph glyph-name="sterling.smcp" horiz-adv-x="1062" 
d="M119 514v199h129q-47 94 -47 180q0 147 123 235t327 89q118 0 209 -25l31 -6v-205h-14q-115 37 -228 37q-188 0 -188 -123q0 -46 31 -104t45 -78h315v-199h-256v-20q0 -195 -162 -291h514v-203h-829v162q217 104 217 295q0 29 -6 57h-211z" />
    <glyph glyph-name="yen.smcp" horiz-adv-x="1280" 
d="M1057 225h-289v-225h-256v225h-289v162h289v107h-289v161h238l-381 549h299l285 -434l286 434h250l-383 -549h240v-161h-289v-107h289v-162z" />
    <glyph glyph-name="uni20BA.smcp" horiz-adv-x="1300" 
d="M520 201q223 0 345 100t122 342h223q0 -403 -299 -559q-160 -84 -440 -84h-221v379l-166 -45v160l166 45v106l-166 -45v160l166 45v399h270v-323l228 63v-160l-228 -63v-107l228 66v-160l-228 -65v-254z" />
    <glyph glyph-name="rupee.smcp" horiz-adv-x="1093" 
d="M993 709h-213q-37 -236 -348 -263l432 -446h-323l-391 428v139h94q135 0 198 36t84 106h-376v151h376q-20 68 -82 104t-200 35h-94v205h843v-205h-336q84 -31 115 -139h221v-151z" />
    <glyph glyph-name="one.tnum.smcp" horiz-adv-x="1044" 
d="M160 0v201h278v770l-280 -82h-15v203l383 112h176v-1003h252v-201h-794z" />
    <glyph glyph-name="perthousand.smcp" horiz-adv-x="2363" 
d="M1829 287q0 -68 38 -110t98 -42t97 42t37 110q0 67 -38 107t-97 40t-97 -40t-38 -107zM1634 285q0 137 96 223t236 86t234 -86t94 -223t-94 -223t-236 -87q-142 1 -236 87t-94 223zM1094 287q0 -68 38 -110t98 -42t98 42t38 110q0 67 -38 107t-98 40t-98 -40t-38 -107z
M899 285q0 137 95 223q94 86 236 86t236 -86t94 -223t-94 -223q-96 -86 -237 -87q-141 0 -236 86q-94 87 -94 224zM582 919q0 69 -38 109t-98 41q-60 -1 -97 -41q-38 -40 -38 -109t38 -110t97 -41t98 41q38 41 38 110zM117 920q0 137 94 223t235 86q142 0 236 -86t94 -223
q0 -138 -94 -224t-236 -86t-235 86q-94 86 -94 224zM199 0v12l575 639l459 553h246v-12l-578 -639l-457 -553h-245z" />
    <glyph glyph-name="daggerdbl.smcp" horiz-adv-x="1013" 
d="M631 0h-246v246h-250v198h250v316h-250v198h250v246h246v-246h248v-198h-248v-316h248v-198h-248v-246z" />
    <glyph glyph-name="dagger.smcp" horiz-adv-x="1013" 
d="M631 0h-246v760h-297v198h297v246h246v-246h295v-198h-295v-760z" />
    <glyph glyph-name="eight.smcp" horiz-adv-x="1185" 
d="M391 334q0 -80 54 -126q55 -46 147 -46t147 45t56 117q0 139 -250 213q-154 -66 -154 -203zM424 901q0 -129 211 -196q127 61 127 186q0 69 -44 109t-125 40t-125 -38t-44 -101zM154 903q0 150 116 236q117 86 324 86q206 0 322 -82t116 -221q0 -104 -61 -174t-168 -103
q123 -39 195 -124t71 -199q0 -156 -129 -249t-352 -93t-347 87t-124 234q0 219 264 301q-227 88 -227 301z" />
    <glyph glyph-name="percent.smcp" horiz-adv-x="1677" 
d="M1094 287q0 -68 38 -109t98 -41t99 41t39 109q0 67 -39 107t-99 40t-98 -40t-38 -107zM901 286q0 138 94 224q93 86 235 86t236 -86t94 -224t-94 -224t-235 -87q-141 0 -236 86q-94 87 -94 225zM309 920q0 -68 38 -110t99 -42t101 42q39 42 39 110t-39 108t-101 41
q-62 -1 -99 -41q-38 -40 -38 -108zM117 920q0 137 94 223t235 86q140 0 236 -86t96 -223q0 -138 -95 -224t-237 -86t-235 86q-94 86 -94 224zM199 0v12l575 639l459 553h246v-10l-578 -641l-457 -553h-245z" />
    <glyph glyph-name="dollar.pl.tnum.smcp" horiz-adv-x="1042" 
d="M315 870q0 -90 144 -135l26 240q-170 -9 -170 -105zM735 336q0 96 -141 149l-27 -258q168 13 168 109zM111 299h16q117 -47 274 -66l33 299q-80 23 -130 42q-50 20 -108 56q-116 73 -116 214t110 221q111 80 312 88l12 154h186l-24 -158q140 -14 213 -35l29 -6v-190h-13
q-109 37 -252 53l-30 -279q256 -59 321 -186q29 -57 29 -135q0 -299 -422 -320l-12 -153h-187l25 155q-136 12 -234 37l-32 10v199z" />
    <glyph glyph-name="dollar.gap.pl.tnum.smcp" horiz-adv-x="1042" 
d="M125 301h12q180 -63 334 -63q195 0 195 116q0 92 -144 136t-264 104q-61 31 -102 92t-41 148q0 122 81 202t228 107l-2 164h227l-10 -154q140 -9 215 -31l31 -8v-199h-15q-160 51 -299 52q-182 0 -182 -103q0 -51 56 -85q55 -33 137 -57t164 -56t138 -103t56 -191
t-88 -203t-246 -110l4 -161h-227l8 153q-142 8 -235 39l-31 10v201z" />
    <glyph glyph-name="two.pl.tnum.smcp" horiz-adv-x="1042" 
d="M924 209v-209h-809v180q104 98 162 157q57 59 110 112t108 117q54 65 85 119q47 83 47 159q0 174 -217 174q-121 0 -226 -35l-39 -10h-12v205q143 39 313 39q232 1 348 -91t115 -247q0 -113 -73 -241q-29 -48 -86 -113t-164 -162t-170 -154h508z" />
    <glyph glyph-name="three.pl.tnum.smcp" horiz-adv-x="1042" 
d="M392 186q249 0 249 172q0 86 -80 129q-61 33 -201 33h-131v203h133q254 0 252 151q0 143 -202 144q-113 0 -230 -33l-39 -10h-12v203q135 39 331 39t313 -81q118 -81 118 -225q0 -109 -66 -181t-178 -95q121 -18 196 -95t75 -198q0 -164 -138 -259t-376 -95
q-164 0 -254 28l-35 11v202h14q137 -43 261 -43z" />
    <glyph glyph-name="four.pl.tnum.smcp" horiz-adv-x="1042" 
d="M569 444v492l-276 -492h276zM971 240h-162v-240h-240v240h-506v188l447 776h299v-760h162v-204z" />
    <glyph glyph-name="five.pl.tnum.smcp" horiz-adv-x="1042" 
d="M858 997h-444l-17 -258q57 6 113 6q197 0 303 -99q107 -99 107 -277q0 -177 -127 -279t-357 -102q-157 0 -256 32l-35 11v205h15q147 -49 272 -50q217 0 217 182t-254 181l-215 -17h-12l35 672h655v-207z" />
    <glyph glyph-name="six.pl.tnum.smcp" horiz-adv-x="1044" 
d="M537 582q-80 0 -122 -54t-42 -150q0 -94 41 -152t122 -58q82 0 122 56t40 152t-40 150q-40 56 -121 56zM625 772q156 0 250 -104t94 -283q0 -180 -114 -294t-320 -114q-242 0 -349 160q-88 127 -88 398q0 356 138 519t409 163q120 0 211 -25l31 -6v-205h-13
q-113 37 -223 37q-153 0 -219 -98t-65 -308q57 160 258 160z" />
    <glyph glyph-name="seven.pl.tnum.smcp" horiz-adv-x="1042" 
d="M78 997v207h862v-151l-424 -1053h-289l432 997h-581z" />
    <glyph glyph-name="nine.pl.tnum.smcp" horiz-adv-x="1044" 
d="M508 623q80 0 122 54t42 149q0 94 -41 152t-122 58t-123 -56t-42 -152t42 -150q42 -55 122 -55zM420 432q-156 0 -250 104t-94 283q0 180 113 294q114 114 321 114q242 0 348 -160q88 -127 88 -397q0 -356 -137 -519t-410 -163q-128 0 -211 22l-30 8v205h10
q115 -37 225 -37q153 0 219 98t66 308q-59 -160 -258 -160z" />
    <glyph glyph-name="zero.pl.tnum.smcp" horiz-adv-x="1042" 
d="M680 602q0 234 -36 332t-122 98t-123 -98t-37 -332t37 -332t123 -98t122 98t36 332zM958 602q0 -624 -440 -625q-434 0 -434 625t440 625q434 -1 434 -625z" />
    <glyph glyph-name="numbersign.pl.tnum.smcp" horiz-adv-x="1042" 
d="M442 772l-26 -340h182l27 340h-183zM997 961l-18 -189h-141l-27 -340h145l-18 -188h-143l-19 -244h-213l19 244h-183l-18 -244h-213l18 244h-141l18 188h140l26 340h-143l16 189h144l20 243h213l-20 -243h182l21 243h212l-20 -243h143z" />
    <glyph glyph-name="Euro.pl.tnum.smcp" horiz-adv-x="1042" 
d="M750 184q71 0 165 29l27 10h12v-200q-92 -35 -227 -35q-213 0 -346 106t-182 289h-150v162h123v55q0 39 2 59h-125v162h150q49 183 182 289t346 107q117 0 201 -25l26 -10v-201h-12q-92 39 -194 39q-203 0 -275 -199h395l-34 -162h-394v-53q0 -41 2 -61h371l-35 -162
h-303q72 -199 275 -199z" />
    <glyph glyph-name="sterling.pl.tnum.smcp" horiz-adv-x="1040" 
d="M469 895q0 -69 66 -182h282v-199h-229v-20q0 -193 -137 -291h452v-203h-764v162q195 104 195 295q0 20 -4 57h-191v199h117q-43 94 -43 180q0 147 114 235t306 89q110 0 194 -25l29 -6v-205h-12q-111 37 -211 37q-164 0 -164 -123z" />
    <glyph glyph-name="yen.pl.tnum.smcp" horiz-adv-x="1040" 
d="M889 225h-242v-225h-254v225h-241v162h241v107h-241v161h198l-325 549h292l226 -434l229 434h244l-328 -549h201v-161h-242v-107h242v-162z" />
    <glyph glyph-name="uni20BA.pl.tnum.smcp" horiz-adv-x="1042" 
d="M424 201q178 0 278 101t101 341h217q0 -406 -252 -559q-139 -84 -389 -84h-219v379l-144 -45v160l144 45v104l-144 -43v160l144 43v401h264v-319l188 59v-160l-188 -59v-104l188 59v-160l-188 -59v-260z" />
    <glyph glyph-name="rupee.pl.tnum.smcp" horiz-adv-x="1040" 
d="M952 709h-204q-33 -236 -332 -263l415 -446h-321l-375 428v139h90q129 0 191 37q61 37 82 105h-363v151h363q-18 66 -78 103t-195 36h-90v205h817v-205h-319q78 -31 106 -139h213v-151z" />
    <glyph glyph-name="eight.pl.tnum.smcp" horiz-adv-x="1044" 
d="M348 336q0 -82 46 -128t126 -46t127 45t47 115q0 137 -217 215q-129 -66 -129 -201zM379 903q0 -129 180 -198q106 61 107 186q0 69 -38 109t-107 40t-105 -38t-37 -99zM111 901q0 152 107 238q108 86 304 86t304 -82t108 -221q0 -205 -209 -277q113 -39 177 -123
t65 -198q0 -158 -119 -251t-330 -93q-212 0 -326 87t-114 236q0 219 239 299q-206 84 -206 299z" />
    <glyph glyph-name="dollar.gap.inferior" horiz-adv-x="806" 
d="M100 -166h11q139 -47 263 -47t124 76q0 39 -42 63t-102 42q-60 17 -118 41q-59 24 -102 74q-42 50 -42 126q0 188 232 233l-2 121h186l-8 -112q88 -4 159 -23l23 -6v-162h-10q-123 39 -238 39t-115 -66q0 -35 42 -57q41 -22 101 -39q60 -16 120 -40t101 -77
q42 -53 42 -141t-66 -151t-184 -84l4 -121h-188l8 112q-112 8 -176 29l-23 6v164z" />
    <glyph glyph-name="dollar.gap.superior" horiz-adv-x="806" 
d="M725 999q0 -199 -250 -247l4 -119h-188l8 112q-97 4 -176 29l-23 6v164h11q139 -47 263 -47t124 76q0 39 -42 63t-102 42q-60 17 -118 41q-59 24 -102 74q-42 50 -42 126q0 188 232 233l-2 121h186l-8 -112q88 -4 159 -23l23 -6v-162h-10q-123 39 -238 39t-115 -66
q0 -35 42 -57q41 -22 101 -39q60 -16 120 -40t101 -77q42 -53 42 -131z" />
    <glyph glyph-name="a.inferior" horiz-adv-x="894" 
d="M301 -172q1 -84 99 -84t135 63q18 31 18 107v18q-152 0 -202 -26t-50 -78zM150 166v164q117 31 266 30q233 0 309 -106q47 -66 47 -223v-432h-168l-39 120q-14 -61 -72 -99t-164 -38q-105 0 -179 62t-74 184q0 123 117 182q96 47 360 47q0 74 -21 103q-33 45 -136 45
t-203 -29l-31 -10h-12z" />
    <glyph glyph-name="b.inferior" horiz-adv-x="1003" 
d="M515 199q-167 1 -167 -227t167 -228t167 228t-167 227zM131 651h219v-420q47 135 232 136q156 -1 246 -103t90 -286t-96 -290t-269 -106q-174 0 -229 125l-54 -108h-139v1052z" />
    <glyph glyph-name="c.inferior" horiz-adv-x="753" 
d="M666 -219v-172q-70 -20 -172 -21q-200 0 -304 100t-104 284t104 286t304 102q98 0 151 -16l21 -4v-172h-11q-68 25 -143 25q-190 -1 -190 -219t190 -218q74 0 123 19l20 6h11z" />
    <glyph glyph-name="d.inferior" horiz-adv-x="1003" 
d="M487 201q-165 -1 -165 -227t166 -226t165 226q0 226 -166 227zM653 651h219v-1052h-176l-41 118q-43 -135 -220 -135t-263 106t-86 281q0 174 89 286t260 112t218 -119v403z" />
    <glyph glyph-name="e.inferior" horiz-adv-x="911" 
d="M594 51q0 170 -134 170t-149 -170h283zM770 -217v-162q-113 -33 -264 -33q-420 0 -420 383q0 184 98 292t292 108t282 -133q39 -59 49 -130t10 -194h-504q-1 -80 55 -125t160 -45t197 29l33 10h12z" />
    <glyph glyph-name="f.inferior" horiz-adv-x="702" 
d="M639 178h-219v-579h-219v579h-150v162h150v35q0 113 37 172q68 109 270 108l131 -10v-166h-10q-161 35 -195 -28q-14 -27 -14 -82v-29h219v-162z" />
    <glyph glyph-name="g.inferior" horiz-adv-x="1005" 
d="M655 -6q0 211 -167 211t-167 -211t167 -211t167 211zM874 350v-631q0 -170 -53 -245q-100 -145 -387 -146q-155 0 -254 31l-35 10v182h13q135 -59 277 -59t196 74q27 39 26 133v49q-49 -119 -221 -119q-172 -1 -261 95t-89 267t95 273t266 102t235 -122l55 106h137z" />
    <glyph glyph-name="h.inferior" horiz-adv-x="974" 
d="M131 651h219v-415q48 131 218 131t239 -97q31 -43 38 -91t7 -138v-442h-223v442q0 71 -29 109t-108 38q-141 0 -142 -139v-450h-219v1052z" />
    <glyph glyph-name="i.inferior" horiz-adv-x="481" 
d="M131 350h219v-751h-219v751zM129 631h223v-180h-223v180z" />
    <glyph glyph-name="j.inferior" horiz-adv-x="489" 
d="M137 631h223v-180h-223v180zM-41 -496h12q31 -6 62 -6q68 0 92 39q14 23 14 84v729h219v-719q0 -121 -36 -180q-70 -113 -271 -113l-92 7v159z" />
    <glyph glyph-name="k.inferior" horiz-adv-x="931" 
d="M131 651h219v-590l275 289h237l-289 -299l299 -452h-254l-190 313l-78 -76v-237h-219v1052z" />
    <glyph glyph-name="l.inferior" horiz-adv-x="481" 
d="M131 651h219v-1052h-219v1052z" />
    <glyph glyph-name="m.inferior" horiz-adv-x="1437" 
d="M131 350h172l41 -129q41 145 229 145t244 -149q53 150 234 150q156 0 221 -97q43 -66 43 -225v-446h-223v444q0 72 -21 100q-31 45 -106 45q-131 0 -131 -139v-450h-224v446q0 70 -20 98q-31 45 -107 45q-129 0 -129 -139v-450h-223v751z" />
    <glyph glyph-name="n.inferior" horiz-adv-x="978" 
d="M131 350h172l41 -129q43 145 238 146q158 0 227 -97q47 -66 47 -229v-442h-223v442q0 71 -30 109t-107 38q-141 0 -142 -139v-450h-223v751z" />
    <glyph glyph-name="o.inferior" horiz-adv-x="970" 
d="M486 -268q165 0 165 242t-165 243q-165 -1 -165 -243t165 -242zM885 -25q1 -195 -103 -296t-297 -101t-296 100t-103 295t104 296t296 101t295 -100q104 -100 104 -295z" />
    <glyph glyph-name="p.inferior" horiz-adv-x="1003" 
d="M348 -26q0 -226 167 -226t167 226t-166 227q-168 -1 -168 -227zM350 -662h-219v1012h176l39 -119q42 135 220 135t264 -106t88 -281q0 -175 -90 -286t-261 -111q-170 0 -217 119v-363z" />
    <glyph glyph-name="q.inferior" horiz-adv-x="1003" 
d="M487 -250q166 0 166 227t-166 228t-166 -227t166 -228zM872 -662h-219v379q-47 -135 -231 -135q-156 0 -246 102t-90 287q0 183 95 289t269 106t230 -124l51 108h141v-1012z" />
    <glyph glyph-name="r.inferior" horiz-adv-x="651" 
d="M604 360v-213q-116 22 -183 -7t-67 -138v-403h-223v751h170l43 -149q37 160 242 159h18z" />
    <glyph glyph-name="s.inferior" horiz-adv-x="759" 
d="M635 168h-12q-107 39 -203 39t-96 -55q0 -27 35 -48q36 -20 87 -37q50 -17 102 -43t88 -76t36 -122q0 -117 -89 -177q-89 -61 -227 -61t-229 27l-27 8v164h13q127 -45 233 -45t105 61q0 33 -36 56t-88 41q-51 18 -103 42t-88 72t-36 115q0 109 86 170t242 61
q92 0 182 -20l25 -8v-164z" />
    <glyph glyph-name="t.inferior" horiz-adv-x="714" 
d="M623 -236v-159q-63 -16 -154 -17q-178 0 -240 88q-37 55 -36 197v305h-142v162h142v180l219 60v-240h211v-162h-211v-299q0 -71 18 -99t82 -28l98 12h13z" />
    <glyph glyph-name="u.inferior" horiz-adv-x="974" 
d="M844 -401h-172l-41 129q-41 -145 -236 -146q-154 0 -219 92q-31 44 -38 94t-7 140v442h223v-442q0 -72 29 -110t109 -38q129 0 129 140v450h223v-751z" />
    <glyph glyph-name="v.inferior" horiz-adv-x="933" 
d="M59 350h248l178 -514l185 514h204l-296 -751h-226z" />
    <glyph glyph-name="w.inferior" horiz-adv-x="1351" 
d="M74 350h231l133 -516l148 502h217l149 -502l133 516h191l-219 -751h-234l-149 501l-150 -501h-233z" />
    <glyph glyph-name="x.inferior" horiz-adv-x="933" 
d="M76 350h268l145 -229l148 229h219l-248 -358l266 -393h-270l-160 249l-159 -249h-219l260 381z" />
    <glyph glyph-name="y.inferior" horiz-adv-x="927" 
d="M870 350l-417 -1012h-224l133 275l-305 737h246l180 -483l185 483h202z" />
    <glyph glyph-name="z.inferior" horiz-adv-x="815" 
d="M713 340v-162l-361 -418h365v-161h-617v178l349 401h-343v162h607z" />
    <glyph glyph-name="k.alt.inferior" horiz-adv-x="944" 
d="M131 651h219v-643l301 342h232l-314 -336l326 -415h-262l-283 374v-374h-219v1052z" />
    <glyph glyph-name="a.alt.inferior" horiz-adv-x="925" 
d="M297 -166q0 -86 93 -86t130 59q20 33 21 109v18h-41q-147 0 -184 -43q-19 -22 -19 -57zM565 -276q-37 -136 -249 -136q-104 0 -174 62t-70 176q0 115 104 177t287 63l78 -5q0 74 -21 101q-31 41 -137 41t-188 -29l-31 -10h-12v164q104 33 270 32q225 0 295 -94
q43 -57 43 -205v-223q0 -25 2 -40t18 -32t49 -18l35 4v-151q-53 -12 -114 -13q-166 0 -185 136z" />
    <glyph glyph-name="g.alt.inferior" horiz-adv-x="950" 
d="M455 23q119 0 118 102q-1 104 -119 104t-118 -103t119 -103zM522 -381h-229q-43 -20 -43 -70q0 -86 200 -86t199 91q0 65 -127 65zM797 125q0 -113 -91 -177t-251 -65q-57 0 -99 8q-35 -18 -34 -53q0 -49 98 -49h145q162 0 228 -45q31 -20 57 -62t24 -102
q0 -252 -446 -252q-373 0 -373 172q-1 41 19 73t62 52t71 23q-104 41 -105 131q0 115 154 139q-143 63 -143 207q0 115 91 179t250 65q159 0 253 -68q16 47 51 73q34 26 58 28t61 4h16v-177q-80 17 -121 -2q25 -47 25 -102z" />
    <glyph glyph-name="y.alt.inferior" horiz-adv-x="927" 
d="M117 -489h12q128 -35 182 17q33 32 64 97l-318 725h246l184 -471l181 471h202l-292 -731q-29 -72 -52 -114q-22 -42 -62 -86q-75 -83 -239 -85l-108 11v166z" />
    <glyph glyph-name="i.round.inferior" horiz-adv-x="481" 
d="M131 350h219v-751h-219v751zM242 682q59 0 94 -32t35 -87t-36 -87t-95 -32t-95 32q-35 32 -34 87q0 55 35 87q37 32 96 32z" />
    <glyph glyph-name="j.round.inferior" horiz-adv-x="489" 
d="M250 682q59 0 94 -32t35 -87t-36 -87t-95 -32t-94 32t-35 87t36 87t95 32zM-41 -496h12q31 -6 62 -6q68 0 92 39q14 23 14 84v729h219v-719q0 -121 -36 -180q-70 -113 -271 -113l-92 7v159z" />
    <glyph glyph-name="period.inferior" horiz-adv-x="456" 
d="M119 -186h225v-215h-225v215z" />
    <glyph glyph-name="period.round.inferior" horiz-adv-x="462" 
d="M102 -282q0 58 36 94t94 36t96 -35q37 -37 37 -95t-37 -94q-38 -36 -96 -36t-94 36t-36 94z" />
    <glyph glyph-name="comma.inferior" horiz-adv-x="462" 
d="M139 -186h221l-114 -400h-168z" />
    <glyph glyph-name="hyphen.inferior" horiz-adv-x="794" 
d="M690 -61h-586v170h586v-170z" />
    <glyph glyph-name="plus.inferior" horiz-adv-x="1009" 
d="M602 -391h-192v291h-289v159h289v291h192v-291h287v-159h-287v-291z" />
    <glyph glyph-name="minus.inferior" horiz-adv-x="1009" 
d="M889 -100h-768v159h768v-159z" />
    <glyph glyph-name="equal.inferior" horiz-adv-x="1011" 
d="M850 49h-688v154h688v-154zM850 -244h-688v152h688v-152z" />
    <glyph glyph-name="a.superior" horiz-adv-x="894" 
d="M301 938q1 -84 99 -84t135 64q18 31 18 106v18q-152 0 -202 -26t-50 -78zM150 1276v164q117 31 266 30q233 0 309 -106q47 -66 47 -223v-432h-168l-39 120q-14 -61 -72 -99t-164 -38q-105 0 -179 62t-74 184q0 123 117 182q96 47 360 47q0 74 -21 103q-33 45 -136 45
t-203 -29l-31 -10h-12z" />
    <glyph glyph-name="b.superior" horiz-adv-x="1003" 
d="M515 1309q-167 1 -167 -227t167 -228t167 228t-167 227zM131 1761h219v-420q47 135 232 136q156 -1 246 -103t90 -286t-96 -290t-269 -106q-174 0 -229 125l-54 -108h-139v1052z" />
    <glyph glyph-name="c.superior" horiz-adv-x="753" 
d="M666 891v-172q-70 -20 -172 -21q-200 0 -304 100t-104 284t104 286t304 102q98 0 151 -16l21 -4v-172h-11q-68 25 -143 25q-190 -1 -190 -219t190 -218q74 0 123 19l20 6h11z" />
    <glyph glyph-name="d.superior" horiz-adv-x="1003" 
d="M487 1311q-165 -1 -165 -227t166 -226t165 226q0 226 -166 227zM653 1761h219v-1052h-176l-41 118q-43 -135 -220 -135t-263 106t-86 282q0 175 89 286t260 111t218 -119v403z" />
    <glyph glyph-name="e.superior" horiz-adv-x="911" 
d="M594 1161q0 170 -134 170t-149 -170h283zM770 893v-162q-113 -33 -264 -33q-420 0 -420 383q0 184 98 292t292 108t282 -133q39 -59 49 -130t10 -194h-504q-1 -80 55 -125t160 -45t197 29l33 10h12z" />
    <glyph glyph-name="f.superior" horiz-adv-x="702" 
d="M639 1288h-219v-579h-219v579h-150v162h150v35q0 113 37 172q68 109 270 108l131 -10v-166h-10q-161 35 -195 -28q-14 -27 -14 -82v-29h219v-162z" />
    <glyph glyph-name="g.superior" horiz-adv-x="1005" 
d="M655 1104q0 211 -167 211t-167 -211t167 -211t167 211zM874 1460v-631q0 -170 -53 -245q-100 -145 -387 -146q-145 0 -254 31l-35 10v183h13q135 -60 277 -60t196 74q27 39 26 133v49q-49 -119 -221 -119q-172 -1 -261 95t-89 267t95 273t266 102t235 -122l55 106h137z
" />
    <glyph glyph-name="h.superior" horiz-adv-x="974" 
d="M131 1761h219v-415q48 131 218 131t239 -97q31 -43 38 -91t7 -138v-442h-223v442q0 71 -29 109t-108 38q-141 0 -142 -139v-450h-219v1052z" />
    <glyph glyph-name="j.superior" horiz-adv-x="489" 
d="M137 1741h223v-180h-223v180zM-41 614h12q31 -6 62 -6q68 0 92 39q14 23 14 84v729h219v-719q0 -121 -36 -180q-70 -113 -271 -112l-92 6v159z" />
    <glyph glyph-name="k.superior" horiz-adv-x="931" 
d="M131 1761h219v-590l275 289h237l-289 -299l299 -452h-254l-190 311l-78 -74v-237h-219v1052z" />
    <glyph glyph-name="l.superior" horiz-adv-x="481" 
d="M131 1761h219v-1052h-219v1052z" />
    <glyph glyph-name="m.superior" horiz-adv-x="1437" 
d="M131 1460h172l41 -129q41 145 229 145t244 -149q53 150 234 150q156 0 221 -97q43 -66 43 -225v-446h-223v444q0 72 -21 100q-31 45 -106 45q-131 0 -131 -139v-450h-224v446q0 70 -20 98q-31 45 -107 45q-129 0 -129 -139v-450h-223v751z" />
    <glyph glyph-name="o.superior" horiz-adv-x="970" 
d="M486 842q165 0 165 242t-165 243q-165 -1 -165 -243t165 -242zM885 1085q1 -195 -103 -295t-297 -102q-193 0 -296 100t-103 295t104 296t296 101t295 -100q104 -100 104 -295z" />
    <glyph glyph-name="p.superior" horiz-adv-x="1003" 
d="M348 1084q0 -226 167 -226t167 226t-166 227q-168 -1 -168 -227zM350 449h-219v1011h176l39 -119q42 135 220 135t264 -106t88 -281q0 -175 -90 -286t-261 -111q-170 0 -217 119v-362z" />
    <glyph glyph-name="q.superior" horiz-adv-x="1003" 
d="M487 860q166 0 166 227t-166 228t-166 -227t166 -228zM872 449h-219v378q-47 -135 -231 -135q-156 0 -246 102t-90 287q0 183 95 289t269 106t230 -124l51 108h141v-1011z" />
    <glyph glyph-name="r.superior" horiz-adv-x="651" 
d="M604 1470v-213q-116 22 -183 -7t-67 -138v-403h-223v751h170l43 -149q37 160 242 159h18z" />
    <glyph glyph-name="s.superior" horiz-adv-x="759" 
d="M635 1278h-12q-107 39 -203 39t-96 -55q0 -27 35 -48q36 -20 87 -37q50 -17 102 -43t88 -76t36 -122q0 -117 -89 -177q-89 -61 -227 -61t-229 27l-27 8v164h13q127 -45 233 -45t105 61q0 33 -36 56t-88 41q-51 18 -103 42t-88 72t-36 115q0 109 86 170t242 61
q92 0 182 -20l25 -8v-164z" />
    <glyph glyph-name="t.superior" horiz-adv-x="714" 
d="M623 874v-159q-63 -16 -154 -17q-178 0 -240 88q-37 55 -36 197v305h-142v162h142v180l219 60v-240h211v-162h-211v-299q0 -71 18 -99t82 -28l98 12h13z" />
    <glyph glyph-name="u.superior" horiz-adv-x="974" 
d="M844 709h-172l-41 129q-41 -145 -236 -146q-154 0 -219 92q-31 44 -38 94t-7 140v442h223v-442q0 -72 29 -110t109 -38q129 0 129 140v450h223v-751z" />
    <glyph glyph-name="v.superior" horiz-adv-x="933" 
d="M59 1460h248l178 -514l185 514h204l-296 -751h-226z" />
    <glyph glyph-name="w.superior" horiz-adv-x="1351" 
d="M74 1460h231l133 -516l148 502h217l149 -502l133 516h191l-219 -751h-234l-149 501l-150 -501h-233z" />
    <glyph glyph-name="x.superior" horiz-adv-x="933" 
d="M76 1460h268l145 -229l148 229h219l-248 -358l266 -393h-270l-160 249l-159 -249h-219l260 381z" />
    <glyph glyph-name="y.superior" horiz-adv-x="927" 
d="M870 1460l-417 -1011h-224l133 274l-305 737h246l180 -483l185 483h202z" />
    <glyph glyph-name="z.superior" horiz-adv-x="815" 
d="M713 1450v-162l-361 -418h365v-161h-617v178l349 401h-343v162h607z" />
    <glyph glyph-name="k.alt.superior" horiz-adv-x="944" 
d="M131 1761h219v-643l301 342h232l-314 -336l326 -415h-262l-283 374v-374h-219v1052z" />
    <glyph glyph-name="a.alt.superior" horiz-adv-x="925" 
d="M297 944q0 -86 93 -86t130 60q20 33 21 108v18h-41q-147 0 -184 -43q-19 -22 -19 -57zM565 834q-37 -136 -249 -136q-104 0 -174 62t-70 176q0 115 104 177t287 63l78 -5q0 74 -21 101q-31 41 -137 41t-188 -29l-31 -10h-12v164q104 33 270 32q225 0 295 -94
q43 -57 43 -205v-223q0 -25 2 -40t18 -32t49 -18l35 4v-151q-53 -12 -114 -13q-166 0 -185 136z" />
    <glyph glyph-name="g.alt.superior" horiz-adv-x="950" 
d="M455 1133q119 0 118 102q-1 104 -119 104t-118 -103t119 -103zM522 729h-229q-43 -20 -43 -70q0 -86 200 -86t199 91q0 65 -127 65zM797 1235q0 -113 -91 -177t-251 -65q-53 0 -99 6q-35 -12 -34 -51q0 -49 98 -49h145q162 0 228 -45q31 -20 57 -62t24 -102
q0 -252 -446 -252q-373 0 -373 172q0 117 152 148q-41 7 -73 47q-32 41 -32 84q0 111 154 139q-143 61 -143 207q0 115 91 179t250 65q159 0 253 -68q16 47 51 73q34 26 58 28t61 4h16v-177q-80 17 -121 -2q25 -47 25 -102z" />
    <glyph glyph-name="y.alt.superior" horiz-adv-x="927" 
d="M117 621h12q128 -35 182 17q33 32 64 97l-318 725h246l184 -471l181 471h202l-292 -731q-29 -72 -52 -114q-22 -42 -62 -86q-75 -83 -239 -85l-108 11v166z" />
    <glyph glyph-name="i.round.superior" horiz-adv-x="481" 
d="M131 1460h219v-751h-219v751zM242 1792q59 0 94 -32t35 -87t-36 -87t-95 -32t-95 32q-35 32 -34 87q0 55 35 87q37 32 96 32z" />
    <glyph glyph-name="j.round.superior" horiz-adv-x="489" 
d="M250 1792q59 0 94 -32t35 -87t-36 -87t-95 -32t-94 32t-35 87t36 87t95 32zM-41 614h12q31 -6 62 -6q68 0 92 39q14 23 14 84v729h219v-719q0 -121 -36 -180q-70 -113 -271 -112l-92 6v159z" />
    <glyph glyph-name="period.superior" horiz-adv-x="456" 
d="M119 924h225v-215h-225v215z" />
    <glyph glyph-name="period.round.superior" horiz-adv-x="462" 
d="M102 828q0 58 36 94t94 36t96 -35q37 -37 37 -95t-37 -94q-38 -36 -96 -36t-94 36t-36 94z" />
    <glyph glyph-name="comma.superior" horiz-adv-x="462" 
d="M139 924h221l-114 -400h-168z" />
    <glyph glyph-name="hyphen.superior" horiz-adv-x="794" 
d="M690 1049h-586v170h586v-170z" />
    <glyph glyph-name="periodcentered.case" horiz-adv-x="356" 
d="M45 840h266v-271h-266v271z" />
    <glyph glyph-name="periodcentered.round.case" horiz-adv-x="356" 
d="M178 864q74 0 117 -44t43 -116t-43 -115q-43 -44 -117 -44t-117 44t-43 116q0 71 43 115t117 44z" />
    <glyph glyph-name="hyphen.case" horiz-adv-x="905" 
d="M782 600h-659v209h659v-209z" />
    <glyph glyph-name="softhyphen.case" horiz-adv-x="905" 
d="M782 600h-659v209h659v-209z" />
    <glyph glyph-name="endash.case" horiz-adv-x="1376" 
d="M1221 606h-1065v197h1065v-197z" />
    <glyph glyph-name="emdash.case" horiz-adv-x="2154" 
d="M1999 606h-1843v197h1843v-197z" />
    <glyph glyph-name="guilsinglleft.case" horiz-adv-x="741" 
d="M115 705l262 440h250l-279 -436l279 -445h-250z" />
    <glyph glyph-name="guilsinglright.case" horiz-adv-x="741" 
d="M627 705l-262 -441h-250l278 436l-278 445h250z" />
    <glyph glyph-name="guillemotleft.case" 
d="M602 705l262 440h250l-278 -436l278 -445h-250zM115 705l262 440h250l-279 -436l279 -445h-250z" />
    <glyph glyph-name="guillemotright.case" 
d="M627 705l-262 -441h-250l278 436l-278 445h250zM1114 705l-262 -441h-250l279 436l-279 445h250z" />
    <glyph glyph-name="less.case" horiz-adv-x="1392" 
d="M1114 1196v-213l-700 -274l700 -283v-213l-913 381v221z" />
    <glyph glyph-name="greater.case" horiz-adv-x="1392" 
d="M279 213v213l700 274l-700 283v213l913 -381v-221z" />
    <glyph glyph-name="plus.case" horiz-adv-x="1392" 
d="M813 156h-233v448h-424v201h424v448h233v-448h424v-201h-424v-448z" />
    <glyph glyph-name="minus.case" horiz-adv-x="1392" 
d="M1237 604h-1081v201h1081v-201z" />
    <glyph glyph-name="divide.case" horiz-adv-x="1392" 
d="M836 156h-279v237h279v-237zM557 1253h279v-237h-279v237zM1237 608h-1081v193h1081v-193z" />
    <glyph glyph-name="divide.round.case" horiz-adv-x="1392" 
d="M696 141q-68 0 -106 38q-38 37 -39 101q0 64 39 102q38 38 106 38t107 -38t39 -101t-39 -101t-107 -39zM696 1268q68 0 107 -38t39 -102t-39 -101q-39 -38 -107 -38t-106 38t-39 101q1 64 39 102t106 38zM1237 608h-1081v193h1081v-193z" />
    <glyph glyph-name="equal.case" horiz-adv-x="1392" 
d="M1184 819h-975v189h975v-189zM1184 401h-975v189h975v-189z" />
    <glyph glyph-name="notequal.case" horiz-adv-x="1392" 
d="M201 410v180h387l57 229h-444v180h493l56 232h163l-59 -232h338v-180h-387l-57 -229h444v-180h-494l-55 -232h-164l60 232h-338z" />
    <glyph glyph-name="asciitilde.case" horiz-adv-x="1392" 
d="M1237 887v-221q-10 -15 -47 -46q-117 -98 -257 -99q-101 -1 -183 39t-154 80t-140 40t-138 -40q-71 -40 -105 -79l-37 -41h-20v221q10 15 47 46q117 98 257 99q101 1 183 -39t154 -80q71 -40 139 -40t138 40t106 81l37 39h20z" />
    <glyph glyph-name="approxequal.case" horiz-adv-x="1392" 
d="M1184 1042v-184q-48 -41 -129 -74q-80 -32 -156 -32t-207 54t-200 54q-68 0 -134 -26t-100 -56l-33 -26h-16v188q35 35 122 69q87 33 175 33t216 -54t188 -54t124 27t99 55l34 26h17zM1184 657v-188q-35 -35 -122 -69t-175 -34t-216 55q-129 54 -189 54q-60 -1 -124 -27
t-98 -55l-35 -26h-16v184q48 41 129 74q80 33 156 33t206 -55q131 -54 200 -54q68 1 134 27t101 55l32 26h17z" />
    <glyph glyph-name="multiply.case" horiz-adv-x="1392" 
d="M1194 362l-160 -153l-344 356l-344 -356l-147 145l352 346l-352 344l159 154l344 -356l345 356l147 -145l-352 -346z" />
    <glyph glyph-name="colon.case" horiz-adv-x="622" 
d="M172 1260h279v-263h-279v263zM172 412h279v-262h-279v262z" />
    <glyph glyph-name="colon.round.case" horiz-adv-x="622" 
d="M309 1274q74 0 117 -44t43 -116t-43 -116t-117 -44q-75 0 -117 44t-42 116t42 116t117 44zM309 455q74 0 117 -44t43 -116t-43 -116t-117 -44q-75 0 -117 44t-42 116t42 116t117 44z" />
    <glyph glyph-name="aacute" horiz-adv-x="1187" 
d="M688 1290h-209l176 307h295zM365 326q0 -68 41 -107t122 -39q147 0 205 107q33 63 33 196v25q-242 0 -322 -42t-79 -140zM188 885v213q160 45 363 45q401 0 462 -259q15 -65 17 -110t2 -127v-647h-201l-53 184q-16 -86 -96 -147t-232 -61t-258 88q-106 90 -106 251
q0 280 309 336q98 17 169 21t202 4q0 139 -33 188q-51 78 -206 78t-279 -43l-43 -14h-17z" />
    <glyph glyph-name="Aacute.cap" horiz-adv-x="1366" 
d="M797 1577h-232l211 272h332zM668 1135l-203 -592h397zM1331 0h-289l-112 342h-533l-116 -342h-246l508 1409h288z" />
    <glyph glyph-name="Aacute.smcp" horiz-adv-x="1241" 
d="M737 1370h-227l192 272h326zM604 942l-166 -475h324zM1208 0h-288l-93 274h-456l-95 -274h-243l442 1204h297z" />
    <glyph glyph-name="abreve" horiz-adv-x="1187" 
d="M731 1597h191q0 -307 -340 -307t-340 307h190q0 -160 150 -159q149 -1 149 159zM365 326q0 -68 41 -107t122 -39q147 0 205 107q33 63 33 196v25q-242 0 -322 -42t-79 -140zM188 885v213q160 45 363 45q401 0 462 -259q15 -65 17 -110t2 -127v-647h-201l-53 184
q-16 -86 -96 -147t-232 -61t-258 88q-106 90 -106 251q0 280 309 336q98 17 169 21t202 4q0 139 -33 188q-51 78 -206 78t-279 -43l-43 -14h-17z" />
    <glyph glyph-name="Abreve.cap" horiz-adv-x="1366" 
d="M831 1849h191q0 -285 -346 -285t-346 285h190q0 -133 156 -133t155 133zM668 1135l-203 -592h397zM1331 0h-289l-112 342h-533l-116 -342h-246l508 1409h288z" />
    <glyph glyph-name="Abreve.smcp" horiz-adv-x="1241" 
d="M752 1642h190q0 -284 -326 -284t-325 284h190q-1 -133 135 -133t136 133zM604 942l-166 -475h324zM1208 0h-288l-93 274h-456l-95 -274h-243l442 1204h297z" />
    <glyph glyph-name="acircumflex" horiz-adv-x="1187" 
d="M471 1597h221l238 -307h-217l-138 172l-137 -172h-205zM365 326q0 -68 41 -107t122 -39q147 0 205 107q33 63 33 196v25q-242 0 -322 -42t-79 -140zM188 885v213q160 45 363 45q401 0 462 -259q15 -65 17 -110t2 -127v-647h-201l-53 184q-16 -86 -96 -147t-232 -61
t-258 88q-106 90 -106 251q0 280 309 336q98 17 169 21t202 4q0 139 -33 188q-51 78 -206 78t-279 -43l-43 -14h-17z" />
    <glyph glyph-name="Acircumflex.cap" horiz-adv-x="1366" 
d="M543 1849h266l238 -272h-238l-139 152l-138 -152h-227zM668 1135l-203 -592h397zM1331 0h-289l-112 342h-533l-116 -342h-246l508 1409h288z" />
    <glyph glyph-name="Acircumflex.smcp" horiz-adv-x="1241" 
d="M487 1642h258l224 -272h-232l-125 146l-125 -146h-223zM604 942l-166 -475h324zM1208 0h-288l-93 274h-456l-95 -274h-243l442 1204h297z" />
    <glyph glyph-name="Adieresis" horiz-adv-x="1433" 
d="M823 1937h250v-229h-250v229zM344 1937h250v-229h-250v229zM700 1253l-227 -663h449zM1413 0h-295l-129 385h-588l-131 -385h-250l558 1540h286z" />
    <glyph glyph-name="adieresis" horiz-adv-x="1187" 
d="M674 1540h239v-233h-239v233zM250 1540h239v-233h-239v233zM365 326q0 -68 41 -107t122 -39q147 0 205 107q33 63 33 196v25q-242 0 -322 -42t-79 -140zM188 885v213q160 45 363 45q401 0 462 -259q15 -65 17 -110t2 -127v-647h-201l-53 184q-16 -86 -96 -147t-232 -61
t-258 88q-106 90 -106 251q0 280 309 336q98 17 169 21t202 4q0 139 -33 188q-51 78 -206 78t-279 -43l-43 -14h-17z" />
    <glyph glyph-name="adieresis.alt" horiz-adv-x="1220" 
d="M662 1540h239v-233h-239v233zM238 1540h239v-233h-239v233zM518 184q229 0 227 303v25h-61q-181 0 -246 -38q-78 -44 -78 -148q0 -60 41 -101t117 -41zM193 885v209q139 49 360 49q299 0 397 -139q61 -86 62 -304v-385q0 -35 3 -57t25 -48t68 -26l59 9v-189
q-61 -16 -159 -16q-210 0 -234 200q-31 -96 -119 -150t-213 -54q-166 0 -263 92t-97 259t143 258t414 91l106 -4q0 82 -5 118t-27 70q-51 74 -199 74q-72 0 -148 -14t-116 -29l-41 -14h-16z" />
    <glyph glyph-name="Adieresis.cap" horiz-adv-x="1366" 
d="M791 1806h249v-229h-249v229zM311 1806h250v-229h-250v229zM668 1135l-203 -592h397zM1331 0h-289l-112 342h-533l-116 -342h-246l508 1409h288z" />
    <glyph glyph-name="adieresis.round" horiz-adv-x="1187" 
d="M795 1554q61 0 99 -36t38 -96t-37 -96t-100 -36t-101 36q-37 36 -37 95t38 97q39 36 100 36zM369 1554q61 0 99 -36t38 -96t-37 -96t-100 -36t-101 36q-37 36 -37 95t38 97q39 36 100 36zM365 326q0 -68 41 -107t122 -39q147 0 205 107q33 63 33 196v25q-242 0 -322 -42
t-79 -140zM188 885v213q160 45 363 45q401 0 462 -259q15 -65 17 -110t2 -127v-647h-201l-53 184q-16 -86 -96 -147t-232 -61t-258 88q-106 90 -106 251q0 280 309 336q98 17 169 21t202 4q0 139 -33 188q-51 78 -206 78t-279 -43l-43 -14h-17z" />
    <glyph glyph-name="Adieresis.round.cap" horiz-adv-x="1366" 
d="M905 1829q63 0 101 -37t38 -98t-37 -99q-37 -37 -101 -37t-102 38q-38 36 -38 98t38 98q38 37 101 37zM446 1829q64 0 102 -37t38 -98q0 -60 -38 -98t-102 -38t-101 38q-38 36 -38 98t38 98q38 37 101 37zM668 1135l-203 -592h397zM1331 0h-289l-112 342h-533l-116 -342
h-246l508 1409h288z" />
    <glyph glyph-name="Adieresis.round.smcp" horiz-adv-x="1241" 
d="M829 1614q63 0 101 -38t39 -97q0 -59 -38 -97q-37 -38 -101 -36q-64 0 -102 36t-38 96t38 98t101 38zM403 1614q63 0 101 -38t39 -97q0 -59 -38 -97q-37 -38 -101 -36q-64 0 -102 36t-38 96t38 98t101 38zM604 942l-166 -475h324zM1208 0h-288l-93 274h-456l-95 -274
h-243l442 1204h297z" />
    <glyph glyph-name="Adieresis.smcp" horiz-adv-x="1241" 
d="M709 1597h235v-233h-235v233zM289 1597h235v-233h-235v233zM604 942l-166 -475h324zM1208 0h-288l-93 274h-456l-95 -274h-243l442 1204h297z" />
    <glyph glyph-name="agrave" horiz-adv-x="1187" 
d="M684 1290h-209l-262 307h295zM365 326q0 -68 41 -107t122 -39q147 0 205 107q33 63 33 196v25q-242 0 -322 -42t-79 -140zM188 885v213q160 45 363 45q401 0 462 -259q15 -65 17 -110t2 -127v-647h-201l-53 184q-16 -86 -96 -147t-232 -61t-258 88q-106 90 -106 251
q0 280 309 336q98 17 169 21t202 4q0 139 -33 188q-51 78 -206 78t-279 -43l-43 -14h-17z" />
    <glyph glyph-name="Agrave.cap" horiz-adv-x="1366" 
d="M786 1577h-231l-311 272h331zM668 1135l-203 -592h397zM1331 0h-289l-112 342h-533l-116 -342h-246l508 1409h288z" />
    <glyph glyph-name="Agrave.smcp" horiz-adv-x="1241" 
d="M723 1370h-227l-291 272h325zM604 942l-166 -475h324zM1208 0h-288l-93 274h-456l-95 -274h-243l442 1204h297z" />
    <glyph glyph-name="amacron" horiz-adv-x="1187" 
d="M262 1475h639v-164h-639v164zM365 326q0 -68 41 -107t122 -39q147 0 205 107q33 63 33 196v25q-242 0 -322 -42t-79 -140zM188 885v213q160 45 363 45q401 0 462 -259q15 -65 17 -110t2 -127v-647h-201l-53 184q-16 -86 -96 -147t-232 -61t-258 88q-106 90 -106 251
q0 280 309 336q98 17 169 21t202 4q0 139 -33 188q-51 78 -206 78t-279 -43l-43 -14h-17z" />
    <glyph glyph-name="Amacron.cap" horiz-adv-x="1366" 
d="M315 1778h721v-176h-721v176zM668 1135l-203 -592h397zM1331 0h-289l-112 342h-533l-116 -342h-246l508 1409h288z" />
    <glyph glyph-name="Amacron.smcp" horiz-adv-x="1241" 
d="M328 1573h577v-176h-577v176zM604 942l-166 -475h324zM1208 0h-288l-93 274h-456l-95 -274h-243l442 1204h297z" />
    <glyph glyph-name="aogonek" horiz-adv-x="1187" 
d="M365 326q0 -68 41 -107t122 -39q147 0 205 107q33 63 33 196v25q-242 0 -322 -42t-79 -140zM901 -272q38 0 115 18h16v-133q-68 -19 -186 -19t-195 48q-78 48 -78 132q1 85 69 136t187 90h2l-53 184q-16 -86 -96 -147t-232 -61t-258 88q-106 90 -106 251q0 280 309 336
q98 17 169 21t202 4q0 139 -33 188q-51 78 -206 78t-279 -43l-43 -14h-17v213q160 45 363 45q401 0 462 -259q15 -65 17 -110t2 -127v-674q-262 -47 -262 -161q0 -84 131 -84z" />
    <glyph glyph-name="Aogonek.cap" horiz-adv-x="1366" 
d="M668 1135l-203 -592h397zM1200 -272q39 0 115 18h16v-133q-69 -19 -187 -19t-195 48t-77 137q0 139 170 221l-112 342h-533l-116 -342h-246l508 1409h288l500 -1409q-119 -14 -191 -68t-71 -116q0 -88 131 -88z" />
    <glyph glyph-name="Aogonek.smcp" horiz-adv-x="1241" 
d="M604 942l-166 -475h324zM1075 -272q45 0 117 18h16v-133q-68 -19 -186 -19t-196 48q-77 48 -76 137q0 133 170 221l-93 274h-456l-95 -274h-243l442 1204h297l436 -1204q-126 -23 -194 -73t-68 -111q0 -88 129 -88z" />
    <glyph glyph-name="aring" horiz-adv-x="1187" 
d="M477 1458q0 -45 28 -74q28 -28 77 -28q48 0 76 28t28 74q0 45 -28 74t-76 29t-77 -29q-28 -29 -28 -74zM319 1458q0 96 70 156t193 61q122 0 192 -60q70 -61 70 -157t-70 -156t-192 -60t-193 60q-70 60 -70 156zM365 326q0 -68 41 -107t122 -39q147 0 205 107
q33 63 33 196v25q-242 0 -322 -42t-79 -140zM188 885v213q160 45 363 45q401 0 462 -259q15 -65 17 -110t2 -127v-647h-201l-53 184q-16 -86 -96 -147t-232 -61t-258 88q-106 90 -106 251q0 280 309 336q98 17 169 21t202 4q0 139 -33 188q-51 78 -206 78t-279 -43l-43 -14
h-17z" />
    <glyph glyph-name="Aring.cap" horiz-adv-x="1366" 
d="M555 1559q0 -53 33 -87t88 -34t88 34t33 86q0 54 -33 88t-88 34t-88 -34t-33 -87zM668 1135l-203 -592h397zM389 1573q0 115 82 185t205 69q123 0 205 -70q82 -71 82 -197t-115 -200l483 -1360h-289l-112 342h-533l-116 -342h-246l485 1350q-131 71 -131 223z" />
    <glyph glyph-name="Aring.smcp" horiz-adv-x="1241" 
d="M500 1346q0 -51 32 -84t84 -33q53 0 85 33t32 84t-32 84q-32 32 -85 32t-85 -32q-31 -33 -31 -84zM604 942l-166 -475h324zM334 1356q0 118 80 186t202 68t203 -69q80 -69 80 -195t-111 -187l420 -1159h-288l-93 274h-456l-95 -274h-243l424 1153q-123 58 -123 203z" />
    <glyph glyph-name="atilde" horiz-adv-x="1187" 
d="M260 1303v153q24 30 86 59q62 27 116 27t144 -38t131 -38t83 18t65 40l22 18h17v-153q-24 -31 -86 -59t-117 -28t-144 38t-131 38t-82 -19q-42 -19 -65 -38l-23 -18h-16zM365 326q0 -68 41 -107t122 -39q147 0 205 107q33 63 33 196v25q-242 0 -322 -42t-79 -140z
M188 885v213q160 45 363 45q401 0 462 -259q15 -65 17 -110t2 -127v-647h-201l-53 184q-16 -86 -96 -147t-232 -61t-258 88q-106 90 -106 251q0 280 309 336q98 17 169 21t202 4q0 139 -33 188q-51 78 -206 78t-279 -43l-43 -14h-17z" />
    <glyph glyph-name="Atilde.cap" horiz-adv-x="1366" 
d="M332 1577v158q86 82 217 82q66 0 163 -36t141 -36t91 17t72 36l24 19h17v-158q-86 -82 -217 -82q-66 0 -163 36t-141 36q-44 1 -92 -17t-71 -37l-25 -18h-16zM668 1135l-203 -592h397zM1331 0h-289l-112 342h-533l-116 -342h-246l508 1409h288z" />
    <glyph glyph-name="Atilde.smcp" horiz-adv-x="1241" 
d="M299 1370v158q80 82 197 82q57 0 146 -36t130 -36t82 17t64 36l20 19h16v-158q-80 -82 -196 -82q-56 0 -146 36t-131 36t-82 -18t-63 -35l-21 -19h-16zM604 942l-166 -475h324zM1208 0h-288l-93 274h-456l-95 -274h-243l442 1204h297z" />
    <glyph glyph-name="Cacute.cap" horiz-adv-x="1239" 
d="M881 1577h-232l211 272h332zM1120 238v-209q-129 -43 -305 -43q-346 0 -521 200t-175 518t175 519t521 200q153 0 268 -32l37 -11v-209h-16q-123 51 -266 52q-217 -1 -325 -143q-107 -142 -107 -370t109 -376q110 -147 327 -148q123 0 227 39l35 13h16z" />
    <glyph glyph-name="Cacute.smcp" horiz-adv-x="1110" 
d="M805 1370h-227l192 272h326zM1004 227v-204q-115 -35 -271 -35q-311 0 -469 170t-158 442t158 444t469 173q135 0 238 -25l33 -10v-205h-15q-106 41 -229 41q-184 0 -276 -115t-91 -298q0 -183 91 -301t278 -118q106 0 196 31l31 10h15z" />
    <glyph glyph-name="Ccaron.cap" horiz-adv-x="1239" 
d="M893 1577h-266l-238 272h242l135 -159l133 159h231zM1120 238v-209q-129 -43 -305 -43q-346 0 -521 200t-175 518t175 519t521 200q153 0 268 -32l37 -11v-209h-16q-123 51 -266 52q-217 -1 -325 -143q-107 -142 -107 -370t109 -376q110 -147 327 -148q123 0 227 39
l35 13h16z" />
    <glyph glyph-name="Ccaron.smcp" horiz-adv-x="1110" 
d="M813 1370h-258l-223 272h235l121 -153l121 153h227zM1004 227v-204q-115 -35 -271 -35q-311 0 -469 170t-158 442t158 444t469 173q135 0 238 -25l33 -10v-205h-15q-106 41 -229 41q-184 0 -276 -115t-91 -298q0 -183 91 -301t278 -118q106 0 196 31l31 10h15z" />
    </font>
</defs>
</svg>
